<?xml version="1.0" encoding="utf-8"?>
<!-- Generator: Adobe Illustrator 19.1.0, SVG Export Plug-In . SVG Version: 6.00 Build 0)  -->
<svg version="1.1" id="Layer_1" xmlns="http://www.w3.org/2000/svg" xmlns:xlink="http://www.w3.org/1999/xlink" x="0px" y="0px"
	 viewBox="33 -29.8 100 93.8" style="enable-background:new 33 -29.8 100 93.8;" xml:space="preserve">
<g>
	<path d="M109.8,40.8c-6.4,0-12.1,2.6-16.3,6.7c4.5,3,6.6,8.5,5.2,16.4H133C133,51.2,122.6,40.8,109.8,40.8z"/>
	<path d="M84.1,49.4c-8,0-14.6,6.5-14.6,14.6h29.1C98.6,56,92.1,49.4,84.1,49.4z"/>
</g>
<polygon points="119.7,-24 119.7,-29.8 100.2,-29.8 100.2,-24 87.7,-24 87.7,-21.3 87.7,-21.3 87.7,17.4 93.8,23.5 93.8,-17.6 
	100.5,-17.6 100.5,34.2 106.7,34.2 106.7,-17.6 113.3,-17.6 113.3,34.2 119.5,34.2 119.5,-17.6 126.6,-17.6 126.6,38.6 133,44.1 
	133,-24 "/>
<g>
	<path d="M84.1,24H54.6l-3.3,40h11.8c0-11.5,9.4-20.9,20.9-20.9c1.5,0,3,0.2,4.4,0.5l0.5-0.5c1.5-1.5,3.2-2.8,4.9-3.9v-4.9L84.1,24z
		"/>
	<path d="M33,8.5V64h18h0.4V8.5l-9.2-22.6L33,8.5z M46.9,17.5c0,2.5-2.1,4.6-4.6,4.6c-2.5,0-4.6-2.1-4.6-4.6c0-2.5,2.1-4.6,4.6-4.6
		C44.8,12.8,46.9,14.9,46.9,17.5z"/>
</g>
</svg>
