<svg xmlns="http://www.w3.org/2000/svg" xmlns:xlink="http://www.w3.org/1999/xlink" version="1.1" x="0px" y="0px" viewBox="0 0 115 115" enable-background="new 0 0 115 115" xml:space="preserve"><polygon fill="#000000" points="106.217,55.513 58.253,12.398 57.072,11.333 55.896,12.407 8.739,55.624 7.5,56.758 8.753,57.866   16.85,65.044 18.055,66.109 19.226,65.001 57.089,29.201 95.521,64.791 96.66,65.844 97.85,64.839 106.186,57.784 107.5,56.664 "></polygon><polygon fill="#000000" points="95.717,95.92 95.717,67.188 94.327,65.895 57.098,31.425 20.429,66.096 19.249,67.213 19.249,95.92   43.686,95.92 43.686,59.136 71.287,59.136 71.287,95.92 "></polygon><ellipse fill="#000000" cx="65.368" cy="80.247" rx="2.579" ry="2.389"></ellipse><rect x="11.346" y="97.486" fill="#000000" width="92.183" height="6.181"></rect></svg>