<svg xmlns="http://www.w3.org/2000/svg" xmlns:xlink="http://www.w3.org/1999/xlink" version="1.1" x="0px" y="0px" viewBox="0 0 100 100" enable-background="new 0 0 100 100" xml:space="preserve"><path fill="#000000" d="M52.312,35.347c-0.585-1.365-0.896-2.851-0.896-4.382c0-5.05,3.382-9.321,7.999-10.677  c0.004-0.117,0.01-0.234,0.01-0.352c0-5.521-4.491-10.012-10.012-10.012c-5.52,0-10.011,4.491-10.011,10.012  c0,0.077,0.005,0.153,0.007,0.23c4.842,1.205,8.44,5.589,8.44,10.798c0,1.383-0.255,2.729-0.734,3.983  c0.577-0.093,1.169-0.143,1.772-0.143C50.082,34.806,51.232,34.996,52.312,35.347z"></path><path fill="#000000" d="M45.771,35.253c0.627-1.322,0.962-2.781,0.962-4.288c0-5.52-4.491-10.011-10.012-10.011  c-5.52,0-10.012,4.491-10.012,10.011c0,2.215,0.726,4.322,2.034,6.044c0.812,0.606,1.538,1.322,2.158,2.124l0.107,0.088  l-0.025,0.018c1.41,1.863,2.247,4.184,2.247,6.695c0,0.486-0.035,0.969-0.097,1.445c1.249-0.486,2.605-0.758,4.024-0.758  c0.211,0,0.419,0.008,0.626,0.02c-0.015-0.234-0.024-0.471-0.024-0.707C37.76,40.878,41.147,36.604,45.771,35.253z"></path><path fill="#000000" d="M71.382,35.666c0.761-1.428,1.172-3.034,1.172-4.701c0-5.52-4.491-10.011-10.012-10.011  c-5.52,0-10.011,4.491-10.011,10.011c0,1.798,0.479,3.524,1.357,5.033c3.63,1.834,6.126,5.597,6.126,9.935  c0,0.465-0.032,0.926-0.089,1.381c0.972-0.277,1.995-0.43,3.055-0.43c0.549,0,1.089,0.041,1.617,0.119  c-0.034-0.354-0.054-0.711-0.054-1.07C64.544,41.316,67.37,37.349,71.382,35.666z"></path><path fill="#000000" d="M75.672,35.922c-5.521,0-10.012,4.492-10.012,10.011c0,0.438,0.031,0.871,0.087,1.299  c4.802,1.234,8.36,5.599,8.36,10.779c0,3.119-1.289,6.053-3.562,8.158c2.932,2.279,4.68,5.766,4.743,9.488h1.197v-0.041h0.076  c0.15-3.59,1.873-6.939,4.703-9.156c-2.291-2.107-3.592-5.051-3.592-8.186c0-5,3.315-9.24,7.864-10.638  c0.096-0.559,0.146-1.127,0.146-1.703C85.684,40.414,81.191,35.922,75.672,35.922z"></path><path fill="#000000" d="M48.887,35.922c-5.52,0-10.011,4.492-10.011,10.011c0,0.277,0.015,0.555,0.037,0.828  c5.306,0.844,9.373,5.449,9.373,10.988c0,3.117-1.289,6.053-3.562,8.158c2.986,2.322,4.749,5.896,4.749,9.697  c0,0.018-0.002,0.035-0.002,0.053h1.193v-0.303h0.076c0.15-3.592,1.873-6.939,4.703-9.156c-2.291-2.107-3.592-5.053-3.592-8.188  c0-4.633,2.847-8.611,6.883-10.283c0.105-0.588,0.163-1.188,0.163-1.795C58.898,40.414,54.407,35.922,48.887,35.922z"></path><path fill="#000000" d="M22.103,35.922c-5.52,0-10.011,4.492-10.011,10.011c0,0.24,0.011,0.48,0.028,0.719  c5.771,0.404,10.345,5.224,10.345,11.097c0,3.117-1.289,6.053-3.562,8.158c2.986,2.322,4.749,5.896,4.749,9.697  c0,0.018-0.002,0.035-0.002,0.053h1.193v-0.564h0.076c0.15-3.592,1.873-6.941,4.703-9.158c-2.292-2.107-3.592-5.051-3.592-8.186  c0-4.238,2.382-7.93,5.878-9.808c0.133-0.654,0.205-1.326,0.205-2.008C32.114,40.414,27.623,35.922,22.103,35.922z"></path><path fill="#000000" d="M22.535,75.604c0-3.674-1.81-7.113-4.842-9.201l-0.613-0.422l0.577-0.471  c2.346-1.912,3.691-4.74,3.691-7.762c0-5.52-4.491-10.011-10.012-10.011c-5.52,0-10.011,4.492-10.011,10.011  c0,3.035,1.355,5.873,3.721,7.785l0.578,0.469l-0.611,0.424c-3.012,2.09-4.81,5.521-4.81,9.178l0.002,0.604H0.139v11.266H22.47  l0.003-10.688C22.514,76.39,22.535,75.993,22.535,75.604z"></path><path fill="#000000" d="M48.357,75.604c0-3.674-1.811-7.113-4.843-9.201l-0.613-0.422l0.577-0.471  c2.346-1.912,3.691-4.74,3.691-7.762c0-5.52-4.491-10.011-10.012-10.011c-5.52,0-10.011,4.492-10.011,10.011  c0,3.035,1.356,5.873,3.721,7.785l0.579,0.469l-0.612,0.424c-3.012,2.09-4.81,5.521-4.81,9.178l0.002,0.604H25.96v11.266h22.331  l0.003-10.688C48.336,76.39,48.357,75.993,48.357,75.604z"></path><path fill="#000000" d="M74.179,75.868c0-3.674-1.811-7.113-4.843-9.201l-0.613-0.422l0.577-0.471  c2.347-1.912,3.691-4.742,3.691-7.764c0-5.52-4.491-10.009-10.011-10.009c-5.521,0-10.012,4.49-10.012,10.009  c0,3.035,1.356,5.873,3.721,7.787l0.579,0.467l-0.612,0.426c-3.012,2.09-4.81,5.52-4.81,9.178l0.002,0.604h-0.067v11.266h22.331  l0.003-10.689C74.157,76.653,74.179,76.255,74.179,75.868z"></path><path fill="#000000" d="M95.157,66.929l-0.612-0.422l0.576-0.471c2.347-1.912,3.691-4.742,3.691-7.762  c0-5.521-4.49-10.011-10.011-10.011S78.79,52.753,78.79,58.274c0,3.035,1.356,5.873,3.721,7.785l0.579,0.469l-0.612,0.424  c-3.011,2.09-4.809,5.521-4.809,9.178l0.001,0.604h-0.066v11.266h22.33l0.003-10.688C99.979,76.915,100,76.519,100,76.13  C100,72.456,98.189,69.017,95.157,66.929z"></path></svg>