<?xml version="1.0" encoding="utf-8"?>
<!-- Generator: Adobe Illustrator 19.1.0, SVG Export Plug-In . SVG Version: 6.00 Build 0)  -->
<svg version="1.1" id="Layer_1" xmlns="http://www.w3.org/2000/svg" xmlns:xlink="http://www.w3.org/1999/xlink" x="0px" y="0px"
	 viewBox="33.1 -23.1 99.9 78.1" style="enable-background:new 33.1 -23.1 99.9 78.1;" xml:space="preserve">
<path d="M85.3,2.3C84.7,1,84.4-0.5,84.4-2c0-5,3.4-9.3,8-10.7c0-0.1,0-0.2,0-0.4c0-5.5-4.5-10-10-10c-5.5,0-10,4.5-10,10
	c0,0.1,0,0.2,0,0.2c4.8,1.2,8.4,5.6,8.4,10.8c0,1.4-0.3,2.7-0.7,4c0.6-0.1,1.2-0.1,1.8-0.1C83.1,1.8,84.2,2,85.3,2.3z"/>
<path d="M78.8,2.3c0.6-1.3,1-2.8,1-4.3c0-5.5-4.5-10-10-10c-5.5,0-10,4.5-10,10c0,2.2,0.7,4.3,2,6c0.8,0.6,1.5,1.3,2.2,2.1L64,6.2
	l0,0c1.4,1.9,2.2,4.2,2.2,6.7c0,0.5,0,1-0.1,1.4c1.2-0.5,2.6-0.8,4-0.8c0.2,0,0.4,0,0.6,0c0-0.2,0-0.5,0-0.7
	C70.8,7.9,74.1,3.6,78.8,2.3z"/>
<path d="M104.4,2.7c0.8-1.4,1.2-3,1.2-4.7c0-5.5-4.5-10-10-10c-5.5,0-10,4.5-10,10c0,1.8,0.5,3.5,1.4,5c3.6,1.8,6.1,5.6,6.1,9.9
	c0,0.5,0,0.9-0.1,1.4c1-0.3,2-0.4,3.1-0.4c0.5,0,1.1,0,1.6,0.1c0-0.4-0.1-0.7-0.1-1.1C97.5,8.3,100.4,4.3,104.4,2.7z"/>
<path d="M108.7,2.9c-5.5,0-10,4.5-10,10c0,0.4,0,0.9,0.1,1.3c4.8,1.2,8.4,5.6,8.4,10.8c0,3.1-1.3,6.1-3.6,8.2
	c2.9,2.3,4.7,5.8,4.7,9.5h1.2v0h0.1c0.2-3.6,1.9-6.9,4.7-9.2c-2.3-2.1-3.6-5.1-3.6-8.2c0-5,3.3-9.2,7.9-10.6
	c0.1-0.6,0.1-1.1,0.1-1.7C118.7,7.4,114.2,2.9,108.7,2.9z"/>
<path d="M81.9,2.9c-5.5,0-10,4.5-10,10c0,0.3,0,0.6,0,0.8c5.3,0.8,9.4,5.4,9.4,11c0,3.1-1.3,6.1-3.6,8.2c3,2.3,4.7,5.9,4.7,9.7
	c0,0,0,0,0,0.1h1.2v-0.3h0.1c0.2-3.6,1.9-6.9,4.7-9.2c-2.3-2.1-3.6-5.1-3.6-8.2c0-4.6,2.8-8.6,6.9-10.3c0.1-0.6,0.2-1.2,0.2-1.8
	C91.9,7.4,87.4,2.9,81.9,2.9z"/>
<path d="M55.1,2.9c-5.5,0-10,4.5-10,10c0,0.2,0,0.5,0,0.7c5.8,0.4,10.3,5.2,10.3,11.1c0,3.1-1.3,6.1-3.6,8.2c3,2.3,4.7,5.9,4.7,9.7
	c0,0,0,0,0,0.1h1.2v-0.6h0.1c0.2-3.6,1.9-6.9,4.7-9.2c-2.3-2.1-3.6-5.1-3.6-8.2c0-4.2,2.4-7.9,5.9-9.8c0.1-0.7,0.2-1.3,0.2-2
	C65.1,7.4,60.6,2.9,55.1,2.9z"/>
<path d="M55.5,42.6c0-3.7-1.8-7.1-4.8-9.2L50.1,33l0.6-0.5c2.3-1.9,3.7-4.7,3.7-7.8c0-5.5-4.5-10-10-10c-5.5,0-10,4.5-10,10
	c0,3,1.4,5.9,3.7,7.8l0.6,0.5L38,33.4c-3,2.1-4.8,5.5-4.8,9.2l0,0.6h-0.1v11.3h22.3l0-10.7C55.5,43.4,55.5,43,55.5,42.6z"/>
<path d="M81.4,42.6c0-3.7-1.8-7.1-4.8-9.2L75.9,33l0.6-0.5c2.3-1.9,3.7-4.7,3.7-7.8c0-5.5-4.5-10-10-10c-5.5,0-10,4.5-10,10
	c0,3,1.4,5.9,3.7,7.8l0.6,0.5l-0.6,0.4c-3,2.1-4.8,5.5-4.8,9.2l0,0.6H59v11.3h22.3l0-10.7C81.3,43.4,81.4,43,81.4,42.6z"/>
<path d="M107.2,42.9c0-3.7-1.8-7.1-4.8-9.2l-0.6-0.4l0.6-0.5c2.3-1.9,3.7-4.7,3.7-7.8c0-5.5-4.5-10-10-10c-5.5,0-10,4.5-10,10
	c0,3,1.4,5.9,3.7,7.8l0.6,0.5l-0.6,0.4c-3,2.1-4.8,5.5-4.8,9.2l0,0.6h-0.1v11.3h22.3l0-10.7C107.2,43.7,107.2,43.3,107.2,42.9z"/>
<path d="M128.2,33.9l-0.6-0.4l0.6-0.5c2.3-1.9,3.7-4.7,3.7-7.8c0-5.5-4.5-10-10-10s-10,4.5-10,10c0,3,1.4,5.9,3.7,7.8l0.6,0.5
	l-0.6,0.4c-3,2.1-4.8,5.5-4.8,9.2l0,0.6h-0.1V55h22.3l0-10.7c0-0.4,0.1-0.8,0.1-1.2C133,39.5,131.2,36,128.2,33.9z"/>
</svg>
