<?xml version="1.0" encoding="utf-8"?>
<!-- Generator: Adobe Illustrator 19.1.0, SVG Export Plug-In . SVG Version: 6.00 Build 0)  -->
<svg version="1.1" id="Layer_1" xmlns="http://www.w3.org/2000/svg" xmlns:xlink="http://www.w3.org/1999/xlink" x="0px" y="0px"
	 viewBox="812.2 -94.5 790.9 412.5" style="enable-background:new 812.2 -94.5 790.9 412.5;" xml:space="preserve">
<path d="M1410.3-94.5c-43.7,0-79.3,35.6-79.3,79.3c0,3.5,0.2,6.9,0.7,10.3c38,9.8,66.2,44.3,66.2,85.4c0,24.7-10.2,47.9-28.2,64.6
	c23.2,18,37.1,45.7,37.6,75.1h9.5v-0.3h0.6c1.2-28.4,14.8-55,37.2-72.5c-18.1-16.7-28.4-40-28.4-64.8c0-39.6,26.3-73.2,62.3-84.3
	c0.8-4.4,1.2-8.9,1.2-13.5C1489.6-58.9,1454-94.5,1410.3-94.5z"/>
<path d="M1198.2-94.5c-43.7,0-79.3,35.6-79.3,79.3c0,2.2,0.1,4.4,0.3,6.6c42,6.7,74.2,43.2,74.2,87c0,24.7-10.2,47.9-28.2,64.6
	c23.6,18.4,37.6,46.7,37.6,76.8c0,0.1,0,0.3,0,0.4h9.4v-2.4h0.6c1.2-28.4,14.8-55,37.2-72.5c-18.1-16.7-28.4-40-28.4-64.8
	c0-36.7,22.5-68.2,54.5-81.4c0.8-4.7,1.3-9.4,1.3-14.2C1277.5-58.9,1241.9-94.5,1198.2-94.5z"/>
<path d="M986.1-94.5c-43.7,0-79.3,35.6-79.3,79.3c0,1.9,0.1,3.8,0.2,5.7c45.7,3.2,81.9,41.4,81.9,87.9c0,24.7-10.2,47.9-28.2,64.6
	c23.6,18.4,37.6,46.7,37.6,76.8c0,0.1,0,0.3,0,0.4h9.4v-4.5h0.6c1.2-28.4,14.8-55,37.2-72.5c-18.2-16.7-28.4-40-28.4-64.8
	c0-33.6,18.9-62.8,46.6-77.7c1.1-5.2,1.6-10.5,1.6-15.9C1065.3-58.9,1029.8-94.5,986.1-94.5z"/>
<path d="M989.5,219.8c0-29.1-14.3-56.3-38.3-72.9l-4.9-3.3l4.6-3.7c18.6-15.1,29.2-37.5,29.2-61.5c0-43.7-35.6-79.3-79.3-79.3
	c-43.7,0-79.3,35.6-79.3,79.3c0,24,10.7,46.5,29.5,61.7l4.6,3.7l-4.8,3.4c-23.9,16.6-38.1,43.7-38.1,72.7v4.8h-0.5v89.2H989v-84.6
	C989.3,226,989.5,222.9,989.5,219.8z"/>
<path d="M1194,219.8c0-29.1-14.3-56.3-38.4-72.9l-4.9-3.3l4.6-3.7c18.6-15.1,29.2-37.5,29.2-61.5c0-43.7-35.6-79.3-79.3-79.3
	s-79.3,35.6-79.3,79.3c0,24,10.7,46.5,29.5,61.7l4.6,3.7l-4.8,3.4c-23.9,16.6-38.1,43.7-38.1,72.7v4.8h-0.5v89.2h176.9v-84.6
	C1193.8,226,1194,222.9,1194,219.8z"/>
<path d="M1398.5,221.9c0-29.1-14.3-56.3-38.4-72.9l-4.9-3.3l4.6-3.7c18.6-15.1,29.2-37.6,29.2-61.5c0-43.7-35.6-79.3-79.3-79.3
	s-79.3,35.6-79.3,79.3c0,24,10.7,46.5,29.5,61.7l4.6,3.7l-4.8,3.4c-23.9,16.6-38.1,43.7-38.1,72.7v4.8h-0.5V316H1398v-84.7
	C1398.3,228.1,1398.5,224.9,1398.5,221.9z"/>
<path d="M1564.6,151.1l-4.8-3.3l4.6-3.7c18.6-15.1,29.2-37.6,29.2-61.5c0-43.7-35.6-79.3-79.3-79.3c-43.7,0-79.3,35.6-79.3,79.3
	c0,24,10.7,46.5,29.5,61.7l4.6,3.7l-4.8,3.4c-23.8,16.6-38.1,43.7-38.1,72.7v4.8h-0.5V318h176.9v-84.6c0.3-3.1,0.5-6.3,0.5-9.4
	C1603,194.9,1588.7,167.6,1564.6,151.1z"/>
</svg>
