<?xml version="1.0" encoding="utf-8"?>
<!-- Generator: Adobe Illustrator 19.1.0, SVG Export Plug-In . SVG Version: 6.00 Build 0)  -->
<svg version="1.1" id="Layer_1" xmlns="http://www.w3.org/2000/svg" xmlns:xlink="http://www.w3.org/1999/xlink" x="0px" y="0px"
	 viewBox="441.3 -136 305 306" style="enable-background:new 441.3 -136 305 306;" xml:space="preserve">
<style type="text/css">
	.st0{fill:#FFFFFF;}
</style>
<g>
	<g>
		<g>
			<polygon points="736,-19.7 448.3,-19.7 448.3,-44.2 592.2,-136 736,-44.2 			"/>
		</g>
	</g>
	<g>
		<g>
			<path d="M745.8,155.3l-15.9-61.8v-101H454.5v101l-12.9,61.8c-1.8,7.3,4.9,14.7,10.4,14.7h286.4
				C743.9,170,747.6,162.7,745.8,155.3z M521.8,121h-30.6V44.5c0-8.6,6.7-15.3,15.3-15.3c8.6,0,15.3,6.7,15.3,15.3V121z M576.9,121
				h-30.6V44.5c0-8.6,6.7-15.3,15.3-15.3c8.6,0,15.3,6.7,15.3,15.3L576.9,121L576.9,121z M631.9,121h-30.6V44.5
				c0-8.6,6.7-15.3,15.3-15.3c8.6,0,15.3,6.7,15.3,15.3L631.9,121L631.9,121z M687,121h-30.6V44.5c0-8.6,6.7-15.3,15.3-15.3
				S687,35.9,687,44.5V121L687,121z"/>
		</g>
	</g>
</g>
<g>
	<path class="st0" d="M599.7-47v12.5h-10.9v-12.8c-7.4-1.2-14.5-4.3-19.8-8.7l5.7-11.3c5.9,5.2,14.8,8.7,20.9,8.7
		c4.6,0,7.5-1.7,7.5-5c0-10.2-30.5-4.1-30.5-24.6c0-8.8,6.3-14.9,16.3-16.8v-12.2h10.9v11.8c6.9,0.7,13.7,3.1,18.6,6.3l-5.5,11.5
		c-6.1-3.5-13.8-6-18.5-6c-3.8,0-6.4,1.4-6.4,4.2c0,10,30.5,4.3,30.5,25.2C618.5-54.2,610.5-48.2,599.7-47z"/>
</g>
</svg>
