<?xml version="1.0" encoding="utf-8"?>
<!-- Generator: Adobe Illustrator 19.1.0, SVG Export Plug-In . SVG Version: 6.00 Build 0)  -->
<svg version="1.1" id="Layer_1" xmlns="http://www.w3.org/2000/svg" xmlns:xlink="http://www.w3.org/1999/xlink" x="0px" y="0px"
	 viewBox="38 -14.4 90 63" style="enable-background:new 38 -14.4 90 63;" xml:space="preserve">
<style type="text/css">
	.st0{display:none;}
	.st1{display:inline;}
</style>
<g class="st0">
	<g class="st1">
		<polygon points="132,45.7 132,45.7 132,45.7 132,45.7 132,45.7 131.3,45 131.3,45 131.3,45 131.3,45 131.3,45 131.3,45 131.3,45 
			131.3,45 131.3,45 130.5,45 130.5,45 130.5,45 130.5,45 129.8,44.2 128.3,44.2 128.3,43.5 128.3,43.5 127.5,43.5 127.5,43.5 
			127.5,43.5 127.5,43.5 127.5,43.5 127.5,43.5 126.8,43.5 126,43.5 126,43.5 126,43.5 126,43.5 126,42.8 126,42.8 125.3,42.8 
			125.3,42.8 125.3,42.8 125.3,42.8 125.3,42.8 125.3,42.8 125.3,42.8 123,42.8 123,42.8 123,42.8 123,42.8 123,42.8 123,42.8 
			123,42.8 123,42.8 123,42 123,42 123,42 123,42 123,42 123,42 123,42 123,42 123,42 120.8,42 120.8,42 120.8,42 120.8,42 
			120.8,42 120.8,42 120.8,42 120.8,42 120.8,42 120.8,42 120.8,42 120,41.3 120,41.3 120,41.3 120,41.3 120,41.3 120,41.3 
			120,41.3 120,41.3 120,41.3 120,41.3 117.8,41.3 117.8,41.3 117.8,41.3 117.8,41.3 117.8,41.3 117.8,41.3 117.8,41.3 117.8,41.3 
			118.5,41.3 117.8,41.3 117.8,41.3 117.8,41.3 117.8,41.3 117.8,41.3 118.5,41.3 118.5,41.3 118.5,40.5 118.5,40.5 118.5,40.5 
			117,40.5 117,40.5 117,40.5 117,40.5 117.8,40.5 117,40.5 117,40.5 117,40.5 116.3,40.5 117,36.8 117,36.8 117,36.8 117,36.8 
			117,36.8 117,36 117,35.3 117.8,34.5 117.8,33.8 117.8,33 117.8,32.3 117.8,31.6 117.8,31.6 117.8,30.8 117.8,30.1 117.8,29.3 
			117.8,28.6 117.8,28.6 117.8,27.8 118.5,27.1 118.5,26.3 118.5,26.3 118.5,26.3 118.5,26.3 118.5,26.3 119.3,25.6 119.3,25.6 
			119.3,25.6 119.3,25.6 119.3,25.6 119.3,25.6 119.3,25.6 119.3,25.6 119.3,25.6 120,26.3 120,25.6 120,25.6 120,25.6 120,25.6 
			120,25.6 120,24.8 120,24.8 120,24.8 120,24.1 120,24.1 120,23.3 120,23.3 119.3,22.6 119.3,21.8 119.3,21.1 119.3,21.1 
			119.3,20.4 119.3,20.4 119.3,19.6 119.3,19.6 119.3,19.6 119.3,18.9 119.3,18.9 119.3,18.1 118.5,18.1 118.5,17.4 118.5,16.6 
			118.5,15.9 118.5,15.9 118.5,15.1 118.5,14.4 117.8,14.4 117.8,13.6 117.8,13.6 117.8,12.9 117.8,12.1 117.8,12.1 117.8,12.1 
			117.8,12.1 117.8,12.1 117,6.9 117,6.9 117,6.9 117,6.9 117,6.9 117,6.2 117,6.2 117,6.2 117,6.2 115.5,4.7 113.3,1.7 113.3,1.7 
			112.5,0.9 112.5,0.2 111.8,0.2 111.8,-0.5 111,-0.5 111,-1.3 110.3,-1.3 110.3,-2 110.3,-2 109.5,-2.8 109.5,-2.8 108.8,-2.8 
			108.8,-2.8 108,-2.8 108,-2.8 107.3,-2.8 107.3,-2.8 107.3,-2.8 106.5,-2.8 106.5,-2.8 105.8,-2.8 105.8,-2.8 105,-2 105,-2 
			104.3,-2 104.3,-2 103.5,-2 102.8,-2 102.8,-2 102,-2 101.3,-2 101.3,-2 100.5,-1.3 99.8,-1.3 99.8,-1.3 99,-2 99,-2 99,-2 99,-2 
			99.8,-2 99.8,-2.8 99.8,-2.8 99.8,-2.8 99.8,-2.8 99.8,-2.8 99.8,-2.8 99.8,-2.8 99.8,-2.8 99.8,-2.8 99.8,-2.8 99.8,-3.5 
			99,-3.5 98.3,-3.5 98.3,-4.3 97.5,-3.5 97.5,-3.5 96.8,-3.5 96.8,-3.5 96,-3.5 96,-2.8 96,-2.8 95.3,-2.8 95.3,-2.8 95.3,-2.8 
			95.3,-2.8 95.3,-2 95.3,-2 95.3,-2 96,-2 96,-2 96,-2 96,-2 96,-2 96,-2 95.3,-0.5 95.3,-0.5 95.3,-0.5 95.3,-0.5 94.5,-0.5 
			94.5,-0.5 94.5,-0.5 94.5,-0.5 94.5,-0.5 94.5,-0.5 93.8,0.2 93,0.2 92.3,0.2 91.5,0.2 91.5,0.2 90.8,0.2 90,0.9 88.5,0.9 87,0.9 
			85.5,1.7 84,1.7 82.5,2.4 80.3,2.4 78.8,3.2 77.3,3.2 75.8,3.9 74.3,3.9 72.8,4.7 71.3,4.7 69,4.7 67.5,5.4 66,5.4 64.5,6.2 
			64.5,6.2 63.8,6.9 63,6.9 63,7.7 63,6.9 63,6.9 63,6.9 63,6.9 63,6.9 63,6.2 63,6.2 63,6.2 63,5.4 63,4.7 63,4.7 63,4.7 63,4.7 
			63,4.7 63,0.9 63,0.2 63.8,-2 63.8,-2.8 64.5,-3.5 64.5,-3.5 65.3,-3.5 65.3,-3.5 65.3,-4.3 66,-4.3 66,-4.3 66,-4.3 66,-4.3 
			66,-5 66,-5 66,-5 66,-5 66,-5 66.8,-5 66,-5.8 66,-5.8 66,-5.8 66,-5.8 66,-5.8 66,-6.5 65.3,-7.3 65.3,-7.3 64.5,-7.3 63.8,-8 
			63,-8 63,-8 62.3,-8.8 62.3,-8.8 61.5,-8.8 60.8,-8.8 60.8,-9.5 60,-9.5 60,-10.3 59.3,-10.3 59.3,-10.3 58.5,-10.3 58.5,-11 
			58.5,-11 58.5,-11 58.5,-11 57.8,-11 57.8,-11 57.8,-11 57,-11 57,-11 57,-11 56.3,-10.3 56.3,-10.3 55.5,-10.3 55.5,-10.3 
			55.5,-10.3 54.8,-10.3 54,-9.5 54,-9.5 53.3,-9.5 52.5,-8.8 51.8,-8.8 51.8,-8.8 51,-8.8 51,-8.8 50.3,-8.8 50.3,-8 49.5,-8 
			49.5,-8 49.5,-8 48.8,-8 48.8,-8 48.8,-8 48.8,-7.3 48.8,-7.3 48,-7.3 48.8,-7.3 48,-6.5 48.8,-6.5 48.8,-5.8 48.8,-5.8 48.8,-5 
			48.8,-5 48.8,-5 48.8,-5 48.8,-5 49.5,-5 50.3,-2 50.3,-1.3 50.3,-1.3 50.3,-1.3 49.5,-0.5 49.5,-0.5 49.5,0.2 49.5,0.2 49.5,0.9 
			49.5,0.9 49.5,1.7 49.5,1.7 49.5,1.7 49.5,2.4 49.5,2.4 49.5,2.4 49.5,3.2 49.5,3.2 49.5,3.2 49.5,3.9 49.5,3.9 49.5,4.7 
			49.5,4.7 49.5,4.7 49.5,4.7 48.8,6.9 48.8,6.9 48.8,6.9 48.8,6.9 48.8,6.9 48.8,7.7 48.8,7.7 48.8,7.7 48.8,7.7 48.8,7.7 
			48.8,7.7 48.8,8.4 48.8,8.4 48.8,9.2 48.8,9.2 48.8,9.9 48.8,9.9 48.8,10.6 48.8,10.6 48.8,11.4 48.8,11.4 48.8,12.1 48.8,12.1 
			48.8,12.1 48.8,12.1 48.8,12.1 48,14.4 48,18.1 47.3,18.9 47.3,18.9 48,18.9 48,18.9 48,18.9 48,19.6 47.3,21.1 47.3,21.1 
			47.3,21.1 48,21.1 48,21.1 48,21.8 47.3,21.8 47.3,21.8 47.3,21.8 47.3,23.3 46.5,23.3 46.5,23.3 46.5,23.3 46.5,23.3 46.5,23.3 
			47.3,23.3 47.3,23.3 47.3,24.1 47.3,24.1 47.3,24.1 47.3,24.8 47.3,24.8 47.3,24.8 47.3,25.6 47.3,25.6 47.3,26.3 47.3,26.3 
			47.3,26.3 47.3,26.3 47.3,26.3 47.3,27.1 46.5,27.1 46.5,27.1 46.5,27.8 46.5,27.8 46.5,27.8 46.5,28.6 46.5,28.6 46.5,28.6 
			46.5,29.3 46.5,29.3 46.5,29.3 46.5,29.3 46.5,29.3 46.5,29.3 46.5,29.3 46.5,30.1 46.5,30.1 46.5,30.8 46.5,30.8 46.5,31.6 
			46.5,31.6 46.5,31.6 46.5,32.3 46.5,32.3 45.8,32.3 45.8,33 45.8,33 45.8,33.8 46.5,33.8 46.5,33.8 46.5,33.8 46.5,33.8 
			46.5,33.8 46.5,33.8 46.5,33.8 46.5,33.8 45.8,33.8 45.8,35.3 45.8,35.3 45.8,35.3 45.8,35.3 45,35.3 45,35.3 45,35.3 45,36 
			45,36 45,36 45,36 45,35.3 45,35.3 45,35.3 45,35.3 45,35.3 45,35.3 45,35.3 45,35.3 44.3,35.3 44.3,35.3 45,36 45,36 45,36 
			45,36 45,36 45,36 45,36 45,36 44.3,36 44.3,36 44.3,35.3 43.5,35.3 43.5,35.3 43.5,35.3 43.5,35.3 43.5,36 43.5,36 43.5,36 
			44.3,36 44.3,36 44.3,36 44.3,36 44.3,36 44.3,36 43.5,36 42.8,36 42.8,36 42.8,36 42.8,36 42.8,36 42.8,36 42.8,36 42.8,36 
			42.8,36 42.8,36 42.8,36 42.8,36 42.8,36 42.8,36.8 42.8,36 42.8,36 42,36 42,36 42,36.8 42,36.8 42,36.8 42,36.8 42,36.8 
			42,36.8 42,36.8 42,36.8 42,36.8 42,36.8 42,36.8 42,36.8 42,36.8 42,36.8 42,36.8 40.5,36.8 39.8,36.8 39.8,36.8 39.8,36.8 
			39.8,36.8 39.8,36.8 39.8,37.5 39.8,37.5 39.8,37.5 39.8,37.5 39.8,36.8 39.8,36.8 39,36.8 39,36.8 39,36.8 39,36.8 39,36.8 
			39,36.8 39,36.8 38.3,36.8 38.3,36.8 38.3,36.8 38.3,36.8 38.3,36.8 38.3,36.8 38.3,36.8 38.3,37.5 38.3,37.5 39,37.5 39,37.5 
			39,37.5 39,37.5 39,37.5 39,37.5 39.8,37.5 39.8,37.5 39.8,37.5 39.8,38.3 39.8,38.3 39.8,38.3 39.8,37.5 39.8,37.5 40.5,37.5 
			40.5,37.5 40.5,37.5 40.5,37.5 40.5,37.5 40.5,37.5 40.5,37.5 40.5,38.3 40.5,38.3 40.5,38.3 40.5,38.3 40.5,38.3 40.5,38.3 
			41.3,38.3 41.3,37.5 41.3,37.5 40.5,36.8 40.5,36.8 40.5,36.8 40.5,36.8 41.3,36.8 41.3,36.8 41.3,37.5 41.3,37.5 41.3,37.5 
			42,37.5 42,37.5 42,37.5 42,37.5 42,37.5 42,37.5 42,37.5 42,37.5 42,37.5 43.5,37.5 43.5,37.5 43.5,37.5 44.3,37.5 44.3,37.5 
			44.3,37.5 44.3,37.5 44.3,37.5 44.3,37.5 44.3,37.5 44.3,37.5 43.5,37.5 44.3,36.8 44.3,37.5 44.3,37.5 44.3,37.5 44.3,37.5 
			44.3,36.8 44.3,36.8 44.3,36.8 45.8,36.8 45.8,36.8 45.8,36.8 45.8,36.8 45.8,36.8 45.8,36.8 45.8,36.8 45.8,36.8 45.8,36.8 
			45.8,36.8 45.8,36.8 45.8,36.8 45.8,36.8 45.8,36.8 45.8,36.8 45.8,36.8 46.5,36.8 46.5,36.8 47.3,36.8 47.3,36.8 48,36.8 
			48,36.8 48,36.8 48,36.8 48,36.8 48,36.8 48,36.8 48.8,37.5 48.8,37.5 48.8,37.5 48.8,36.8 48.8,36.8 48.8,36.8 48.8,36.8 
			49.5,36.8 49.5,36.8 49.5,36.8 49.5,37.5 50.3,36.8 50.3,36.8 50.3,36.8 50.3,36.8 50.3,36.8 50.3,36.8 50.3,36.8 50.3,36.8 
			50.3,36.8 50.3,36.8 51,36.8 51,36.8 51,36.8 51,36.8 51.8,36.8 51.8,36.8 51.8,36.8 51.8,36.8 51.8,36.8 51.8,36.8 51.8,36.8 
			51.8,36.8 51.8,36.8 51.8,36.8 51.8,36.8 51.8,36.8 52.5,36.8 52.5,36.8 52.5,36.8 52.5,36.8 52.5,36.8 52.5,36.8 52.5,36.8 
			52.5,36.8 52.5,36.8 52.5,36 52.5,36 52.5,36 52.5,36 52.5,36 53.3,36 53.3,36 53.3,36.8 53.3,36.8 53.3,36.8 53.3,36.8 
			53.3,36.8 53.3,36 53.3,36 53.3,36 53.3,36.8 54,36.8 54,36.8 54,36.8 54,36.8 54,36 54,36 54,36 54,36 54,36 54,36 54,36 54,36 
			54,36 54,36 54.8,36 54.8,36 54.8,36 54.8,36 54.8,36 55.5,36.8 55.5,36.8 55.5,36.8 55.5,36.8 55.5,36.8 55.5,36.8 55.5,36.8 
			56.3,36.8 56.3,36.8 57,36.8 57,36.8 57,36.8 57,36.8 57,36.8 57.8,36.8 57.8,36.8 57.8,36.8 57.8,36.8 57.8,36.8 57.8,36.8 
			57.8,36.8 57.8,36.8 57.8,36.8 57.8,36.8 57.8,36.8 57.8,36.8 57.8,36.8 57.8,36.8 57.8,36.8 57.8,36.8 57.8,36.8 57.8,36.8 
			57.8,36.8 57.8,36.8 57.8,36.8 59.3,36.8 59.3,37.5 59.3,37.5 59.3,36.8 59.3,36.8 59.3,36.8 60,37.5 60,36.8 61.5,37.5 
			61.5,37.5 61.5,37.5 61.5,37.5 61.5,37.5 62.3,37.5 62.3,37.5 62.3,37.5 62.3,37.5 63,37.5 63,37.5 63,37.5 63,36.8 63.8,36.8 
			63.8,36.8 63.8,37.5 63.8,37.5 63.8,37.5 63.8,37.5 63.8,37.5 63.8,37.5 63.8,37.5 63.8,37.5 63.8,37.5 64.5,37.5 64.5,37.5 
			65.3,37.5 65.3,37.5 66,37.5 66,37.5 66,37.5 66.8,37.5 66.8,37.5 66.8,37.5 67.5,37.5 67.5,37.5 68.3,37.5 68.3,37.5 69,37.5 
			69,37.5 69.8,37.5 69.8,37.5 69.8,37.5 69.8,37.5 69.8,37.5 69.8,37.5 73.5,37.5 73.5,37.5 73.5,37.5 73.5,37.5 73.5,37.5 
			74.3,37.5 75,37.5 76.5,36.8 76.5,37.5 76.5,37.5 76.5,37.5 76.5,37.5 75.8,37.5 75.8,37.5 75.8,37.5 75.8,37.5 75.8,37.5 
			75.8,37.5 76.5,37.5 76.5,37.5 77.3,37.5 77.3,37.5 77.3,37.5 77.3,37.5 76.5,37.5 76.5,37.5 77.3,37.5 77.3,38.3 77.3,38.3 
			77.3,37.5 78,37.5 78,37.5 78.8,38.3 78.8,38.3 78.8,38.3 78.8,38.3 78.8,38.3 78.8,38.3 78.8,38.3 78.8,38.3 79.5,38.3 
			79.5,38.3 81,38.3 81,39 81,39 81,39 81,39 81.8,39 81.8,39 81.8,39 81.8,39 81.8,39 81.8,39 81.8,39 81.8,39 81.8,38.3 
			83.3,38.3 83.3,38.3 83.3,38.3 83.3,38.3 84,38.3 84,38.3 84,38.3 84,38.3 84,38.3 84,38.3 84,38.3 84,38.3 84,38.3 84,38.3 
			84,38.3 84.8,38.3 84.8,38.3 85.5,38.3 85.5,38.3 85.5,39.8 86.3,38.3 86.3,38.3 86.3,38.3 86.3,38.3 86.3,38.3 86.3,38.3 
			86.3,38.3 86.3,38.3 86.3,38.3 86.3,38.3 86.3,38.3 86.3,38.3 87,38.3 87,38.3 87,38.3 87,38.3 87,39 87.8,39 87.8,39 87.8,38.3 
			87.8,39 88.5,38.3 89.3,39 90,39 90,39 90.8,39 90.8,38.3 90.8,38.3 90.8,38.3 90.8,38.3 90.8,38.3 90.8,39 90.8,39 90.8,39 
			90.8,39 90.8,39 91.5,39 92.3,39 92.3,39 92.3,39 93,39 93,39 93,39 93,39 93,39 93.8,39 93.8,39 95.3,39 95.3,39 95.3,39 
			95.3,39.8 95.3,39.8 96,39.8 96.8,39.8 96.8,39.8 97.5,39.8 99,39.8 99,39.8 99,39.8 99,39.8 99,39.8 99,39.8 99,39.8 99,40.5 
			99,40.5 99,40.5 99.8,40.5 99.8,40.5 99.8,40.5 99.8,40.5 100.5,40.5 100.5,40.5 101.3,40.5 101.3,40.5 101.3,40.5 101.3,40.5 
			101.3,41.3 101.3,41.3 102.8,41.3 102,42 102.8,42 102.8,42 102.8,42 102.8,42.8 103.5,42.8 103.5,42.8 104.3,42.8 105,42.8 
			102.8,42 104.3,42 104.3,42 104.3,42 104.3,42 103.5,41.3 102.8,41.3 102.8,41.3 102,40.5 102,40.5 102,40.5 102,40.5 102,39.8 
			102,39.8 102,39.8 102,39.8 102,39.8 102,39.8 102,39.8 102,39.8 102.8,39.8 102.8,39.8 103.5,39.8 103.5,39.8 104.3,39.8 
			104.3,39.8 105,39.8 105,39.8 105,39.8 105,39.8 105,39.8 105.8,39.8 105.8,39.8 105.8,39.8 106.5,39.8 106.5,39.8 107.3,39.8 
			107.3,39.8 108,39.8 108,40.5 111,40.5 111,40.5 111,40.5 111,40.5 111,40.5 111.8,40.5 111.8,40.5 111.8,40.5 111.8,40.5 
			111.8,40.5 111.8,40.5 111.8,40.5 111.8,40.5 111.8,40.5 111.8,40.5 111.8,40.5 111.8,40.5 111.8,40.5 112.5,40.5 112.5,40.5 
			112.5,40.5 112.5,40.5 112.5,40.5 112.5,40.5 112.5,40.5 112.5,40.5 113.3,40.5 113.3,40.5 113.3,40.5 113.3,40.5 113.3,40.5 
			113.3,40.5 113.3,40.5 113.3,40.5 114,40.5 114,40.5 114,40.5 114,40.5 114,40.5 114,40.5 114,40.5 114,40.5 114,40.5 114,40.5 
			114,40.5 114,40.5 114,40.5 114,41.3 114.8,41.3 114.8,41.3 114.8,41.3 114.8,41.3 114.8,41.3 114.8,41.3 114.8,41.3 114.8,41.3 
			114.8,41.3 115.5,41.3 115.5,41.3 115.5,41.3 115.5,41.3 115.5,41.3 115.5,41.3 115.5,41.3 115.5,41.3 115.5,41.3 115.5,41.3 
			115.5,42 115.5,42 116.3,42 116.3,42 117,42 117,42 117,42 117.8,42 117.8,42 117.8,42 117.8,42 117.8,42 117.8,42.8 118.5,42.8 
			118.5,42.8 119.3,42.8 119.3,42.8 120,42.8 120.8,42.8 120.8,42.8 121.5,42.8 121.5,42.8 122.3,42.8 122.3,42.8 122.3,43.5 
			123,43.5 123,43.5 123,43.5 123.8,43.5 123.8,43.5 123.8,43.5 123.8,43.5 123.8,43.5 124.5,43.5 125.3,43.5 125.3,44.2 126,44.2 
			126.8,44.2 127.5,44.2 128.3,45 129,45 129.8,45 129.8,45 129.8,45 129.8,45 129.8,45 129.8,45 130.5,45 130.5,45 130.5,45 
			132,45.7 132,45.7 132,45.7 132,45.7 132,45.7 132,45.7 132,45.7 132,45.7 		"/>
		<polygon points="123.8,42.8 123.8,42.8 123.8,42.8 123.8,42.8 123.8,42.8 123.8,42.8 123.8,42.8 123.8,42.8 		"/>
		<polygon points="119.3,41.3 119.3,41.3 119.3,41.3 119.3,41.3 119.3,41.3 119.3,41.3 119.3,41.3 119.3,41.3 		"/>
		<path d="M119.3,41.3h-0.8H119.3z"/>
		<polygon points="119.3,24.8 117.8,15.1 117,10.6 117,8.4 117,8.4 117,8.4 117,8.4 117,8.4 117,7.7 116.3,7.7 116.3,6.9 116.3,6.9 
			116.3,6.9 116.3,6.2 116.3,6.2 116.3,5.4 114.8,4.7 114,3.9 113.3,3.2 113.3,2.4 112.5,1.7 111.8,0.9 111,0.2 110.3,-0.5 
			110.3,-1.3 109.5,-1.3 109.5,-2 109.5,-2 108.8,-2.8 108,-2 103.5,0.2 103.5,0.2 103.5,0.2 103.5,0.2 103.5,0.9 102.8,0.9 
			102.8,0.9 102.8,0.9 102.8,0.9 102.8,0.9 97.5,3.9 96.8,5.4 93,12.1 93,12.9 93,12.9 92.3,13.6 91.5,15.9 91.5,15.9 91.5,15.9 
			91.5,15.9 91.5,15.9 90.8,15.9 87,23.3 87.8,23.3 87.8,23.3 88.5,22.6 88.5,22.6 88.5,21.8 88.5,21.8 89.3,21.1 89.3,21.1 
			89.3,20.4 90,19.6 90.8,18.1 90.8,16.6 91.5,15.9 92.3,14.4 93,13.6 93.8,12.1 94.5,11.4 94.5,10.6 94.5,10.6 94.5,9.9 95.3,9.9 
			95.3,9.2 95.3,9.2 95.3,9.2 96,8.4 97.5,4.7 97.5,4.7 97.5,4.7 97.5,4.7 97.5,4.7 99,3.9 100.5,3.2 102,1.7 102.8,0.9 104.3,0.2 
			105.8,-0.5 107.3,-1.3 108.8,-2 108.8,-1.3 109.5,-1.3 110.3,-0.5 110.3,0.2 111,0.9 111,0.9 111.8,1.7 112.5,2.4 112.5,2.4 
			112.5,2.4 113.3,3.2 113.3,3.2 113.3,3.9 114,3.9 114,4.7 114.8,4.7 114.8,5.4 115.5,5.4 115.5,5.4 115.5,6.2 116.3,6.2 
			116.3,6.9 116.3,6.9 116.3,6.9 116.3,7.7 116.3,8.4 116.3,8.4 116.3,9.2 116.3,9.2 116.3,9.9 117,10.6 117,10.6 117,11.4 
			117,12.1 117,12.9 117,13.6 117,14.4 117.8,15.1 117.8,16.6 117.8,17.4 117.8,18.1 117.8,18.9 117.8,19.6 117.8,20.4 118.5,21.1 
			118.5,22.6 118.5,23.3 118.5,24.1 118.5,24.8 118.5,24.8 119.3,24.8 119.3,24.8 119.3,24.8 119.3,24.8 119.3,24.8 119.3,24.8 
			119.3,24.8 119.3,24.8 119.3,24.8 119.3,24.8 		"/>
		<polygon points="117.8,24.8 117,20.4 117,21.1 116.3,21.1 116.3,21.1 116.3,21.1 116.3,21.1 117,20.4 117,19.6 117,19.6 117,18.9 
			117,18.1 117,18.1 117,17.4 116.3,16.6 116.3,18.9 116.3,21.1 115.5,21.8 115.5,21.1 115.5,20.4 115.5,19.6 115.5,18.9 
			116.3,17.4 116.3,16.6 116.3,15.9 116.3,15.1 116.3,15.1 116.3,14.4 116.3,14.4 116.3,13.6 116.3,13.6 116.3,13.6 115.5,12.9 
			115.5,12.9 115.5,12.1 115.5,12.1 115.5,12.1 115.5,12.1 115.5,12.1 114.8,6.9 114,6.2 113.3,4.7 112.5,3.9 111,3.2 110.3,1.7 
			109.5,0.9 108.8,0.2 108,-0.5 108,-0.5 108,-0.5 108,-0.5 108,-0.5 107.3,-0.5 106.5,-0.5 105,0.2 104.3,0.9 102.8,1.7 102,2.4 
			100.5,3.2 99.8,3.9 98.3,4.7 98.3,4.7 98.3,5.4 98.3,5.4 98.3,5.4 97.5,5.4 97.5,6.2 97.5,6.9 96.8,6.9 96.8,7.7 96,8.4 95.3,9.9 
			95.3,10.6 94.5,11.4 94.5,12.1 93.8,12.9 93,13.6 93,13.6 93,13.6 93,13.6 93,14.4 93,14.4 93,14.4 93,14.4 93,14.4 92.3,15.1 
			91.5,16.6 91.5,16.6 91.5,16.6 91.5,16.6 91.5,16.6 91.5,17.4 91.5,17.4 91.5,18.1 90.8,18.1 90.8,18.9 90.8,18.9 90.8,19.6 
			90.8,19.6 90,20.4 90,20.4 90,21.1 90,21.8 89.3,21.8 89.3,21.8 89.3,21.8 89.3,22.6 89.3,27.1 89.3,27.1 89.3,27.1 89.3,27.1 
			89.3,27.1 89.3,27.1 89.3,27.1 89.3,27.1 89.3,27.1 89.3,27.8 89.3,28.6 89.3,29.3 89.3,30.8 89.3,31.6 89.3,32.3 89.3,33 
			89.3,33.8 89.3,33.8 89.3,33.8 89.3,34.5 89.3,34.5 89.3,36.8 89.3,36.8 89.3,36 89.3,36 89.3,36 89.3,36 89.3,36 89.3,36 
			89.3,36 89.3,36 89.3,36.8 90,35.3 90,35.3 90,35.3 90,35.3 90,35.3 90,35.3 90,35.3 90,35.3 90,36 90.8,33.8 90.8,33.8 
			90.8,33.8 90.8,33.8 90.8,33.8 90.8,33.8 90.8,36.8 90.8,37.5 90.8,36 91.5,35.3 91.5,34.5 91.5,33 91.5,32.3 91.5,30.8 
			91.5,30.1 92.3,28.6 92.3,28.6 92.3,28.6 92.3,27.8 92.3,27.8 92.3,27.8 92.3,27.8 92.3,27.8 92.3,27.8 92.3,29.3 92.3,29.3 
			93,29.3 93,29.3 93,29.3 93,27.8 93,27.8 93,27.8 93,27.8 93,27.8 93,27.8 93,28.6 93,28.6 93,29.3 93,29.3 93,29.3 93,29.3 
			93.8,29.3 93.8,29.3 93.8,29.3 93.8,28.6 93.8,28.6 93.8,28.6 93.8,27.8 93.8,27.8 93.8,27.8 93.8,27.8 93.8,27.8 93.8,27.8 
			93.8,27.8 93.8,27.8 93.8,27.8 93.8,27.8 93.8,27.8 93.8,27.8 93.8,27.8 93.8,29.3 93.8,29.3 94.5,29.3 94.5,29.3 94.5,29.3 
			94.5,28.6 94.5,27.8 94.5,26.3 95.3,25.6 95.3,24.8 95.3,24.1 95.3,23.3 95.3,22.6 95.3,21.1 95.3,20.4 95.3,19.6 95.3,18.9 
			95.3,18.1 96,17.4 96,15.9 96,15.1 96,15.1 96,14.4 96,13.6 96,13.6 96,13.6 96,13.6 96,13.6 96,13.6 96,13.6 96,13.6 96,13.6 
			96.8,13.6 96.8,13.6 96.8,14.4 96.8,14.4 96.8,15.1 96.8,15.1 96,15.9 96,15.9 96,16.6 96,17.4 96,17.4 96,18.1 96,18.9 96,19.6 
			96,20.4 96,20.4 96,21.1 95.3,21.8 95.3,23.3 95.3,24.1 95.3,24.8 95.3,25.6 95.3,26.3 95.3,27.1 95.3,27.8 95.3,28.6 95.3,28.6 
			95.3,29.3 95.3,29.3 95.3,29.3 95.3,29.3 95.3,29.3 95.3,29.3 95.3,29.3 95.3,28.6 95.3,28.6 96,27.8 96,27.8 96,28.6 96,28.6 
			96,28.6 96,28.6 96,29.3 96,29.3 96,29.3 96,29.3 96.8,27.8 96.8,27.8 96.8,27.8 96.8,27.8 96.8,27.8 96.8,29.3 96.8,29.3 
			96.8,29.3 96.8,29.3 96.8,29.3 96.8,29.3 96.8,29.3 96.8,29.3 97.5,29.3 97.5,29.3 97.5,29.3 97.5,29.3 97.5,30.1 97.5,30.1 
			97.5,30.1 97.5,30.8 97.5,30.8 97.5,31.6 97.5,32.3 97.5,33 97.5,33.8 96.8,34.5 96.8,34.5 96.8,35.3 96.8,36 96,36 96,36 
			95.3,36 95.3,36 94.5,36 94.5,37.5 94.5,37.5 95.3,37.5 95.3,37.5 95.3,37.5 95.3,37.5 95.3,37.5 95.3,37.5 95.3,37.5 95.3,37.5 
			95.3,37.5 95.3,37.5 95.3,37.5 95.3,36.8 95.3,36.8 95.3,36.8 95.3,36.8 95.3,36.8 95.3,36.8 95.3,38.3 96,36.8 96,36.8 96,36.8 
			96,36.8 96,37.5 96,37.5 96,37.5 96,38.3 96,38.3 96.8,38.3 96.8,39 97.5,39 97.5,39 97.5,38.3 97.5,38.3 99,26.3 99,26.3 
			99,26.3 99,26.3 99,26.3 99.8,26.3 99.8,25.6 100.5,25.6 100.5,24.8 100.5,24.8 100.5,24.1 100.5,24.1 100.5,24.1 100.5,23.3 
			100.5,23.3 100.5,22.6 100.5,21.8 100.5,21.8 100.5,21.1 101.3,20.4 101.3,20.4 101.3,19.6 101.3,19.6 101.3,19.6 101.3,19.6 
			101.3,19.6 101.3,19.6 101.3,19.6 101.3,19.6 101.3,19.6 101.3,19.6 101.3,20.4 101.3,20.4 101.3,20.4 101.3,21.1 100.5,26.3 
			102,25.6 102,25.6 102.8,25.6 103.5,20.4 103.5,20.4 103.5,20.4 103.5,20.4 103.5,20.4 103.5,20.4 103.5,20.4 103.5,20.4 
			103.5,20.4 103.5,21.1 103.5,21.8 103.5,22.6 103.5,23.3 103.5,24.1 103.5,24.8 102.8,24.8 102.8,25.6 102.8,25.6 103.5,26.3 
			103.5,26.3 103.5,26.3 105,21.1 105,21.1 105,21.1 105,21.1 105,21.1 105,21.8 105,22.6 105,23.3 104.3,24.1 104.3,24.1 
			104.3,24.8 104.3,25.6 104.3,26.3 105.8,26.3 110.3,27.1 111,23.3 111,23.3 111,23.3 111,23.3 111,23.3 111,24.1 111,24.1 
			111,24.8 111,24.8 111,25.6 111,25.6 111,26.3 111,26.3 111,27.1 111,27.1 111,27.1 111,27.1 111,27.1 111,27.1 111.8,27.1 
			111.8,27.1 112.5,27.1 112.5,27.1 112.5,27.1 113.3,27.1 113.3,25.6 113.3,24.8 113.3,24.8 113.3,24.8 113.3,24.8 113.3,25.6 
			114,25.6 113.3,25.6 113.3,26.3 113.3,26.3 113.3,27.1 113.3,27.1 113.3,27.1 113.3,27.1 113.3,27.1 113.3,27.1 113.3,27.8 
			113.3,27.8 113.3,29.3 113.3,30.1 112.5,31.6 112.5,32.3 112.5,33 112.5,33.8 112.5,34.5 112.5,35.3 112.5,36 112.5,36.8 
			112.5,36.8 112.5,36.8 111.8,37.5 111.8,37.5 111.8,37.5 111.8,38.3 111.8,38.3 111.8,38.3 111.8,38.3 111.8,38.3 111.8,38.3 
			111.8,39 111.8,39 111.8,39 111.8,39 111.8,39.8 111.8,39.8 111.8,39.8 111.8,39.8 111.8,39.8 112.5,39.8 112.5,39.8 112.5,39.8 
			112.5,39.8 112.5,39.8 113.3,39.8 113.3,39 114,39 114,39 114,38.3 114,38.3 114,37.5 114,37.5 114,36.8 114,36.8 114,36 114,36 
			114,36 114,36 113.3,39.8 113.3,36 113.3,35.3 113.3,35.3 113.3,35.3 113.3,35.3 113.3,35.3 113.3,35.3 113.3,35.3 113.3,35.3 
			112.5,39 112.5,39 112.5,39 111.8,39 111.8,39 112.5,36.8 112.5,36 112.5,32.3 112.5,32.3 113.3,32.3 113.3,32.3 113.3,32.3 
			113.3,30.8 113.3,30.8 113.3,30.8 113.3,30.8 113.3,30.8 114.8,30.1 114.8,30.1 114.8,30.1 114.8,30.1 114.8,30.1 114.8,30.1 
			114.8,29.3 114.8,28.6 114.8,28.6 114.8,27.8 114.8,27.1 115.5,27.1 115.5,26.3 115.5,26.3 115.5,26.3 115.5,26.3 115.5,26.3 
			115.5,26.3 115.5,26.3 115.5,26.3 115.5,26.3 114.8,30.1 116.3,30.1 116.3,30.8 116.3,30.8 116.3,30.8 116.3,30.8 116.3,30.8 
			117,25.6 117,25.6 117,25.6 117,25.6 117,25.6 117,25.6 117.8,25.6 117.8,25.6 117.8,26.3 117,27.1 117,27.1 117,27.8 117,28.6 
			117,29.3 117,30.1 117,30.1 117,30.8 117,30.8 117,31.6 117,31.6 117,31.6 116.3,33 116.3,33 116.3,33 116.3,33 116.3,33 
			116.3,33 116.3,33 116.3,33 116.3,32.3 116.3,32.3 115.5,36 115.5,38.3 115.5,39 115.5,39 114.8,39 114.8,39 114.8,39.8 
			115.5,39.8 116.3,39.8 116.3,39 116.3,39 116.3,38.3 116.3,38.3 116.3,37.5 116.3,37.5 116.3,37.5 116.3,36.8 116.3,36.8 
			116.3,36 116.3,36 117,30.8 117,30.8 117,30.1 117,29.3 117,28.6 117,27.8 117,27.8 117.8,27.1 117.8,26.3 117.8,26.3 117.8,25.6 
			117.8,25.6 		"/>
		<polygon points="117,41.3 117,41.3 117,41.3 117,41.3 117,41.3 116.3,41.3 116.3,41.3 116.3,41.3 116.3,41.3 117,41.3 117,41.3 
			117,41.3 117,41.3 117,41.3 		"/>
		<polygon points="116.3,39.8 116.3,39.8 116.3,39.8 116.3,39.8 116.3,39.8 115.5,39.8 115.5,39.8 115.5,39.8 115.5,39.8 
			115.5,39.8 115.5,39.8 115.5,39.8 115.5,39.8 115.5,40.5 115.5,40.5 115.5,40.5 115.5,40.5 115.5,40.5 116.3,40.5 116.3,39.8 
			116.3,39.8 116.3,39.8 116.3,39.8 116.3,39.8 116.3,39.8 		"/>
		<polygon points="116.3,32.3 116.3,32.3 116.3,32.3 116.3,32.3 116.3,31.6 116.3,31.6 116.3,32.3 116.3,32.3 		"/>
		<polygon points="114.8,36 114.8,35.3 114.8,35.3 114.8,35.3 114.8,35.3 114.8,35.3 114.8,36 114.8,36 114.8,36 114.8,36 
			114.8,36.8 114.8,36.8 114,37.5 114,37.5 114,37.5 114,38.3 114,38.3 114,39 114,39 114,39 114,39.8 114,39.8 114.8,39.8 
			114.8,36.8 		"/>
		<polygon points="115.5,14.4 115.5,13.6 115.5,12.9 114.8,13.6 114.8,15.1 114.8,15.9 114.8,16.6 114.8,18.1 114.8,18.9 
			114.8,19.6 114.8,21.1 114.8,21.1 114.8,21.1 114.8,21.1 114.8,21.1 114.8,20.4 114.8,19.6 114.8,19.6 114.8,18.9 114.8,18.1 
			114.8,17.4 114.8,16.6 115.5,16.6 115.5,15.9 115.5,15.9 115.5,15.1 115.5,15.1 115.5,15.1 115.5,14.4 115.5,14.4 		"/>
		<polygon points="114.8,27.8 114.8,26.3 114,26.3 114,27.1 114,27.8 114,27.8 114,28.6 114,29.3 114,29.3 114,30.1 114,30.1 
			114,30.1 114,30.1 114,30.1 		"/>
		<polygon points="115.5,10.6 115.5,10.6 115.5,10.6 115.5,10.6 114.8,10.6 114,9.9 114,9.9 114,9.2 113.3,9.2 113.3,9.2 112.5,8.4 
			111,8.4 110.3,8.4 110.3,8.4 111,7.7 111,7.7 111,6.9 111,6.9 111,6.2 111,6.2 111,5.4 111,5.4 111,4.7 111,4.7 111,4.7 111,4.7 
			111,4.7 111,4.7 111,4.7 111,4.7 110.3,4.7 110.3,4.7 110.3,8.4 109.5,8.4 108.8,8.4 108.8,8.4 108,8.4 107.3,8.4 107.3,8.4 
			106.5,8.4 105.8,7.7 107.3,0.9 107.3,0.9 107.3,0.9 107.3,0.9 107.3,0.9 105.8,7.7 105,7.7 105,6.9 105,6.9 105,6.2 105,5.4 
			105,5.4 105,4.7 105,3.9 105,3.2 105,3.2 105.8,2.4 105.8,2.4 105.8,1.7 105.8,1.7 105.8,0.9 105.8,0.9 105.8,0.2 105.8,0.2 
			105.8,0.2 105.8,0.9 105.8,0.9 105,1.7 105,2.4 105,3.2 105,3.9 105,5.4 105,6.2 105,6.9 104.3,7.7 104.3,7.7 104.3,7.7 
			104.3,7.7 104.3,7.7 104.3,8.4 104.3,9.2 103.5,9.9 103.5,10.6 103.5,10.6 103.5,11.4 103.5,12.1 103.5,12.9 103.5,13.6 
			103.5,14.4 103.5,15.1 103.5,15.9 103.5,16.6 103.5,17.4 102.8,18.1 102.8,18.9 102.8,18.9 102.8,18.9 102.8,18.9 103.5,18.9 
			103.5,18.9 103.5,18.9 103.5,18.9 103.5,18.1 103.5,18.9 103.5,18.9 103.5,18.9 103.5,18.9 104.3,18.9 104.3,18.9 104.3,18.1 
			104.3,18.1 104.3,18.1 104.3,18.1 104.3,18.1 104.3,18.1 104.3,18.1 104.3,18.1 104.3,18.1 104.3,18.1 105,18.1 105,18.9 
			105,18.9 105,18.9 105,18.9 105,18.9 105,18.9 105,18.9 105,18.9 105,18.9 105.8,19.6 106.5,19.6 106.5,19.6 106.5,19.6 
			106.5,19.6 106.5,18.9 106.5,18.9 106.5,18.9 106.5,18.9 106.5,18.9 108,18.9 107.3,18.9 107.3,18.9 107.3,18.1 107.3,18.1 
			107.3,18.1 107.3,18.1 107.3,18.1 107.3,18.1 108.8,18.9 108.8,19.6 108.8,19.6 108.8,19.6 108.8,19.6 108.8,19.6 108.8,19.6 
			108.8,19.6 108.8,19.6 108.8,19.6 108.8,19.6 108.8,19.6 108.8,19.6 108.8,19.6 108.8,19.6 108.8,19.6 108.8,19.6 108.8,19.6 
			109.5,19.6 109.5,19.6 109.5,18.9 109.5,18.9 109.5,18.9 109.5,18.9 109.5,18.9 109.5,18.9 109.5,18.9 109.5,18.9 109.5,18.9 
			109.5,18.9 109.5,18.9 109.5,18.9 110.3,18.9 111,18.9 111,18.9 111,18.9 111,18.9 111,18.9 111,18.9 111,18.9 111,18.9 111,18.9 
			111,18.9 111.8,18.9 111.8,18.9 111.8,18.9 111.8,18.9 111.8,18.9 111.8,18.9 111.8,18.9 111.8,18.9 111.8,18.9 111.8,18.9 
			111.8,18.9 112.5,18.1 112.5,18.1 112.5,18.1 112.5,18.1 112.5,18.9 112.5,18.1 112.5,17.4 112.5,17.4 112.5,16.6 113.3,16.6 
			113.3,15.9 113.3,15.9 113.3,15.1 113.3,15.1 113.3,14.4 113.3,14.4 113.3,14.4 113.3,13.6 113.3,13.6 113.3,12.9 113.3,12.9 
			113.3,12.9 113.3,12.9 113.3,12.1 113.3,12.1 113.3,11.4 113.3,11.4 113.3,11.4 113.3,11.4 113.3,11.4 113.3,10.6 114,10.6 
			114,10.6 114.8,10.6 115.5,10.6 115.5,10.6 115.5,10.6 115.5,10.6 		"/>
		<polygon points="114.8,13.6 114.8,11.4 114.8,12.1 114,12.1 114,12.9 114,12.9 114,13.6 114,14.4 114,14.4 114,15.1 114,15.1 
			114,15.9 114,15.9 114,16.6 114,16.6 114,17.4 114,17.4 113.3,18.1 114,15.1 114,15.1 114,15.1 114,15.1 114,15.1 		"/>
		<polygon points="112.5,27.8 112.5,27.8 112.5,27.8 111.8,27.8 111,27.8 110.3,27.8 110.3,27.8 109.5,27.8 108.8,27.8 108,27.1 
			107.3,27.1 106.5,27.1 105.8,27.1 105,27.1 104.3,27.1 103.5,27.1 103.5,27.1 102.8,26.3 102,26.3 102,26.3 101.3,26.3 
			100.5,27.1 100.5,27.1 99.8,26.3 99.8,26.3 99.8,26.3 99,28.6 99.8,28.6 99.8,29.3 99.8,29.3 99.8,29.3 99.8,30.1 99.8,30.1 
			99.8,30.8 99.8,30.8 99.8,31.6 99.8,31.6 99,32.3 99,32.3 99,33 99,33 99,33.8 99,33.8 99,34.5 99,34.5 99,35.3 99,36 99,36.8 
			99,36.8 99,37.5 99,38.3 99,38.3 99,38.3 99,39 99,39 99,39 99,38.3 99,38.3 99,37.5 99,37.5 99,36.8 99,36.8 99,36 99.8,36 
			99.8,35.3 99.8,35.3 99.8,34.5 99.8,33.8 99.8,33.8 99.8,33 99.8,33 99.8,32.3 99.8,32.3 99.8,31.6 99.8,31.6 99.8,30.8 
			99.8,30.8 99.8,30.1 99.8,30.1 99.8,29.3 99.8,29.3 99.8,29.3 99.8,29.3 99.8,29.3 99.8,29.3 99.8,28.6 99.8,28.6 99.8,27.8 
			99.8,27.8 99.8,27.1 100.5,27.1 101.3,27.1 102,27.1 102.8,27.1 103.5,27.1 104.3,27.1 105,27.1 105.8,27.1 106.5,27.1 
			107.3,27.1 108,27.8 108.8,27.8 109.5,27.8 110.3,27.8 111,27.8 111.8,27.8 112.5,27.8 112.5,28.6 111.8,30.1 111.8,30.1 
			111.8,30.1 111.8,30.1 112.5,30.1 		"/>
		<polygon points="113.3,9.9 111,9.9 113.3,9.9 113.3,9.9 113.3,9.9 113.3,9.9 		"/>
		<polygon points="112.5,11.4 113.3,10.6 112.5,10.6 112.5,10.6 112.5,10.6 112.5,10.6 111.8,16.6 		"/>
		<polygon points="111.8,31.6 111.8,31.6 111.8,31.6 111.8,31.6 111.8,30.8 111.8,31.6 111.8,31.6 111.8,31.6 111.8,32.3 
			111.8,32.3 		"/>
		<polygon points="111.8,33 111.8,33 111.8,33 111.8,33 111.8,33 111.8,33 111.8,33 111.8,33 111.8,33 		"/>
		<polygon points="111.8,25.6 111.8,24.8 111.8,27.1 111.8,27.1 111.8,27.1 111.8,27.1 111.8,27.1 		"/>
		<polygon points="111.8,33.8 111.8,33.8 111.8,33.8 111.8,33.8 111.8,33.8 111.8,34.5 		"/>
		<polygon points="112.5,9.2 110.3,9.2 112.5,9.2 112.5,9.2 112.5,9.2 112.5,9.2 		"/>
		<polygon points="111,36 111,36 111,36 111,36 111,36 111,39 		"/>
		<polygon points="111.8,35.3 111.8,35.3 111.8,35.3 111,35.3 111,35.3 		"/>
		<polygon points="112.5,6.2 112.5,6.2 112.5,6.2 112.5,6.2 112.5,6.2 111.8,6.2 111.8,6.9 111.8,6.9 111.8,7.7 111.8,8.4 		"/>
		<polygon points="111.8,17.4 111.8,17.4 111.8,18.1 111.8,18.1 111.8,18.1 111.8,18.1 111.8,18.1 		"/>
		<polygon points="111,30.8 111,30.1 108,33.8 107.3,34.5 107.3,34.5 107.3,34.5 107.3,34.5 107.3,34.5 107.3,34.5 106.5,35.3 
			106.5,35.3 106.5,36 105.8,36 105.8,36.8 105.8,36.8 105,36.8 105,37.5 105,37.5 105,37.5 105,37.5 105,37.5 105,37.5 105,38.3 
			105,38.3 105,38.3 105,38.3 105,38.3 105.8,37.5 106.5,37.5 106.5,36.8 107.3,36 107.3,36 107.3,35.3 108,34.5 108,34.5 
			108.8,33.8 108.8,33.8 109.5,33 109.5,33 110.3,32.3 110.3,31.6 111,31.6 111,30.8 		"/>
		<polygon points="111.8,10.6 111.8,10.6 111.8,10.6 111.8,10.6 111.8,10.6 111.8,10.6 111,10.6 111,10.6 111,10.6 110.3,10.6 
			110.3,10.6 109.5,10.6 109.5,10.6 109.5,10.6 108.8,10.6 108.8,10.6 108.8,9.9 108,9.9 108,9.9 108,9.9 107.3,9.9 107.3,9.9 
			107.3,9.9 107.3,9.9 107.3,9.9 107.3,9.9 107.3,9.9 107.3,9.9 108,9.9 108,10.6 111.8,10.6 111.8,10.6 111.8,10.6 111.8,10.6 		
			"/>
		<polygon points="111,33 111,33 111,33 111,33 111,33 111,32.3 111,32.3 111,32.3 110.3,33 110.3,33 110.3,33 110.3,33.8 
			110.3,33.8 109.5,34.5 109.5,35.3 109.5,35.3 109.5,36 109.5,36 109.5,36 109.5,36.8 109.5,36.8 109.5,36.8 109.5,36.8 
			109.5,36.8 109.5,36.8 109.5,36.8 109.5,36.8 109.5,36.8 109.5,36.8 108.8,36.8 109.5,34.5 109.5,34.5 109.5,34.5 109.5,34.5 
			109.5,34.5 108.8,37.5 108.8,37.5 108.8,37.5 108.8,37.5 108.8,37.5 108.8,35.3 108.8,35.3 108,36 108,36 108,36 108,36.8 
			108,36.8 108,37.5 108,37.5 108,37.5 108,37.5 108,37.5 108,37.5 108,37.5 107.3,37.5 107.3,37.5 107.3,37.5 107.3,37.5 
			107.3,37.5 107.3,37.5 107.3,37.5 108,36.8 106.5,38.3 110.3,38.3 110.3,37.5 111,33.8 110.3,36.8 110.3,36.8 110.3,36.8 
			110.3,36.8 110.3,36.8 110.3,36.8 109.5,36.8 109.5,36.8 109.5,36.8 110.3,33 110.3,33 110.3,33 111,33 111,33 111,33 111,33 
			111,33 		"/>
		<polygon points="111,28.6 109.5,28.6 107.3,27.8 106.5,28.6 110.3,29.3 111,28.6 111,28.6 111,28.6 111,28.6 		"/>
		<polygon points="111,15.1 111,15.1 111,15.1 111,15.1 111,15.1 111,15.1 111,15.9 111,15.9 110.3,15.9 110.3,15.1 110.3,15.1 
			110.3,15.1 110.3,15.1 110.3,15.1 110.3,15.1 110.3,15.1 110.3,15.1 110.3,15.1 110.3,15.1 110.3,15.1 110.3,15.1 110.3,15.1 
			110.3,15.1 110.3,15.1 110.3,15.1 110.3,15.1 110.3,15.1 110.3,15.1 110.3,15.1 109.5,15.1 109.5,15.1 109.5,15.1 109.5,15.1 
			109.5,15.1 109.5,15.1 109.5,15.1 109.5,15.1 108.8,15.1 108.8,15.1 108,15.1 108,15.1 108,15.1 108,15.1 108,15.1 108,15.1 
			107.3,15.1 107.3,15.1 106.5,15.1 106.5,15.1 106.5,15.1 106.5,15.1 106.5,15.1 106.5,15.1 106.5,15.1 106.5,15.1 106.5,15.1 
			106.5,15.1 106.5,15.1 106.5,15.1 106.5,14.4 106.5,14.4 106.5,14.4 106.5,14.4 106.5,14.4 105,13.6 105,13.6 105,13.6 105,13.6 
			105,13.6 105,13.6 105,13.6 105,13.6 105,13.6 105.8,14.4 105.8,15.1 105.8,15.1 105.8,15.1 105.8,15.1 105.8,15.1 105.8,15.1 
			105,15.1 105,15.1 105,15.1 105,15.1 105,15.1 105,15.1 105,15.1 105,15.1 105,15.9 105,15.9 105,15.9 105,16.6 105,16.6 
			105,17.4 105,17.4 105,17.4 105,17.4 105,17.4 105,17.4 105,17.4 105,17.4 105,17.4 105,17.4 105,17.4 105,17.4 105,17.4 
			105,17.4 105,17.4 105,17.4 105,17.4 105,17.4 105,17.4 105,17.4 105,17.4 105,17.4 105,18.1 105.8,17.4 105.8,18.1 105.8,18.1 
			105.8,18.1 105.8,18.1 105.8,18.1 105.8,18.1 105.8,18.1 105.8,18.1 105.8,18.1 105.8,18.1 105.8,18.1 105.8,18.1 105.8,18.1 
			105.8,18.1 105.8,18.1 105.8,18.9 105.8,18.1 105.8,18.1 105.8,18.1 105.8,18.1 106.5,18.1 106.5,18.1 106.5,18.1 106.5,18.1 
			106.5,18.1 106.5,18.1 106.5,18.1 106.5,18.1 106.5,18.1 106.5,18.1 106.5,18.1 106.5,18.1 107.3,18.1 107.3,18.1 107.3,18.1 
			107.3,18.1 107.3,18.1 107.3,18.1 107.3,18.1 107.3,18.1 107.3,18.1 107.3,18.1 107.3,18.1 107.3,18.1 107.3,18.1 107.3,18.1 
			107.3,18.1 107.3,18.1 107.3,18.1 107.3,18.1 108,18.1 108,18.1 108,18.1 108,18.1 108,18.1 108,18.1 108,18.1 108,18.1 108,18.1 
			108,18.1 108,18.1 108.8,18.1 108.8,18.1 108.8,18.1 108.8,18.1 108.8,18.1 108.8,18.1 108.8,17.4 108.8,17.4 108.8,17.4 
			108.8,17.4 108.8,17.4 108.8,17.4 108.8,17.4 108.8,17.4 108.8,17.4 109.5,17.4 109.5,17.4 109.5,17.4 109.5,17.4 109.5,18.1 
			109.5,18.1 110.3,18.1 111,18.9 110.3,18.1 110.3,18.1 111,18.1 111,18.1 111,18.1 111,18.1 111,17.4 111,17.4 111,17.4 111,17.4 
			111,17.4 111,17.4 111,17.4 		"/>
		<polygon points="111,14.4 111,14.4 111,13.6 111,13.6 111,13.6 111,13.6 111,13.6 111,13.6 111,13.6 111,14.4 111,14.4 111,14.4 
			111,14.4 111,14.4 111,14.4 111,14.4 111,14.4 111,14.4 		"/>
		<polygon points="110.3,39 110.3,39 108.8,39 108.8,39 108.8,39 108.8,39 108.8,39 110.3,39 110.3,39 110.3,39 110.3,39 		"/>
		<polygon points="109.5,39.8 109.5,39.8 109.5,39.8 109.5,39.8 109.5,39.8 109.5,39.8 109.5,39.8 109.5,39.8 109.5,39.8 		"/>
		<polygon points="110.3,30.1 108,29.3 106.5,29.3 106.5,30.1 106.5,30.1 106.5,30.8 106.5,30.8 106.5,31.6 105.8,31.6 105.8,32.3 
			105.8,33 105.8,33 105.8,33.8 105.8,33.8 105.8,34.5 105.8,35.3 105.8,35.3 105,36 105,36 105.8,36 105.8,35.3 105.8,35.3 
			106.5,35.3 106.5,34.5 106.5,34.5 106.5,34.5 106.5,33.8 106.5,33.8 106.5,33.8 106.5,33.8 106.5,33.8 106.5,33.8 106.5,33 
			106.5,33 106.5,32.3 106.5,32.3 106.5,32.3 106.5,32.3 106.5,32.3 107.3,30.8 107.3,30.1 107.3,30.1 107.3,30.1 107.3,30.1 
			107.3,30.1 107.3,30.1 107.3,30.1 107.3,30.1 106.5,34.5 107.3,33.8 107.3,33.8 107.3,33.8 107.3,33 107.3,33 107.3,32.3 
			107.3,32.3 107.3,32.3 108,30.8 108,30.8 108,30.8 108,30.8 108,30.8 107.3,33 108,33 108,33 108,32.3 108,32.3 108,31.6 
			108.8,31.6 108.8,30.8 108.8,30.8 108.8,30.8 108.8,30.8 108.8,30.8 108.8,30.1 108.8,30.8 108.8,30.8 108.8,30.8 108.8,30.8 
			108.8,31.6 		"/>
		<polygon points="110.3,24.1 109.5,24.1 109.5,22.6 109.5,23.3 109.5,23.3 109.5,24.1 109.5,24.8 109.5,25.6 109.5,25.6 
			109.5,26.3 109.5,27.1 109.5,26.3 109.5,26.3 109.5,25.6 109.5,25.6 109.5,25.6 109.5,24.8 109.5,24.8 		"/>
		<polygon points="109.5,16.6 109.5,16.6 109.5,16.6 108.8,16.6 108.8,16.6 108.8,16.6 108.8,16.6 108.8,17.4 109.5,17.4 
			109.5,16.6 109.5,16.6 109.5,16.6 109.5,16.6 109.5,16.6 109.5,16.6 109.5,16.6 		"/>
		<polygon points="109.5,15.9 109.5,15.9 109.5,15.9 109.5,15.9 109.5,15.9 108.8,16.6 109.5,16.6 109.5,16.6 109.5,15.9 
			109.5,15.9 		"/>
		<polygon points="109.5,15.1 108.8,15.1 108.8,15.1 108,15.9 108,15.9 109.5,15.9 109.5,15.9 109.5,15.1 109.5,15.1 		"/>
		<polygon points="108.8,22.6 108.8,21.8 108.8,21.8 108.8,21.8 108.8,21.8 108.8,21.8 108,26.3 108,26.3 108,25.6 108.8,25.6 
			108.8,24.8 108.8,24.8 108.8,24.8 108.8,24.1 108.8,24.1 108.8,23.3 108.8,23.3 108.8,22.6 		"/>
		<polygon points="108,39 108,39 108,39 108,39 108,39 107.3,39 107.3,39 107.3,39 107.3,39 107.3,39 108,39 108,39 108,39 108,39 
			108,39 		"/>
		<polygon points="108,39.8 107.3,39.8 108,39.8 108,39.8 108,39.8 108,39.8 		"/>
		<polygon points="109.5,3.9 108.8,2.4 108,7.7 108.8,7.7 108.8,7.7 108.8,6.9 108.8,6.9 108.8,6.2 108.8,6.2 108.8,5.4 108.8,5.4 
			109.5,5.4 109.5,4.7 109.5,4.7 		"/>
		<polygon points="108.8,15.9 108.8,15.9 108.8,15.9 108.8,15.9 108.8,15.9 108,15.9 108,15.9 108,15.9 108,15.9 108,15.9 
			108.8,15.9 108.8,15.9 108.8,15.9 108.8,15.9 		"/>
		<polygon points="108,16.6 108,16.6 108,16.6 108,16.6 108,16.6 108,16.6 107.3,16.6 107.3,15.9 107.3,15.9 107.3,15.9 107.3,15.9 
			107.3,15.9 106.5,15.9 106.5,15.9 105.8,15.9 106.5,15.9 106.5,16.6 106.5,16.6 106.5,16.6 106.5,16.6 106.5,16.6 108,16.6 
			108,16.6 108,16.6 108,16.6 		"/>
		<polygon points="108,13.6 108,13.6 108,13.6 108,13.6 108,13.6 108,14.4 108,14.4 108,14.4 108,14.4 108,14.4 108,14.4 108,14.4 
			108,14.4 108,14.4 108,13.6 108,13.6 		"/>
		<polygon points="108,2.4 108,0.9 108,0.9 108,0.9 108,0.9 108,0.9 107.3,7.7 		"/>
		<polygon points="107.3,23.3 107.3,21.8 107.3,21.8 106.5,22.6 106.5,22.6 106.5,23.3 106.5,23.3 106.5,24.1 106.5,24.1 
			106.5,24.8 106.5,24.8 106.5,25.6 106.5,25.6 106.5,26.3 		"/>
		<polygon points="106.5,27.8 105.8,27.8 105,28.6 105,29.3 104.3,30.1 104.3,30.8 103.5,31.6 102.8,32.3 102,33 102,33.8 
			101.3,33.8 100.5,35.3 100.5,35.3 99.8,35.3 99.8,36 99.8,36.8 99.8,36.8 99.8,36.8 99.8,36.8 99.8,37.5 99.8,36.8 100.5,36.8 
			100.5,36 100.5,36 101.3,36 101.3,35.3 101.3,35.3 102,34.5 102,34.5 102,33.8 102,33.8 102.8,33 102.8,33 103.5,33 103.5,32.3 
			103.5,31.6 104.3,31.6 104.3,30.8 105,30.1 105,30.1 105,29.3 105.8,28.6 106.5,28.6 106.5,27.8 106.5,27.8 106.5,27.8 
			106.5,27.8 		"/>
		<polygon points="105.8,30.1 105.8,30.1 105.8,30.1 105.8,30.1 105.8,30.1 105,30.8 105,32.3 105,32.3 105,33 105,33 105,33.8 
			105,33.8 105,33.8 105,33.8 105,34.5 105,34.5 105,34.5 105,34.5 105,34.5 105,34.5 104.3,34.5 103.5,37.5 103.5,37.5 103.5,37.5 
			103.5,37.5 103.5,37.5 103.5,37.5 103.5,37.5 103.5,37.5 103.5,37.5 104.3,32.3 103.5,33 103.5,33 103.5,33 103.5,33 103.5,33 
			102.8,36.8 102.8,37.5 102.8,37.5 102.8,37.5 102.8,37.5 102.8,36.8 102.8,36 102.8,36 102.8,35.3 102.8,35.3 103.5,34.5 
			103.5,33.8 103.5,33.8 102.8,34.5 102.8,34.5 102.8,34.5 102.8,34.5 102.8,34.5 102.8,36.8 102.8,36.8 102.8,36.8 102,36.8 
			102,36.8 102.8,34.5 102,35.3 102,36.8 102,36.8 101.3,36.8 101.3,36.8 101.3,36.8 101.3,36.8 101.3,36.8 101.3,36.8 101.3,36.8 
			101.3,36.8 101.3,36.8 101.3,36.8 101.3,36.8 101.3,36 100.5,37.5 104.3,37.5 104.3,37.5 104.3,37.5 104.3,37.5 104.3,37.5 
			104.3,37.5 104.3,37.5 104.3,37.5 104.3,37.5 104.3,36.8 104.3,36.8 105,36.8 105,36.8 		"/>
		<polygon points="105.8,24.1 105.8,21.8 105,25.6 		"/>
		<polygon points="105,27.8 105,27.8 105,27.8 105,27.8 105,27.8 104.3,27.8 104.3,27.8 103.5,27.8 103.5,27.8 102.8,27.8 
			102.8,27.8 102.8,27.8 102,27.8 102,27.8 101.3,27.8 101.3,27.8 101.3,27.8 101.3,27.8 100.5,27.8 100.5,27.8 100.5,27.8 
			100.5,28.6 101.3,28.6 101.3,28.6 102,28.6 102.8,28.6 102.8,28.6 103.5,28.6 104.3,28.6 104.3,28.6 105,28.6 105,27.8 105,27.8 
			105,27.8 105,27.8 105,27.8 105,27.8 		"/>
		<polygon points="104.3,39 104.3,39 104.3,39 104.3,39 104.3,39 104.3,39 104.3,38.3 104.3,38.3 104.3,38.3 102.8,38.3 102.8,38.3 
			102.8,38.3 102.8,38.3 102.8,38.3 99.8,38.3 99.8,38.3 99.8,38.3 99.8,38.3 99.8,39 104.3,39 104.3,39 104.3,39 104.3,39 		"/>
		<polygon points="105,18.1 105,18.1 105,18.1 105,18.1 105,18.1 105,18.1 105,18.1 105,18.1 		"/>
		<polygon points="105,8.4 105,8.4 104.3,8.4 104.3,9.2 104.3,9.2 104.3,9.2 104.3,10.6 104.3,11.4 104.3,12.1 104.3,12.9 
			104.3,13.6 104.3,14.4 103.5,15.1 103.5,15.9 103.5,15.9 103.5,16.6 103.5,17.4 103.5,17.4 103.5,17.4 103.5,17.4 103.5,17.4 
			103.5,17.4 104.3,17.4 104.3,16.6 104.3,15.9 104.3,15.9 104.3,15.1 104.3,15.1 104.3,14.4 104.3,13.6 104.3,12.9 104.3,12.9 
			105,12.1 105,11.4 105,10.6 105,9.9 105,9.2 105,9.2 105,8.4 105,8.4 105,8.4 105,8.4 105,8.4 105,8.4 105,8.4 		"/>
		<polygon points="104.3,27.1 104.3,27.1 104.3,27.1 104.3,27.1 104.3,27.1 104.3,27.1 104.3,27.1 104.3,27.8 		"/>
		<polygon points="104.3,29.3 100.5,29.3 100.5,29.3 100.5,29.3 100.5,29.3 100.5,30.1 100.5,30.1 100.5,30.1 100.5,30.1 
			100.5,30.8 99.8,35.3 100.5,34.5 100.5,33.8 100.5,33 100.5,32.3 100.5,31.6 100.5,31.6 100.5,30.8 100.5,30.1 100.5,29.3 
			100.5,29.3 101.3,29.3 101.3,29.3 101.3,29.3 100.5,33.8 101.3,33 101.3,33 102,30.1 102,30.1 102,30.1 102,30.1 102,30.1 
			102,30.1 102,30.1 102,30.1 102,30.1 102,30.8 102,30.8 102,31.6 102,31.6 102,31.6 102,32.3 102,32.3 101.3,33 102,32.3 
			102,32.3 102,31.6 102,31.6 102,30.8 102.8,30.8 102.8,30.1 102.8,30.1 102.8,30.1 102.8,30.1 102.8,30.1 102.8,30.1 102.8,30.1 
			102.8,30.1 102.8,30.1 102.8,30.1 102.8,30.8 		"/>
		<polygon points="104.3,2.4 104.3,1.7 104.3,0.9 104.3,0.9 104.3,0.9 104.3,1.7 104.3,2.4 103.5,3.2 103.5,3.9 103.5,4.7 
			103.5,5.4 103.5,6.2 102.8,6.9 102.8,8.4 102.8,8.4 102.8,8.4 102.8,8.4 102.8,9.2 103.5,8.4 103.5,7.7 103.5,7.7 103.5,6.9 
			103.5,6.2 103.5,5.4 103.5,5.4 104.3,4.7 104.3,3.9 104.3,3.2 104.3,3.2 		"/>
		<polygon points="103.5,10.6 103.5,9.9 103.5,9.9 103.5,9.9 103.5,9.9 102.8,9.9 102.8,10.6 102.8,11.4 102.8,12.1 102.8,12.9 
			102.8,13.6 102.8,14.4 102.8,15.1 102.8,15.9 102.8,15.1 102.8,14.4 102.8,13.6 102.8,12.9 102.8,12.1 102.8,11.4 103.5,11.4 		
			"/>
		<polygon points="102,22.6 102,21.1 102,22.6 102,24.1 101.3,25.6 		"/>
		<polygon points="102,3.9 102,3.2 102,3.2 102,3.2 102,3.2 102,3.2 102,3.2 101.3,7.7 101.3,7.7 101.3,7.7 101.3,7.7 101.3,7.7 
			102,6.2 102,5.4 102,5.4 102,5.4 102,5.4 		"/>
		<polygon points="101.3,9.2 101.3,9.2 101.3,8.4 101.3,8.4 101.3,8.4 101.3,8.4 101.3,8.4 101.3,8.4 101.3,8.4 101.3,8.4 
			101.3,8.4 101.3,8.4 101.3,8.4 101.3,11.4 		"/>
		<polygon points="100.5,20.4 100.5,19.6 100.5,18.9 100.5,18.9 100.5,18.1 100.5,18.1 100.5,18.1 99.8,18.1 99.8,18.1 99.8,18.9 
			99.8,19.6 99.8,20.4 99.8,21.1 99.8,21.8 99.8,22.6 99,23.3 99,24.1 99,24.8 99,24.8 99,25.6 99,25.6 99.8,24.8 		"/>
		<polygon points="100.5,3.9 100.5,3.9 100.5,3.9 100.5,3.9 100.5,3.9 100.5,6.2 100.5,6.2 100.5,6.9 100.5,6.9 100.5,6.2 		"/>
		<polygon points="99,17.4 99,16.6 99,16.6 99,16.6 99,16.6 99,16.6 98.3,24.1 		"/>
		<polygon points="99,27.8 98.3,27.8 98.3,27.8 98.3,27.8 98.3,27.8 98.3,26.3 98.3,26.3 98.3,26.3 98.3,26.3 98.3,26.3 97.5,35.3 
			98.3,30.8 98.3,30.8 98.3,30.8 98.3,30.8 98.3,30.8 98.3,30.8 98.3,30.8 98.3,30.8 98.3,30.8 		"/>
		<path d="M98.3,24.8v-0.7V24.8z"/>
		<polygon points="99,-2 99,-2 99,-2 98.3,-2 98.3,-2 97.5,-2 97.5,-2 98.3,-2 98.3,-1.3 98.3,-1.3 98.3,-1.3 98.3,-1.3 98.3,-1.3 
			97.5,-1.3 96.8,-0.5 96.8,-0.5 96,0.2 96,0.2 96,0.2 96,0.2 96,0.2 96.8,0.2 96.8,0.2 96.8,0.2 97.5,-0.5 97.5,-0.5 98.3,-0.5 
			98.3,-0.5 98.3,-1.3 		"/>
		<polygon points="96.8,36.8 96.8,36.8 96.8,36.8 96.8,36.8 96.8,36.8 96.8,36.8 96.8,36.8 96.8,36 		"/>
		<polygon points="97.5,15.9 97.5,14.4 97.5,14.4 97.5,14.4 97.5,14.4 97.5,14.4 97.5,15.1 97.5,16.6 97.5,18.1 96.8,18.9 
			96.8,20.4 96.8,21.8 96.8,23.3 96.8,24.1 		"/>
		<polygon points="96.8,30.1 96.8,30.1 96.8,30.1 96.8,30.1 96.8,30.1 96.8,30.1 96.8,30.1 96,30.1 96,30.1 95.3,29.3 95.3,30.1 
			95.3,30.1 95.3,30.1 95.3,30.1 95.3,30.1 96.8,30.1 96.8,30.1 96.8,30.1 96.8,30.1 96.8,30.8 96.8,32.3 96.8,32.3 96,33 96,33.8 
			96,33.8 96,33.8 96,34.5 96,34.5 96,34.5 96,35.3 96,35.3 95.3,35.3 95.3,35.3 95.3,35.3 94.5,35.3 94.5,35.3 93.8,35.3 
			93.8,35.3 93.8,35.3 93,35.3 93,35.3 93,35.3 93,35.3 93,35.3 93,35.3 93,35.3 93,34.5 93,34.5 93,30.1 93.8,30.1 93.8,30.1 
			93.8,30.1 93.8,30.1 94.5,30.1 94.5,30.1 94.5,29.3 94.5,29.3 93.8,29.3 93.8,29.3 93.8,29.3 93.8,29.3 93.8,29.3 93.8,30.1 
			93.8,29.3 93,29.3 93,29.3 93,29.3 93,30.1 93,30.8 93,31.6 93,32.3 92.3,33 92.3,33 92.3,33.8 92.3,34.5 92.3,34.5 92.3,35.3 
			92.3,35.3 92.3,35.3 92.3,35.3 92.3,35.3 92.3,35.3 92.3,35.3 92.3,35.3 92.3,35.3 93,35.3 93,35.3 93,36 93,36 93.8,36 
			94.5,35.3 94.5,35.3 94.5,35.3 94.5,35.3 94.5,35.3 94.5,35.3 96,36 96.8,35.3 96.8,35.3 96.8,35.3 96,35.3 96,34.5 		"/>
		<polygon points="98.3,-3.5 98.3,-3.5 98.3,-3.5 98.3,-3.5 97.5,-3.5 		"/>
		<polygon points="95.3,12.9 95.3,12.9 95.3,12.9 95.3,12.9 95.3,12.9 95.3,12.9 95.3,12.9 95.3,12.9 94.5,12.9 94.5,12.9 
			94.5,12.9 94.5,12.9 94.5,12.9 94.5,12.9 94.5,12.9 94.5,12.9 94.5,12.9 93.8,22.6 93.8,22.6 93.8,21.8 93.8,21.1 93.8,20.4 
			94.5,19.6 94.5,18.9 94.5,18.1 94.5,18.1 94.5,17.4 94.5,16.6 94.5,15.9 94.5,15.1 95.3,15.1 95.3,14.4 95.3,13.6 		"/>
		<polygon points="94.5,37.5 94.5,36 93.8,36 93.8,36 93.8,36 93.8,36 93.8,37.5 93.8,37.5 93.8,37.5 93.8,37.5 93.8,37.5 
			93.8,38.3 93.8,38.3 93.8,38.3 93.8,38.3 93.8,38.3 93.8,37.5 94.5,37.5 94.5,37.5 		"/>
		<polygon points="93,36 93,36 93,36 93,36 93,36 93,36 93,36.8 93,36.8 93,36.8 93,37.5 93,37.5 93,37.5 93,37.5 93,37.5 		"/>
		<polygon points="93.8,15.1 93.8,14.4 93,14.4 93,14.4 93,14.4 93,14.4 93,15.1 93,15.9 93,17.4 93,18.1 93,18.9 93,19.6 93,21.1 
			93,21.8 		"/>
		<polygon points="92.3,36.8 92.3,36 92.3,36 92.3,36 91.5,36 91.5,36 91.5,36 91.5,35.3 91.5,35.3 91.5,35.3 91.5,34.5 91.5,34.5 
			91.5,34.5 91.5,33.8 91.5,33.8 91.5,34.5 91.5,34.5 91.5,35.3 91.5,35.3 91.5,35.3 91.5,36 91.5,36 91.5,36.8 91.5,36.8 
			91.5,36.8 91.5,37.5 91.5,37.5 91.5,37.5 91.5,37.5 91.5,37.5 91.5,37.5 92.3,37.5 92.3,36.8 92.3,36.8 92.3,36.8 92.3,36.8 
			92.3,36.8 		"/>
		<polygon points="91.5,33 91.5,33 91.5,33 91.5,33 91.5,33 91.5,33.8 		"/>
		<polygon points="93,3.2 93,3.2 93,3.2 93,3.2 92.3,3.2 93,3.2 93,3.2 93,3.2 		"/>
		<polygon points="92.3,23.3 92.3,23.3 92.3,23.3 92.3,23.3 91.5,23.3 91.5,21.1 91.5,21.1 91.5,21.1 91.5,21.1 91.5,21.1 
			91.5,21.8 91.5,21.8 91.5,21.8 91.5,21.8 91.5,22.6 91.5,23.3 91.5,24.1 91.5,24.8 91.5,25.6 91.5,26.3 90.8,27.1 90.8,27.8 
			90.8,28.6 90.8,28.6 90.8,29.3 90.8,29.3 90.8,29.3 90.8,30.1 90.8,30.1 90.8,30.8 91.5,23.3 92.3,23.3 92.3,23.3 92.3,23.3 		"/>
		<polygon points="90.8,33 90.8,32.3 90.8,32.3 90.8,32.3 90.8,32.3 90.8,32.3 		"/>
		<polygon points="90.8,22.6 90.8,21.1 90.8,21.1 90.8,21.1 90.8,21.1 90.8,21.1 90.8,22.6 90.8,22.6 90.8,22.6 90.8,22.6 
			90.8,22.6 90.8,22.6 90.8,22.6 90.8,22.6 		"/>
		<polygon points="90.8,24.1 90.8,23.3 90.8,23.3 90.8,23.3 90.8,23.3 90.8,23.3 90,24.1 90.8,24.8 90.8,24.8 90.8,24.8 90.8,24.8 
			90.8,24.8 		"/>
		<polygon points="90,36.8 90,36 90,37.5 90,37.5 90,36.8 90,36.8 		"/>
		<polygon points="90,33 90,32.3 90,32.3 90,32.3 90,32.3 90,32.3 89.3,34.5 90,34.5 90,34.5 90,34.5 90,33.8 90,33.8 90,33.8 
			90,33.8 		"/>
		<polygon points="90.8,3.2 87.8,3.2 87.8,3.2 87.8,3.2 87.8,3.2 87,3.2 87,3.2 87,3.2 87,3.2 87,2.4 89.3,2.4 87.8,2.4 87.8,2.4 
			87.8,2.4 87.8,2.4 87.8,1.7 87.8,1.7 87.8,1.7 87.8,1.7 88.5,1.7 87,1.7 86.3,1.7 85.5,2.4 84.8,2.4 84,2.4 82.5,3.2 81.8,3.2 
			81,3.2 80.3,3.2 80.3,3.2 79.5,3.2 78.8,3.9 78.8,3.9 78.8,3.9 78,3.9 78,3.9 77.3,3.9 77.3,3.9 76.5,3.9 76.5,3.9 75.8,3.9 
			75.8,3.9 75,4.7 75,4.7 74.3,4.7 74.3,4.7 73.5,4.7 72.8,4.7 72.8,4.7 72,4.7 71.3,5.4 70.5,5.4 70.5,5.4 69.8,5.4 69,5.4 
			68.3,5.4 68.3,5.4 67.5,6.2 67.5,6.2 66.8,6.2 66,6.2 66,6.2 65.3,6.2 64.5,6.2 64.5,6.9 63.8,6.9 63.8,7.7 63,8.4 62.3,8.4 
			62.3,9.2 61.5,9.2 61.5,9.9 61.5,10.6 60.8,10.6 60.8,11.4 60.8,11.4 60.8,12.1 60.8,12.9 60,12.9 60,13.6 60,14.4 59.3,15.1 
			59.3,15.9 58.5,16.6 58.5,18.1 57.8,18.9 57.8,19.6 57,20.4 57,21.1 57,21.1 57,21.8 56.3,22.6 56.3,22.6 56.3,23.3 56.3,24.1 
			55.5,24.1 56.3,24.8 56.3,24.8 56.3,24.8 56.3,24.8 56.3,24.8 56.3,24.8 56.3,24.1 56.3,24.1 56.3,24.1 56.3,24.1 56.3,24.1 
			57,24.1 57,24.1 57,24.1 57,24.1 57,23.3 57,23.3 57,23.3 57,23.3 57,23.3 57,23.3 57,23.3 57.8,23.3 57.8,23.3 57.8,23.3 
			58.5,23.3 58.5,23.3 58.5,23.3 59.3,23.3 60,23.3 60.8,23.3 61.5,23.3 62.3,23.3 63,23.3 63.8,23.3 64.5,23.3 66,23.3 66.8,23.3 
			67.5,23.3 68.3,23.3 69,23.3 69.8,23.3 70.5,23.3 71.3,23.3 72,23.3 72,23.3 72,23.3 72,23.3 72,23.3 62.3,23.3 61.5,23.3 
			60.8,23.3 60,23.3 59.3,23.3 59.3,23.3 58.5,23.3 57.8,23.3 57,23.3 57,23.3 57,23.3 57,22.6 57,22.6 57,22.6 57,22.6 57,22.6 
			57,22.6 60,22.6 57,21.8 57,21.8 57,21.8 57,21.8 57,21.8 62.3,21.8 59.3,21.1 59.3,21.1 59.3,21.1 59.3,21.1 59.3,21.1 
			61.5,21.1 60.8,21.1 60.8,21.1 60.8,21.1 60.8,21.1 60.8,21.1 60.8,21.1 61.5,21.1 61.5,20.4 67.5,20.4 67.5,20.4 66.8,20.4 
			66,20.4 66,20.4 65.3,20.4 65.3,20.4 64.5,19.6 64.5,19.6 64.5,19.6 64.5,19.6 64.5,19.6 64.5,19.6 65.3,19.6 66,19.6 66.8,19.6 
			67.5,19.6 68.3,19.6 69,19.6 69.8,19.6 70.5,19.6 66.8,19.6 66.8,19.6 66.8,19.6 66.8,19.6 66.8,19.6 66.8,19.6 66.8,19.6 
			66.8,19.6 66.8,19.6 66.8,18.9 66.8,18.9 66.8,18.9 66.8,18.9 66.8,18.9 66.8,18.9 66.8,18.9 66.8,18.9 67.5,18.9 68.3,18.9 
			69,18.9 69.8,18.9 70.5,18.9 71.3,18.9 72,18.9 72.8,18.9 73.5,19.6 74.3,19.6 75,19.6 75.8,19.6 76.5,19.6 77.3,19.6 78,19.6 
			78.8,19.6 79.5,19.6 79.5,19.6 79.5,19.6 78.8,19.6 69.8,18.1 69.8,18.1 69.8,18.1 69.8,18.1 69.8,18.1 70.5,18.1 71.3,18.1 
			72,18.1 73.5,18.1 74.3,18.1 75,18.1 75.8,18.1 76.5,18.1 76.5,18.1 75.8,18.1 75.8,18.1 75,18.1 74.3,18.1 74.3,18.1 73.5,18.1 
			73.5,17.4 72.8,17.4 72.8,17.4 72.8,17.4 73.5,17.4 73.5,17.4 74.3,17.4 74.3,17.4 75,17.4 75,17.4 75.8,17.4 75.8,17.4 
			75.8,17.4 76.5,17.4 76.5,17.4 75.8,16.6 75,16.6 75,16.6 74.3,16.6 74.3,15.9 74.3,15.9 74.3,15.9 74.3,15.9 77.3,16.6 
			77.3,16.6 77.3,16.6 77.3,16.6 78,16.6 80.3,16.6 75.8,15.9 75.8,15.9 75.8,15.9 75.8,15.9 76.5,15.1 77.3,15.1 77.3,15.1 
			77.3,15.1 77.3,15.1 77.3,15.1 77.3,15.1 77.3,15.1 77.3,15.1 77.3,15.1 77.3,15.1 77.3,15.1 77.3,15.1 77.3,15.1 78.8,15.1 
			78.8,14.4 78.8,14.4 78.8,14.4 78.8,14.4 78.8,14.4 78.8,14.4 79.5,14.4 79.5,14.4 80.3,14.4 80.3,14.4 81,14.4 81.8,14.4 
			81.8,14.4 82.5,14.4 82.5,14.4 82.5,14.4 83.3,14.4 82.5,14.4 81.8,14.4 81,14.4 80.3,14.4 80.3,14.4 79.5,14.4 78.8,13.6 
			78.8,13.6 78.8,13.6 78,13.6 78,13.6 78,13.6 78.8,13.6 78.8,13.6 79.5,13.6 79.5,13.6 79.5,13.6 80.3,13.6 80.3,13.6 81,13.6 
			81,13.6 81,13.6 81,13.6 81,13.6 82.5,13.6 79.5,12.9 79.5,12.9 79.5,12.9 79.5,12.9 79.5,12.9 79.5,12.9 79.5,12.9 79.5,12.9 
			79.5,12.9 79.5,12.9 80.3,12.9 81,12.9 81.8,12.9 82.5,12.9 82.5,12.9 83.3,12.9 84,12.9 83.3,12.9 82.5,12.9 82.5,12.9 
			81.8,12.9 81,12.9 80.3,12.1 80.3,12.1 79.5,12.1 79.5,12.1 79.5,12.1 79.5,12.1 79.5,12.1 80.3,12.1 81,12.1 81,12.1 81.8,12.1 
			82.5,12.1 83.3,12.1 84,12.1 84,12.1 79.5,11.4 78.8,11.4 78.8,11.4 78.8,11.4 78.8,11.4 79.5,11.4 80.3,10.6 80.3,10.6 81,10.6 
			81,10.6 81.8,11.4 82.5,11.4 82.5,11.4 82.5,11.4 82.5,11.4 82.5,11.4 82.5,11.4 78.8,10.6 78.8,10.6 78.8,10.6 78.8,10.6 
			78.8,10.6 78.8,9.9 78.8,9.9 78.8,9.9 78.8,9.9 79.5,9.9 78,9.9 77.3,9.9 77.3,9.2 77.3,9.2 77.3,9.2 77.3,9.2 77.3,9.2 77.3,9.2 
			76.5,9.2 76.5,9.2 75.8,9.2 75.8,9.2 75.8,9.2 75.8,9.2 75.8,9.2 75.8,9.2 75.8,9.2 76.5,8.4 76.5,8.4 67.5,9.9 66.8,9.9 
			66.8,9.9 66,9.9 66,9.9 65.3,9.9 65.3,9.9 65.3,9.9 64.5,9.9 64.5,9.9 63.8,9.9 63.8,9.9 63,9.9 63,9.9 63,9.2 62.3,9.2 62.3,9.2 
			63,9.2 63,9.2 63,9.2 63.8,9.2 64.5,9.2 64.5,9.2 65.3,9.2 65.3,9.2 66,9.2 67.5,9.2 68.3,8.4 69,8.4 70.5,8.4 71.3,8.4 72,8.4 
			73.5,8.4 74.3,7.7 75,7.7 75.8,7.7 77.3,7.7 78,7.7 78.8,7.7 80.3,6.9 81,6.9 80.3,6.9 80.3,6.9 79.5,6.9 79.5,6.9 78.8,6.9 
			78,6.9 78,6.9 77.3,6.9 77.3,6.9 77.3,6.9 77.3,6.9 77.3,6.9 78,6.2 78,6.2 78,6.2 78.8,6.2 78.8,6.2 79.5,6.2 79.5,6.2 80.3,6.2 
			80.3,6.2 80.3,6.2 79.5,6.2 79.5,6.2 79.5,6.2 80.3,5.4 80.3,5.4 81,5.4 81,5.4 81.8,5.4 81.8,5.4 82.5,5.4 83.3,5.4 82.5,5.4 
			82.5,5.4 82.5,5.4 81.8,5.4 81.8,5.4 81.8,4.7 81.8,4.7 81.8,4.7 81.8,4.7 81.8,4.7 82.5,4.7 82.5,4.7 82.5,4.7 83.3,4.7 84,5.4 
			84,5.4 84.8,5.4 85.5,5.4 86.3,5.4 86.3,5.4 86.3,5.4 86.3,4.7 86.3,4.7 85.5,5.4 84.8,4.7 84.8,4.7 84.8,4.7 84.8,4.7 84.8,4.7 
			84.8,4.7 84.8,4.7 84.8,4.7 84.8,4.7 90,3.9 89.3,3.9 88.5,3.9 88.5,3.9 87.8,3.9 87.8,3.9 87,3.9 86.3,3.9 86.3,3.9 86.3,3.9 
			86.3,3.9 86.3,3.9 86.3,3.9 86.3,3.9 86.3,3.2 86.3,3.2 86.3,3.2 90.8,3.2 90.8,3.2 90.8,3.2 90.8,3.2 		"/>
		<polygon points="89.3,24.1 89.3,23.3 89.3,23.3 89.3,23.3 89.3,23.3 89.3,22.6 88.5,23.3 88.5,23.3 88.5,23.3 88.5,24.1 
			88.5,24.1 88.5,24.1 88.5,24.8 88.5,24.8 87.8,24.8 87.8,25.6 87.8,25.6 87.8,26.3 87.8,27.1 87.8,27.8 87.8,29.3 87.8,30.1 
			87.8,31.6 87,33 87,33.8 87,35.3 87,36 87,35.3 87,35.3 87,35.3 87,35.3 87,35.3 87,35.3 87,35.3 87,35.3 87,35.3 87,36.8 
			87,37.5 87,37.5 87,37.5 87,37.5 87,36 87.8,36 87.8,35.3 87.8,35.3 87.8,35.3 87.8,35.3 87.8,37.5 87.8,37.5 87.8,37.5 
			87.8,37.5 87.8,37.5 87.8,37.5 87.8,37.5 87.8,37.5 87.8,37.5 		"/>
		<polygon points="87,25.6 87,25.6 87,25.6 87,25.6 87,25.6 87,25.6 86.3,26.3 87,26.3 87,25.6 87,25.6 87,25.6 87,25.6 		"/>
		<polygon points="86.3,24.8 87,24.8 87,24.8 		"/>
		<polygon points="86.3,35.3 86.3,34.5 86.3,36 		"/>
		<polygon points="85.5,34.5 85.5,34.5 85.5,34.5 85.5,34.5 85.5,34.5 85.5,34.5 85.5,34.5 85.5,34.5 		"/>
		<polygon points="85.5,36.8 85.5,36.8 85.5,36.8 85.5,36.8 85.5,36.8 85.5,36.8 85.5,36 85.5,36.8 85.5,36.8 85.5,36.8 85.5,36.8 
			85.5,36.8 85.5,36.8 85.5,36.8 85.5,36.8 85.5,36.8 85.5,36.8 85.5,36.8 85.5,36.8 		"/>
		<polygon points="85.5,35.3 85.5,35.3 85.5,35.3 85.5,35.3 85.5,35.3 85.5,36 		"/>
		<polygon points="85.5,25.6 85.5,25.6 85.5,27.1 84.8,28.6 84.8,30.1 84.8,30.8 84,32.3 84,33.8 84,35.3 84,36.8 84,36.8 84,36.8 
			84,36.8 84,36.8 84,36.8 84,36.8 84,36.8 84,36.8 84,36.8 84,36.8 84,36.8 84,36.8 84,36.8 84,36.8 84,36.8 84,36.8 84,36.8 
			84,36.8 84,36.8 84,36.8 84,36.8 84,36.8 84,36 84,36 84,35.3 84,34.5 84.8,34.5 84.8,33.8 84.8,33.8 84.8,32.3 84.8,31.6 
			84.8,30.8 85.5,29.3 85.5,28.6 85.5,27.8 85.5,27.1 		"/>
		<polygon points="84,25.6 84,25.6 84,25.6 84,26.3 84,26.3 84,26.3 84,26.3 84,25.6 		"/>
		<polygon points="84,30.8 84,30.8 84,30.8 84,30.8 84,30.8 83.3,33 		"/>
		<polygon points="83.3,34.5 83.3,34.5 83.3,34.5 83.3,34.5 83.3,34.5 82.5,37.5 82.5,37.5 		"/>
		<polygon points="82.5,26.3 82.5,25.6 82.5,26.3 82.5,26.3 82.5,26.3 82.5,26.3 82.5,26.3 82.5,27.1 81,36.8 81,36.8 81,36.8 
			81,36.8 81,36.8 81,36 81,36 81,35.3 81,34.5 81.8,34.5 81.8,33.8 81.8,33.8 81.8,33 81.8,33 81.8,31.6 81.8,30.8 82.5,30.1 
			82.5,29.3 82.5,28.6 82.5,27.8 82.5,27.1 		"/>
		<polygon points="81,27.1 81,26.3 81,26.3 81,26.3 81,26.3 81,26.3 81,26.3 81,27.1 81,27.1 81,27.1 81,27.8 81,27.8 81,27.8 
			81,28.6 		"/>
		<path d="M81,15.1h-1.5H81z"/>
		<path d="M81.8,9.9H81H81.8z"/>
		<polygon points="80.3,33 81,30.8 80.3,31.6 80.3,31.6 80.3,32.3 80.3,32.3 80.3,33 80.3,33 80.3,33.8 80.3,33.8 80.3,34.5 
			80.3,34.5 80.3,35.3 79.5,35.3 79.5,36 79.5,36 79.5,36.8 79.5,36.8 79.5,36.8 79.5,36.8 79.5,36.8 80.3,36.8 80.3,36.8 
			80.3,36.8 80.3,36.8 80.3,36.8 80.3,36.8 80.3,36.8 80.3,36.8 80.3,36.8 80.3,36.8 80.3,36 80.3,35.3 80.3,35.3 80.3,34.5 
			80.3,33.8 80.3,33.8 		"/>
		<polygon points="79.5,26.3 79.5,26.3 79.5,26.3 79.5,26.3 79.5,26.3 79.5,26.3 79.5,27.8 79.5,28.6 78.8,30.1 78.8,31.6 
			78.8,32.3 78,33.8 78,35.3 78,36 78,36.8 78,36.8 78,36.8 78,36.8 78,36.8 78,36.8 78,36.8 78,36.8 78,34.5 78,34.5 78,34.5 
			78,34.5 78,33.8 78,33.8 78,33.8 78.8,33.8 78.8,33.8 78.8,33.8 78.8,32.3 78.8,32.3 78.8,32.3 78.8,32.3 78.8,32.3 80.3,26.3 
			80.3,26.3 80.3,26.3 79.5,26.3 		"/>
		<polygon points="78,26.3 78,25.6 76.5,25.6 76.5,27.1 76.5,27.8 75.8,28.6 75.8,28.6 75.8,29.3 75.8,30.1 75.8,30.8 75.8,31.6 
			75.8,31.6 75.8,32.3 75,33 75,33 75,33.8 75,34.5 75,35.3 75,35.3 74.3,36 74.3,36 74.3,36 74.3,36 74.3,36 74.3,36 74.3,36 
			74.3,36 74.3,36 74.3,36 74.3,36 74.3,36 74.3,36 74.3,36 74.3,36 75,36 75,36 75,36 75,36 75,36.8 75,36.8 75,36.8 75,36.8 
			75,36.8 75,36.8 75,36 75,35.3 75,35.3 75,34.5 75,33.8 75,33.8 75.8,33 75.8,33 75.8,32.3 75.8,31.6 75.8,30.8 75.8,30.8 
			75.8,30.1 75.8,29.3 75.8,28.6 76.5,28.6 76.5,25.6 77.3,25.6 77.3,25.6 77.3,25.6 77.3,25.6 77.3,26.3 78,26.3 78,26.3 78,26.3 
			78,27.1 77.3,27.1 77.3,27.8 77.3,27.8 77.3,28.6 77.3,28.6 77.3,29.3 77.3,29.3 		"/>
		<path d="M78,9.2L78,9.2L78,9.2z"/>
		<path d="M78,18.1h-1.5H78z"/>
		<polygon points="77.3,31.6 77.3,31.6 77.3,30.8 77.3,30.8 77.3,30.8 76.5,31.6 76.5,32.3 76.5,33 76.5,33 76.5,33.8 76.5,34.5 
			76.5,34.5 76.5,35.3 76.5,35.3 76.5,34.5 76.5,34.5 76.5,34.5 76.5,33.8 76.5,33.8 76.5,33.8 76.5,33 76.5,32.3 77.3,32.3 
			77.3,31.6 		"/>
		<polygon points="76.5,36.8 76.5,36.8 76.5,36.8 76.5,36.8 76.5,36.8 75.8,36 75.8,36.8 76.5,36.8 76.5,36.8 76.5,36.8 76.5,36.8 
					"/>
		<path d="M76.5,20.4h-3H76.5z"/>
		<polygon points="75,26.3 75,25.6 75,25.6 75,25.6 75,25.6 75,25.6 75,26.3 75,26.3 75,26.3 75,26.3 		"/>
		<polygon points="75,27.8 73.5,36 73.5,36 73.5,36 73.5,36 73.5,36 		"/>
		<polygon points="73.5,36.8 73.5,36.8 73.5,36.8 73.5,36.8 73.5,36.8 73.5,36.8 73.5,36.8 73.5,36.8 73.5,36.8 73.5,36.8 
			73.5,36.8 73.5,36.8 		"/>
		<polygon points="74.3,26.3 74.3,25.6 74.3,25.6 74.3,25.6 74.3,25.6 72.8,25.6 72.8,29.3 73.5,25.6 73.5,25.6 74.3,26.3 
			74.3,26.3 74.3,26.3 74.3,26.3 74.3,26.3 74.3,26.3 74.3,26.3 		"/>
		<polygon points="72.8,30.8 72.8,29.3 71.3,35.3 71.3,36 71.3,36 71.3,36 72,36 72,36 		"/>
		<polygon points="71.3,27.8 71.3,25.6 68.3,25.6 68.3,26.3 68.3,27.1 68.3,27.8 68.3,27.8 68.3,28.6 68.3,29.3 68.3,30.1 
			68.3,30.8 68.3,31.6 68.3,32.3 68.3,33 67.5,33 67.5,33.8 67.5,34.5 67.5,35.3 67.5,36 67.5,36.8 68.3,36 69,26.3 69,26.3 
			69,26.3 69,26.3 69,26.3 69,25.6 69,25.6 69.8,25.6 69.8,25.6 69.8,25.6 70.5,26.3 70.5,26.3 70.5,26.3 70.5,26.3 70.5,26.3 
			70.5,27.1 70.5,27.8 70.5,28.6 70.5,29.3 70.5,30.1 70.5,30.8 70.5,31.6 70.5,32.3 70.5,33 70.5,33 70.5,33.8 70.5,33.8 
			69.8,34.5 69.8,34.5 69.8,35.3 69.8,35.3 69.8,36 69.8,36 69.8,36 69.8,36 69.8,36 69.8,36 69.8,36 70.5,36 70.5,36 70.5,35.3 
			70.5,34.5 70.5,33.8 70.5,33 70.5,32.3 70.5,31.6 70.5,30.8 71.3,30.1 71.3,30.1 71.3,29.3 71.3,29.3 71.3,28.6 71.3,28.6 
			71.3,27.8 		"/>
		<polygon points="71.3,14.4 71.3,14.4 71.3,13.6 71.3,13.6 71.3,13.6 70.5,13.6 70.5,14.4 70.5,14.4 70.5,14.4 70.5,14.4 
			70.5,14.4 70.5,14.4 70.5,14.4 70.5,14.4 		"/>
		<polygon points="71.3,6.9 71.3,6.9 70.5,6.9 70.5,6.9 70.5,6.9 70.5,6.9 70.5,6.9 70.5,6.9 70.5,6.9 71.3,6.9 71.3,6.9 71.3,6.9 
			71.3,6.9 71.3,6.9 		"/>
		<polygon points="70.5,12.1 70.5,12.1 70.5,12.1 70.5,12.1 70.5,12.1 70.5,12.1 70.5,12.1 70.5,12.1 70.5,12.1 69.8,12.1 
			69.8,12.1 69.8,12.1 70.5,12.1 70.5,12.1 70.5,12.1 70.5,12.1 70.5,12.1 		"/>
		<path d="M69.8,21.1H69H69.8z"/>
		<polygon points="69.8,15.9 69.8,15.9 69.8,15.9 69.8,15.9 69.8,15.1 69,15.1 69,15.9 69,15.9 69,15.9 69,15.9 69,15.9 69,15.9 
			69,15.9 69,15.9 69,15.9 69,15.9 		"/>
		<polygon points="69,13.6 69,13.6 69,13.6 68.3,13.6 68.3,13.6 68.3,14.4 68.3,14.4 68.3,14.4 68.3,14.4 68.3,14.4 69,13.6 
			69,13.6 69,13.6 69,13.6 		"/>
		<polygon points="68.3,17.4 67.5,16.6 67.5,16.6 67.5,17.4 67.5,17.4 67.5,17.4 67.5,17.4 67.5,17.4 67.5,17.4 67.5,17.4 
			68.3,17.4 		"/>
		<polygon points="68.3,6.9 68.3,6.9 68.3,6.2 68.3,6.2 68.3,6.2 68.3,6.2 68.3,6.2 68.3,6.2 68.3,6.2 67.5,6.9 67.5,6.9 67.5,6.9 
			68.3,6.9 68.3,6.9 		"/>
		<polygon points="67.5,26.3 67.5,26.3 67.5,26.3 67.5,26.3 67.5,26.3 67.5,26.3 66.8,26.3 66.8,27.1 66.8,27.8 66.8,28.6 
			66.8,29.3 66.8,30.1 66.8,30.8 66,31.6 66,32.3 66,33 66,33 66,33.8 66,33.8 66,34.5 66,35.3 66,35.3 66,36 66,36 66.8,36 
			66.8,36 66.8,35.3 66.8,35.3 66.8,34.5 66.8,34.5 66.8,33.8 66.8,33.8 66.8,33 66.8,32.3 66.8,31.6 66.8,30.8 66.8,30.1 
			67.5,29.3 67.5,27.8 67.5,27.1 		"/>
		<polygon points="67.5,12.1 67.5,12.1 67.5,12.1 67.5,12.1 67.5,12.1 67.5,12.1 67.5,12.1 67.5,12.1 67.5,12.1 67.5,12.1 
			67.5,12.1 67.5,12.1 67.5,12.1 67.5,12.1 67.5,12.1 67.5,12.1 67.5,12.1 67.5,12.1 67.5,12.1 67.5,12.1 		"/>
		<polygon points="66.8,15.9 66.8,15.9 66.8,15.9 66.8,15.9 66.8,15.1 66.8,15.1 66.8,15.9 66,15.9 66,15.9 66,15.9 66,15.9 
			66,15.9 66,16.6 66,16.6 66.8,16.6 66.8,16.6 66.8,16.6 66.8,16.6 66.8,15.9 66.8,15.9 66.8,15.9 66.8,15.9 		"/>
		<polygon points="66,27.1 66,26.3 65.3,26.3 65.3,26.3 65.3,26.3 65.3,26.3 66,26.3 66,26.3 65.3,26.3 65.3,26.3 65.3,26.3 
			64.5,36 64.5,35.3 64.5,35.3 64.5,35.3 64.5,35.3 65.3,35.3 		"/>
		<polygon points="66.8,7.7 66,7.7 66,7.7 66,7.7 66,7.7 66,7.7 66,8.4 66,8.4 66,8.4 66,8.4 66,7.7 66,7.7 66,7.7 66.8,7.7 
			66.8,7.7 66.8,7.7 66.8,7.7 		"/>
		<polygon points="65.3,36.8 65.3,36.8 65.3,36.8 64.5,36.8 64.5,36.8 64.5,36.8 65.3,36.8 65.3,36.8 65.3,36.8 65.3,36.8 
			65.3,36.8 65.3,36.8 		"/>
		<polygon points="66,14.4 66,14.4 66,13.6 66,13.6 66,13.6 66,13.6 66,13.6 66,13.6 66,13.6 66,13.6 65.3,14.4 65.3,14.4 
			65.3,14.4 65.3,14.4 65.3,14.4 65.3,14.4 66,14.4 		"/>
		<polygon points="65.3,17.4 65.3,17.4 65.3,16.6 65.3,16.6 65.3,16.6 65.3,16.6 65.3,16.6 64.5,16.6 64.5,16.6 64.5,17.4 
			64.5,17.4 64.5,17.4 64.5,17.4 64.5,17.4 		"/>
		<polygon points="65.3,6.9 65.3,6.9 65.3,6.9 65.3,6.9 65.3,6.9 65.3,6.9 64.5,7.7 64.5,7.7 64.5,7.7 64.5,7.7 64.5,7.7 65.3,7.7 
			65.3,7.7 65.3,6.9 65.3,6.9 65.3,6.9 65.3,6.9 65.3,6.9 		"/>
		<polygon points="66,-5.8 65.3,-6.5 65.3,-6.5 64.5,-7.3 64.5,-7.3 63.8,-7.3 63.8,-7.3 63,-7.3 63,-7.3 62.3,-8 62.3,-8 61.5,-8 
			60.8,-8 60,-8 59.3,-8.8 58.5,-8.8 57.8,-8.8 57,-8.8 56.3,-8.8 54.8,-8.8 54,-8 53.3,-8 51.8,-8 51,-8 50.3,-8 48.8,-7.3 
			48.8,-6.5 49.5,-6.5 49.5,-7.3 50.3,-7.3 51,-7.3 51.8,-7.3 52.5,-7.3 53.3,-8 54,-8 54.8,-8 56.3,-8 57,-8 58.5,-8 60,-7.3 
			60.8,-7.3 62.3,-7.3 63,-6.5 63.8,-6.5 63.8,-6.5 63.8,-6.5 63.8,-6.5 64.5,-6.5 66,-5 66,-5 66,-5 66,-5.8 		"/>
		<polygon points="65.3,12.9 65.3,12.9 65.3,12.1 65.3,12.1 65.3,12.1 65.3,12.1 65.3,12.1 65.3,12.1 64.5,12.1 64.5,12.1 
			64.5,12.1 64.5,12.1 64.5,12.9 64.5,12.9 64.5,12.9 64.5,12.9 64.5,12.9 64.5,12.9 65.3,12.9 65.3,12.9 65.3,12.9 		"/>
		<polygon points="64.5,26.3 64.5,26.3 64.5,26.3 64.5,26.3 63.8,26.3 63.8,26.3 63,36 63,36 63,36 63,36 63,36 		"/>
		<polygon points="63.8,15.1 63.8,15.1 63.8,15.1 63.8,15.1 63.8,15.1 63.8,15.1 63.8,15.1 63,15.1 63,15.1 63,15.1 63,15.1 
			63,15.1 63,15.1 63,15.9 63,15.9 63,15.9 63,15.9 63,15.9 63,15.9 63,15.9 63,15.9 		"/>
		<polygon points="63,27.1 63,26.3 63,26.3 63,26.3 63,26.3 63,26.3 63,26.3 63,27.1 62.3,27.1 63,27.8 62.3,27.8 62.3,28.6 
			62.3,29.3 62.3,29.3 62.3,30.1 62.3,30.1 62.3,30.8 62.3,31.6 62.3,31.6 62.3,32.3 62.3,32.3 62.3,33 62.3,33 62.3,33.8 
			62.3,33.8 62.3,34.5 62.3,34.5 62.3,34.5 61.5,35.3 61.5,35.3 61.5,35.3 61.5,36 61.5,36 61.5,36.8 61.5,36.8 61.5,36.8 
			61.5,36.8 61.5,36.8 		"/>
		<polygon points="63,12.1 63,12.1 63,12.1 63,12.1 63,12.1 63,12.1 63,12.9 63,12.9 63,12.9 63,12.9 63,12.9 63,12.9 63,12.9 
			63,12.1 63,12.1 63,12.1 63,12.1 		"/>
		<polygon points="63,18.9 63,18.9 63,18.9 62.3,18.9 62.3,18.9 62.3,18.9 62.3,18.9 62.3,18.9 62.3,19.6 62.3,19.6 62.3,19.6 
			62.3,19.6 62.3,19.6 62.3,19.6 62.3,19.6 62.3,19.6 62.3,19.6 62.3,19.6 62.3,18.9 62.3,18.9 63,18.9 63,18.9 63,18.9 63,18.9 		
			"/>
		<polygon points="63,13.6 63,13.6 63,13.6 63,13.6 63,13.6 62.3,14.4 62.3,14.4 62.3,14.4 62.3,14.4 62.3,14.4 63,13.6 63,13.6 
			63,13.6 63,13.6 		"/>
		<polygon points="63.8,-3.5 63.8,-4.3 63,-5 63,-5 63,-5 62.3,-5 62.3,-5 61.5,-5 61.5,-5 60.8,-5.8 60.8,-5.8 60,-5.8 59.3,-5.8 
			59.3,-5.8 58.5,-5.8 58.5,-5.8 57.8,-6.5 57.8,-6.5 57,-6.5 57,-6.5 57,-6.5 56.3,-6.5 54.8,-5 56.3,-5 57,-5 57.8,-5 59.3,-5 
			60,-5 60.8,-4.3 62.3,-4.3 63,-3.5 63,-3.5 63,-3.5 63,-3.5 63,-3.5 63,-3.5 63,-3.5 63,-3.5 63.8,-3.5 63.8,-3.5 63.8,-3.5 
			63.8,-3.5 		"/>
		<polygon points="62.3,17.4 62.3,16.6 62.3,16.6 62.3,16.6 62.3,16.6 62.3,16.6 62.3,17.4 61.5,17.4 61.5,17.4 61.5,17.4 
			61.5,17.4 62.3,17.4 62.3,17.4 62.3,17.4 62.3,17.4 62.3,17.4 62.3,17.4 		"/>
		<polygon points="63,-2 63,-2.8 62.3,-2.8 61.5,-3.5 60,-3.5 59.3,-4.3 57.8,-4.3 56.3,-4.3 55.5,-4.3 54,-3.5 53.3,-3.5 
			53.3,-3.5 53.3,-3.5 53.3,-3.5 53.3,-3.5 53.3,-3.5 52.5,-2.8 52.5,-2.8 53.3,-2.8 54,-2.8 54.8,-2.8 55.5,-2.8 56.3,-2.8 
			56.3,-2.8 57,-2.8 57,-2.8 57,-2.8 57,-2.8 57,-2.8 57,-2 54.8,-2.8 54.8,-2.8 54.8,-2 54.8,-2 54.8,-2 54.8,-2 54.8,-2 54.8,-2 
			54.8,-2 57.8,-1.3 57.8,-1.3 57.8,-1.3 57.8,-1.3 57.8,-1.3 56.3,-1.3 55.5,-0.5 55.5,-0.5 55.5,-0.5 56.3,-0.5 57,-0.5 57,0.2 
			57,0.2 57,0.2 57,0.2 57.8,0.2 57.8,0.2 57.8,0.2 57.8,0.2 57.8,0.2 57,0.2 56.3,0.2 56.3,0.2 55.5,0.2 54.8,0.2 54,0.2 53.3,0.2 
			52.5,0.9 52.5,0.9 52.5,0.9 51.8,0.9 51.8,0.9 52.5,0.9 52.5,0.9 52.5,0.9 52.5,0.9 52.5,0.9 53.3,0.9 53.3,0.9 54,0.9 54.8,0.9 
			54.8,0.9 55.5,0.9 56.3,0.9 56.3,0.9 56.3,1.7 56.3,1.7 56.3,1.7 56.3,1.7 54,1.7 54.8,1.7 54.8,1.7 54.8,1.7 54.8,1.7 54.8,1.7 
			54,1.7 54,1.7 54,1.7 54,1.7 54,1.7 54.8,1.7 55.5,1.7 55.5,1.7 56.3,2.4 57,2.4 57,2.4 57.8,2.4 57.8,2.4 57.8,2.4 57.8,2.4 
			57.8,2.4 57.8,2.4 54.8,2.4 54.8,2.4 54.8,2.4 54,3.2 54.8,3.2 54.8,3.2 54.8,3.2 54.8,3.2 54.8,3.2 55.5,3.2 56.3,3.2 57,3.2 
			57,3.2 57.8,3.2 58.5,3.2 59.3,3.9 60,3.9 60,3.9 60,3.9 60,3.9 60,3.9 59.3,3.9 58.5,3.9 57,3.9 56.3,3.9 55.5,3.9 54,3.9 
			53.3,3.9 52.5,3.9 52.5,4.7 52.5,4.7 52.5,4.7 52.5,4.7 53.3,4.7 53.3,4.7 54,4.7 54.8,4.7 55.5,4.7 56.3,4.7 57,4.7 57.8,5.4 
			57.8,5.4 57.8,5.4 57.8,5.4 57.8,5.4 57.8,5.4 57.8,5.4 57.8,5.4 57,5.4 54,5.4 54,5.4 54,5.4 54,5.4 54,6.2 54,6.2 57,6.2 
			57,6.2 57,6.2 57,6.2 57,6.2 55.5,6.2 54,6.2 54,6.2 54,6.2 54,6.9 54,6.9 53.3,6.9 54,6.9 54,6.9 54.8,6.9 54.8,6.9 55.5,6.9 
			55.5,6.9 56.3,6.9 56.3,7.7 57,7.7 57,7.7 57,7.7 57,7.7 54.8,7.7 54.8,9.2 56.3,9.2 56.3,10.6 57,10.6 57,10.6 57,10.6 57,10.6 
			57,10.6 56.3,10.6 56.3,10.6 56.3,10.6 55.5,9.9 55.5,9.9 55.5,9.9 56.3,9.9 56.3,9.2 56.3,9.2 56.3,9.2 53.3,9.9 53.3,10.6 
			53.3,10.6 53.3,10.6 53.3,10.6 54,10.6 54,10.6 54,10.6 54,10.6 54,10.6 54,10.6 54,10.6 54,10.6 54,10.6 57,10.6 57,10.6 
			57,10.6 57,10.6 57,11.4 57.8,11.4 57.8,11.4 57.8,11.4 57.8,11.4 57.8,11.4 54.8,11.4 54.8,12.1 56.3,12.9 56.3,12.9 56.3,12.9 
			56.3,12.9 56.3,12.9 55.5,12.9 55.5,12.9 55.5,13.6 55.5,13.6 55.5,14.4 57,14.4 57,14.4 57,14.4 57,14.4 57,14.4 54,14.4 
			54,14.4 54,14.4 54,14.4 54,14.4 51.8,14.4 51.8,15.1 51.8,15.1 51.8,15.1 51.8,15.1 51.8,15.1 51.8,15.9 53.3,15.9 53.3,15.1 
			53.3,15.1 53.3,15.1 53.3,15.1 53.3,15.1 54,15.1 54,15.1 54,15.1 54,15.1 54,15.1 54,15.1 54,15.1 54,15.9 54,15.9 54,15.9 
			54,15.9 54,15.9 56.3,15.9 55.5,15.9 55.5,15.9 55.5,16.6 55.5,16.6 55.5,16.6 54.8,16.6 54.8,16.6 54,16.6 54,16.6 53.3,15.9 
			52.5,15.9 52.5,16.6 53.3,16.6 53.3,16.6 54,16.6 54,16.6 54,17.4 54.8,17.4 55.5,17.4 55.5,16.6 55.5,17.4 55.5,17.4 55.5,17.4 
			55.5,17.4 55.5,17.4 56.3,18.1 53.3,18.1 53.3,18.1 53.3,18.1 53.3,18.1 53.3,18.1 53.3,18.1 53.3,18.1 53.3,18.1 53.3,18.1 
			54,18.1 54,18.9 54,18.9 54,18.9 54,18.9 56.3,18.9 56.3,18.9 56.3,18.9 56.3,19.6 56.3,19.6 53.3,18.9 53.3,19.6 53.3,19.6 
			53.3,19.6 53.3,20.4 54,20.4 54,19.6 54,19.6 54,19.6 54,19.6 54.8,19.6 54.8,19.6 54.8,19.6 54.8,19.6 54.8,20.4 55.5,20.4 
			55.5,20.4 55.5,20.4 55.5,20.4 55.5,21.1 55.5,21.1 55.5,20.4 54.8,21.1 54,21.1 54,21.1 54,21.1 54,21.1 54,21.1 54,21.8 
			54,21.8 54,21.8 54,21.8 54,21.8 54,21.8 54,21.8 54,21.8 54,21.8 54,21.8 54,21.8 54,21.8 54,21.8 54,21.8 55.5,22.6 57.8,16.6 
			58.5,15.9 58.5,15.1 59.3,14.4 59.3,13.6 60,12.9 60,12.1 60,10.6 60.8,9.9 60.8,9.9 60.8,9.9 60.8,9.9 60.8,9.9 60.8,9.9 
			60.8,9.9 60.8,9.9 60.8,9.9 60.8,9.2 60.8,9.2 61.5,8.4 62.3,8.4 62.3,7.7 62.3,7.7 62.3,7.7 62.3,7.7 62.3,7.7 62.3,6.9 
			62.3,6.9 62.3,6.2 62.3,6.2 62.3,5.4 62.3,4.7 62.3,4.7 62.3,3.9 62.3,2.4 62.3,2.4 62.3,2.4 62.3,1.7 62.3,1.7 62.3,1.7 
			62.3,1.7 62.3,0.9 63,0.9 62.3,0.9 63,0.2 63,-0.5 63,-0.5 63,-1.3 62.3,-1.3 63,-2 		"/>
		<polygon points="61.5,27.1 61.5,26.3 61.5,26.3 61.5,26.3 61.5,26.3 61.5,26.3 61.5,27.1 61.5,27.1 61.5,27.1 61.5,27.1 
			61.5,27.1 61.5,27.8 61.5,28.6 61.5,28.6 61.5,29.3 61.5,30.1 60.8,30.8 60.8,31.6 60.8,32.3 60.8,32.3 60.8,33 60.8,33.8 
			60.8,34.5 60.8,34.5 60.8,35.3 60.8,36 60.8,36 60.8,36 60.8,36 60.8,36 60.8,36 60.8,36 60.8,35.3 60.8,35.3 60.8,34.5 
			60.8,34.5 60.8,33.8 60.8,33 60.8,33 61.5,32.3 61.5,31.6 61.5,31.6 61.5,30.8 61.5,30.1 61.5,30.1 61.5,29.3 61.5,29.3 
			61.5,28.6 61.5,28.6 61.5,27.8 61.5,27.8 		"/>
		<polygon points="62.3,1.7 62.3,1.7 62.3,1.7 62.3,1.7 62.3,1.7 62.3,1.7 62.3,1.7 61.5,1.7 61.5,1.7 61.5,0.2 61.5,0.2 61.5,0.2 
			61.5,0.2 61.5,0.2 61.5,0.2 61.5,0.2 61.5,0.2 61.5,0.2 61.5,0.9 61.5,0.9 61.5,0.9 60.8,1.7 61.5,1.7 62.3,1.7 62.3,1.7 
			62.3,1.7 62.3,1.7 		"/>
		<polygon points="61.5,6.9 61.5,6.9 61.5,6.9 61.5,6.9 61.5,6.2 61.5,6.2 61.5,6.2 61.5,6.2 61.5,6.2 61.5,6.2 61.5,6.2 61.5,6.2 
			61.5,6.2 61.5,6.2 61.5,6.9 61.5,6.9 61.5,6.9 61.5,6.9 61.5,6.9 61.5,6.9 60.8,6.9 60.8,6.9 60.8,6.9 60.8,7.7 60.8,7.7 
			60.8,7.7 61.5,7.7 61.5,7.7 61.5,7.7 		"/>
		<polygon points="60.8,26.3 60.8,26.3 60.8,26.3 60,26.3 60,26.3 60,26.3 60,26.3 60,26.3 60,26.3 60,26.3 60,26.3 60,26.3 
			60,26.3 60,26.3 60,27.1 60,27.1 60,27.8 60,27.8 60,28.6 60,29.3 60,29.3 60,30.1 60,30.8 60,31.6 60,32.3 60,33 60,33.8 
			60,34.5 59.3,35.3 59.3,36 59.3,36 59.3,36 59.3,36 60,36 		"/>
		<path d="M60.8,24.1H60H60.8z"/>
		<polygon points="60.8,15.1 60.8,15.1 60.8,15.1 60.8,15.1 60.8,15.1 60.8,15.1 60.8,15.1 60.8,15.1 60.8,15.1 60,15.9 60,15.9 
			60,15.9 60,15.9 60.8,15.9 		"/>
		<polygon points="60.8,22.6 60.8,22.6 60.8,22.6 60.8,22.6 60,22.6 60,22.6 60.8,22.6 60.8,22.6 		"/>
		<polygon points="60,18.9 60,18.9 60,18.9 60,18.9 60,18.9 60,18.1 60,18.1 60,18.1 60,18.1 59.3,18.9 59.3,18.9 59.3,18.9 
			59.3,19.6 59.3,19.6 60,19.6 60,19.6 60,19.6 60,19.6 		"/>
		<polygon points="60.8,-2 60.8,-2 60.8,-2 60.8,-2 60.8,-2 60.8,-2 60,-2 60,-2 59.3,-2 59.3,-2 59.3,-1.3 59.3,-1.3 59.3,-0.5 
			59.3,-0.5 59.3,0.2 59.3,0.2 59.3,0.9 60.8,0.9 		"/>
		<polygon points="59.3,29.3 59.3,26.3 59.3,26.3 59.3,26.3 59.3,26.3 58.5,26.3 58.5,36 58.5,36 58.5,36 58.5,36 58.5,36 58.5,36 
			58.5,36 58.5,36 58.5,36 		"/>
		<polygon points="60,9.2 60,9.2 60,9.2 60,9.2 60,9.2 60,9.2 60,9.2 59.3,9.2 59.3,9.2 59.3,8.4 59.3,8.4 58.5,8.4 58.5,8.4 
			58.5,8.4 58.5,8.4 58.5,8.4 58.5,9.2 58.5,9.2 58.5,9.2 58.5,9.2 58.5,9.2 59.3,9.2 60,9.2 60,9.2 60,9.2 60,9.2 60,9.2 60,9.2 
			60,9.2 		"/>
		<polygon points="60,6.9 60,6.9 60,6.9 60,6.2 60,6.2 60,6.2 60,6.2 60,6.2 60,6.2 60,6.2 60,6.2 59.3,6.9 59.3,6.9 59.3,6.9 
			59.3,6.9 58.5,6.9 58.5,6.2 58.5,6.9 58.5,6.9 58.5,6.9 58.5,6.9 58.5,6.9 58.5,6.9 58.5,6.9 58.5,6.9 59.3,6.9 59.3,6.9 
			59.3,6.9 59.3,6.9 60,6.9 60,6.9 60,6.9 60,6.9 60,6.9 		"/>
		<polygon points="59.3,10.6 59.3,9.9 59.3,9.9 59.3,9.9 59.3,9.9 59.3,9.9 58.5,9.9 58.5,9.9 58.5,9.9 58.5,10.6 59.3,10.6 
			59.3,10.6 59.3,10.6 59.3,10.6 59.3,10.6 59.3,10.6 59.3,10.6 		"/>
		<polygon points="57.8,28.6 57.8,26.3 57.8,26.3 57.8,26.3 57.8,26.3 57.8,26.3 57.8,27.1 57.8,27.1 57.8,27.8 57.8,28.6 57,29.3 
			57,29.3 57,30.1 57,30.8 57,31.6 57,31.6 57,32.3 57,33 57,33 57,33.8 57,33.8 57,34.5 57,34.5 57,35.3 57,35.3 57,35.3 57,35.3 
			57,35.3 57,35.3 57,35.3 57,35.3 57,35.3 57,35.3 57,35.3 57,34.5 57,33.8 57,33.8 57,33 57.8,32.3 57.8,31.6 57.8,31.6 
			57.8,30.8 57.8,30.8 57.8,30.1 57.8,30.1 57.8,29.3 57.8,29.3 57.8,29.3 57.8,28.6 		"/>
		<polygon points="57,36.8 57,36.8 57,36.8 57,36.8 57,36.8 57,36.8 57,36.8 57,36.8 57,36.8 57,36.8 57,36.8 57,36.8 		"/>
		<polygon points="57,26.3 57,25.6 57,25.6 57,26.3 57,26.3 57,26.3 57,26.3 57,26.3 57,26.3 57,26.3 		"/>
		<polygon points="56.3,33.8 56.3,32.3 56.3,33 55.5,36 56.3,35.3 56.3,33.8 56.3,33.8 56.3,33.8 56.3,33.8 		"/>
		<polygon points="56.3,31.6 56.3,30.8 56.3,30.8 56.3,31.6 56.3,31.6 56.3,31.6 56.3,31.6 56.3,31.6 56.3,31.6 		"/>
		<polygon points="55.5,22.6 55.5,22.6 55.5,22.6 55.5,22.6 55.5,22.6 53.3,22.6 53.3,22.6 53.3,22.6 53.3,22.6 53.3,22.6 
			52.5,22.6 52.5,22.6 52.5,22.6 52.5,22.6 52.5,22.6 52.5,22.6 52.5,22.6 52.5,23.3 52.5,23.3 54.8,23.3 54.8,23.3 54.8,23.3 
			54.8,23.3 54.8,23.3 52.5,23.3 54.8,24.1 54.8,24.1 54.8,24.1 54.8,24.1 54.8,24.1 54,24.8 54,24.8 54,25.6 53.3,25.6 53.3,25.6 
			53.3,25.6 54,25.6 54,25.6 54,26.3 53.3,26.3 54,26.3 54,25.6 54,25.6 54,25.6 54,24.8 54.8,24.8 55.5,22.6 55.5,22.6 55.5,22.6 
			55.5,22.6 		"/>
		<polygon points="54.8,12.9 52.5,12.9 52.5,13.6 54.8,14.4 54.8,12.9 54.8,12.9 54.8,12.9 54.8,12.9 		"/>
		<polygon points="55.5,-0.5 55.5,-0.5 55.5,-0.5 55.5,-0.5 55.5,-1.3 55.5,-1.3 55.5,-1.3 53.3,-1.3 53.3,-0.5 53.3,-0.5 
			53.3,-0.5 53.3,-0.5 53.3,-0.5 55.5,-0.5 55.5,-0.5 55.5,-0.5 55.5,-0.5 		"/>
		<polygon points="54,12.1 54,11.4 51.8,11.4 51.8,12.1 54,12.1 54,12.1 54,12.1 54,12.1 		"/>
		<polygon points="54,9.2 54,7.7 51.8,8.4 51.8,9.2 51.8,9.2 51.8,8.4 51.8,8.4 51.8,8.4 52.5,9.2 52.5,9.2 52.5,9.2 52.5,9.2 
			52.5,9.2 54,9.2 54,9.2 54,9.2 54,9.2 		"/>
		<polygon points="54,3.2 54,2.4 52.5,2.4 52.5,2.4 52.5,2.4 52.5,3.2 53.3,3.2 53.3,3.2 53.3,3.2 53.3,3.2 53.3,3.2 53.3,3.2 
			53.3,3.2 52.5,3.2 52.5,3.2 53.3,3.2 53.3,3.2 53.3,3.2 53.3,3.2 53.3,3.2 54,3.2 54,3.2 54,3.2 54,3.2 		"/>
		<polygon points="54,-2 54,-2 54,-2 54,-2 54,-2.8 52.5,-2 52.5,-2 52.5,-2 52.5,-2 52.5,-2 52.5,-2 52.5,-2 52.5,-2 52.5,-2 
			52.5,-2 52.5,-2 52.5,-2 52.5,-2 52.5,-2 52.5,-2 52.5,-1.3 51.8,-1.3 54,-2 		"/>
		<polygon points="53.3,18.9 53.3,18.9 53.3,18.1 53.3,18.1 53.3,18.1 53.3,18.1 53.3,18.1 53.3,18.1 52.5,18.1 52.5,18.1 
			52.5,18.1 52.5,18.1 52.5,18.1 51,18.1 51,18.1 51,18.1 51,18.1 51,18.1 52.5,18.9 		"/>
		<polygon points="53.3,5.4 53.3,5.4 53.3,5.4 53.3,5.4 53.3,4.7 52.5,4.7 52.5,5.4 52.5,5.4 52.5,5.4 53.3,5.4 53.3,5.4 53.3,5.4 
			53.3,5.4 53.3,5.4 53.3,5.4 53.3,5.4 53.3,5.4 		"/>
		<polygon points="53.3,5.4 53.3,5.4 53.3,5.4 53.3,5.4 53.3,5.4 52.5,5.4 53.3,5.4 53.3,5.4 53.3,5.4 53.3,6.2 53.3,6.2 53.3,6.2 
			53.3,6.2 53.3,6.2 53.3,6.2 53.3,5.4 53.3,5.4 		"/>
		<polygon points="52.5,36 52.5,36 52.5,36 52.5,36 52.5,36 51.8,36 51.8,36 51.8,36 52.5,36 		"/>
		<path d="M53.3,2.4h-0.8H53.3z"/>
		<polygon points="52.5,10.6 52.5,10.6 52.5,10.6 52.5,9.9 52.5,9.9 51.8,9.9 51.8,10.6 52.5,10.6 52.5,10.6 52.5,10.6 52.5,10.6 		
			"/>
		<polygon points="51.8,12.9 51.8,13.6 51.8,13.6 51.8,13.6 51.8,13.6 51.8,13.6 51.8,13.6 51.8,13.6 51.8,13.6 		"/>
		<polygon points="52.5,-0.5 52.5,-0.5 52.5,-0.5 52.5,-0.5 52.5,-0.5 52.5,-0.5 52.5,-0.5 52.5,-0.5 51.8,-0.5 51.8,-0.5 
			51.8,-0.5 51.8,-0.5 51.8,-0.5 52.5,-0.5 52.5,-0.5 52.5,-0.5 52.5,-0.5 		"/>
		<polygon points="44.3,36.8 43.5,36.8 43.5,36.8 43.5,36.8 43.5,36.8 		"/>
		<polygon points="39,43.5 39,43.5 39,43.5 39,43.5 39,43.5 39,43.5 39,43.5 39,43.5 39,43.5 39,43.5 39,43.5 39,43.5 39,43.5 		"/>
		<polygon points="36.8,43.5 36.8,43.5 36,43.5 36,43.5 36,44.2 36,44.2 36,44.2 36,44.2 36,44.2 36,44.2 36,44.2 36,44.2 36,44.2 
			36.8,44.2 36.8,44.2 36.8,43.5 		"/>
	</g>
</g>
<g>
	<polygon points="106.4,48.6 118.5,48.6 112.5,44.5 	"/>
	<g>
		<path d="M47.6-14.4c-5.1,0-9.2,3.4-9.6,7.6h0v55.1h19.2V-6.7h0C56.8-11,52.7-14.4,47.6-14.4z"/>
		<polygon points="109.5,7.9 75,7.9 66.8,16.9 59.9,31.9 59.9,48.4 93.8,48.4 94.5,48.4 94.5,31.9 94.6,31.9 101.1,16.9 		"/>
		<polygon points="104.5,47.5 110.9,43.1 104.5,38.6 		"/>
		<polygon points="106.6,37.7 112.6,41.9 118.6,37.7 		"/>
		<polygon points="120.8,47.5 120.8,38.6 114.3,43.1 		"/>
		<path d="M121.2,16.9l-7.5-8c0,0-0.3-0.4-0.9-0.4c-0.6,0-1,0.4-1,0.4l-7.7,8l-6.8,15v16.5h5.3V35.8h20.2v12.6h5.3V31.9L121.2,16.9z
			 M118.4,29.3h-11.5v-9.6h11.5L118.4,29.3L118.4,29.3z"/>
		<rect x="108.8" y="21.7" width="7.6" height="5.7"/>
	</g>
</g>
</svg>
