<?xml version="1.0" encoding="utf-8"?>
<!-- Generator: Adobe Illustrator 19.1.0, SVG Export Plug-In . SVG Version: 6.00 Build 0)  -->
<svg version="1.1" id="Layer_1" xmlns="http://www.w3.org/2000/svg" xmlns:xlink="http://www.w3.org/1999/xlink" x="0px" y="0px"
	 viewBox="812.2 -0.9 790.9 318.9" style="enable-background:new 812.2 -0.9 790.9 318.9;" xml:space="preserve">
<path d="M989.5,219.8c0-29.1-14.3-56.3-38.3-72.9l-4.9-3.3l4.6-3.7c18.6-15.1,29.2-37.5,29.2-61.5c0-43.7-35.6-79.3-79.3-79.3
	c-43.7,0-79.3,35.6-79.3,79.3c0,24,10.7,46.5,29.5,61.7l4.6,3.7l-4.8,3.4c-23.9,16.6-38.1,43.7-38.1,72.7v4.8h-0.5v89.2H989v-84.6
	C989.3,226,989.5,222.9,989.5,219.8z"/>
<path d="M1194,219.8c0-29.1-14.3-56.3-38.4-72.9l-4.9-3.3l4.6-3.7c18.6-15.1,29.2-37.5,29.2-61.5c0-43.7-35.6-79.3-79.3-79.3
	s-79.3,35.6-79.3,79.3c0,24,10.7,46.5,29.5,61.7l4.6,3.7l-4.8,3.4c-23.9,16.6-38.1,43.7-38.1,72.7v4.8h-0.5v89.2h176.9v-84.6
	C1193.8,226,1194,222.9,1194,219.8z"/>
<path d="M1398.5,221.9c0-29.1-14.3-56.3-38.4-72.9l-4.9-3.3l4.6-3.7c18.6-15.1,29.2-37.6,29.2-61.5c0-43.7-35.6-79.3-79.3-79.3
	s-79.3,35.6-79.3,79.3c0,24,10.7,46.5,29.5,61.7l4.6,3.7l-4.8,3.4c-23.9,16.6-38.1,43.7-38.1,72.7v4.8h-0.5V316H1398v-84.7
	C1398.3,228.1,1398.5,224.9,1398.5,221.9z"/>
<path d="M1564.6,151.1l-4.8-3.3l4.6-3.7c18.6-15.1,29.2-37.6,29.2-61.5c0-43.7-35.6-79.3-79.3-79.3c-43.7,0-79.3,35.6-79.3,79.3
	c0,24,10.7,46.5,29.5,61.7l4.6,3.7l-4.8,3.4c-23.8,16.6-38.1,43.7-38.1,72.7v4.8h-0.5V318h176.9v-84.6c0.3-3.1,0.5-6.3,0.5-9.4
	C1603,194.9,1588.7,167.6,1564.6,151.1z"/>
</svg>
