<?xml version="1.0" encoding="utf-8"?>
<!-- Generator: Adobe Illustrator 23.1.1, SVG Export Plug-In . SVG Version: 6.00 Build 0)  -->
<svg version="1.1" id="Layer_1" xmlns="http://www.w3.org/2000/svg" xmlns:xlink="http://www.w3.org/1999/xlink" x="0px" y="0px"
	 viewBox="0 0 790.9 318.9" style="enable-background:new 0 0 790.9 318.9;" xml:space="preserve">
<style type="text/css">
	.st0{fill:#999999;}
</style>
<path class="st0" d="M177.3,220.7c0-29.1-14.3-56.3-38.3-72.9l-4.9-3.3l4.6-3.7c18.6-15.1,29.2-37.5,29.2-61.5
	C167.9,35.6,132.3,0,88.6,0S9.3,35.6,9.3,79.3c0,24,10.7,46.5,29.5,61.7l4.6,3.7l-4.8,3.4c-23.9,16.6-38.1,43.7-38.1,72.7v4.8H0
	v89.2h176.8v-84.6C177.1,226.9,177.3,223.8,177.3,220.7z"/>
<path class="st0" d="M381.8,220.7c0-29.1-14.3-56.3-38.4-72.9l-4.9-3.3l4.6-3.7c18.6-15.1,29.2-37.5,29.2-61.5
	C372.3,35.6,336.7,0,293,0s-79.3,35.6-79.3,79.3c0,24,10.7,46.5,29.5,61.7l4.6,3.7l-4.8,3.4c-23.9,16.6-38.1,43.7-38.1,72.7v4.8
	h-0.5v89.2h176.9v-84.6C381.6,226.9,381.8,223.8,381.8,220.7z"/>
<path class="st0" d="M586.3,222.8c0-29.1-14.3-56.3-38.4-72.9l-4.9-3.3l4.6-3.7c18.6-15.1,29.2-37.6,29.2-61.5
	c0-43.7-35.6-79.3-79.3-79.3s-79.3,35.6-79.3,79.3c0,24,10.7,46.5,29.5,61.7l4.6,3.7l-4.8,3.4c-23.9,16.6-38.1,43.7-38.1,72.7v4.8
	h-0.5v89.2h176.9v-84.7C586.1,229,586.3,225.8,586.3,222.8z"/>
<path class="st0" d="M752.4,152l-4.8-3.3l4.6-3.7c18.6-15.1,29.2-37.6,29.2-61.5c0-43.7-35.6-79.3-79.3-79.3
	c-43.7,0-79.3,35.6-79.3,79.3c0,24,10.7,46.5,29.5,61.7l4.6,3.7l-4.8,3.4C628.3,168.9,614,196,614,225v4.8h-0.5v89.1h176.9v-84.6
	c0.3-3.1,0.5-6.3,0.5-9.4C790.8,195.8,776.5,168.5,752.4,152z"/>
</svg>
