<?xml version="1.0" encoding="utf-8"?>
<!-- Generator: Adobe Illustrator 18.1.1, SVG Export Plug-In . SVG Version: 6.00 Build 0)  -->
<svg version="1.1" id="Layer_1" xmlns="http://www.w3.org/2000/svg" xmlns:xlink="http://www.w3.org/1999/xlink" x="0px" y="0px"
	 viewBox="0 0 1224 792" enable-background="new 0 0 1224 792" xml:space="preserve">
<path d="M394.5,598.8c0-29.1-14.3-56.3-38.3-72.9l-4.9-3.3l4.6-3.7c18.6-15.1,29.2-37.5,29.2-61.5c0-43.7-35.6-79.3-79.3-79.3
	c-43.7,0-79.3,35.6-79.3,79.3c0,24,10.7,46.5,29.5,61.7l4.6,3.7l-4.8,3.4c-23.9,16.6-38.1,43.7-38.1,72.7l0,4.8h-0.5v89.2H394
	l0-84.6C394.3,605,394.5,601.9,394.5,598.8z"/>
<path d="M599,598.8c0-29.1-14.3-56.3-38.4-72.9l-4.9-3.3l4.6-3.7c18.6-15.1,29.2-37.5,29.2-61.5c0-43.7-35.6-79.3-79.3-79.3
	c-43.7,0-79.3,35.6-79.3,79.3c0,24,10.7,46.5,29.5,61.7l4.6,3.7l-4.8,3.4c-23.9,16.6-38.1,43.7-38.1,72.7l0,4.8h-0.5v89.2h176.9
	l0-84.6C598.8,605,599,601.9,599,598.8z"/>
<path d="M803.5,600.9c0-29.1-14.3-56.3-38.4-72.9l-4.9-3.3l4.6-3.7c18.6-15.1,29.2-37.6,29.2-61.5c0-43.7-35.6-79.3-79.3-79.3
	c-43.7,0-79.3,35.6-79.3,79.3c0,24,10.7,46.5,29.5,61.7l4.6,3.7l-4.8,3.4c-23.9,16.6-38.1,43.7-38.1,72.7l0,4.8h-0.5v89.2H803
	l0-84.7C803.3,607.1,803.5,603.9,803.5,600.9z"/>
<path d="M969.6,530.1l-4.8-3.3l4.6-3.7c18.6-15.1,29.2-37.6,29.2-61.5c0-43.7-35.6-79.3-79.3-79.3c-43.7,0-79.3,35.6-79.3,79.3
	c0,24,10.7,46.5,29.5,61.7l4.6,3.7l-4.8,3.4c-23.8,16.6-38.1,43.7-38.1,72.7l0,4.8h-0.5V697h176.9l0-84.6c0.3-3.1,0.5-6.3,0.5-9.4
	C1008,573.9,993.7,546.6,969.6,530.1z"/>
</svg>
