<?xml version="1.0" encoding="utf-8"?>
<!-- Generator: Adobe Illustrator 19.1.0, SVG Export Plug-In . SVG Version: 6.00 Build 0)  -->
<svg version="1.1" id="Layer_1" xmlns="http://www.w3.org/2000/svg" xmlns:xlink="http://www.w3.org/1999/xlink" x="0px" y="0px"
	 viewBox="128 -59.5 289.1 153.5" style="enable-background:new 128 -59.5 289.1 153.5;" xml:space="preserve">
<style type="text/css">
	.st0{fill:#010101;}
	.st1{fill:none;stroke:#000000;stroke-width:4;stroke-miterlimit:10;}
	.st2{fill:#010101;stroke:#FFFFFF;stroke-width:4;stroke-miterlimit:10;}
</style>
<polygon class="st0" points="278.1,32 205.2,-33.6 203.4,-35.2 201.6,-33.6 129.9,32.1 128,33.9 129.9,35.5 142.2,46.4 144,48.1 
	145.8,46.4 203.4,-8 261.8,46.1 263.6,47.7 265.4,46.1 278,35.4 280,33.7 "/>
<polygon class="st0" points="262.1,93.4 262.1,49.7 260,47.7 203.4,-4.7 147.7,48 145.9,49.7 145.9,93.4 183,93.4 183,37.5 
	225,37.5 225,93.4 "/>
<ellipse class="st0" cx="213" cy="69.6" rx="3.9" ry="3.6"/>
<polygon class="st0" points="259.7,93.4 259.7,47.8 371.3,47.8 371.3,93.4 348.6,93.4 348.6,56.9 281.1,56.9 281.1,93.4 "/>
<rect x="262.8" y="35.6" class="st0" width="108.6" height="23.4"/>
<line class="st1" x1="304.9" y1="90.4" x2="325.6" y2="90.4"/>
<polygon class="st0" points="374.6,7.7 313.8,-57.9 312.3,-59.5 310.8,-57.9 251,7.8 249.5,9.6 251.1,11.2 261.3,22.2 262.9,23.8 
	264.3,22.1 312.3,-32.3 361.1,21.8 362.5,23.4 364,21.8 374.6,11.1 376.3,9.4 "/>
<polygon class="st0" points="361.3,48.1 361.3,25.4 359.6,23.5 312.4,-29 265.9,23.8 264.4,25.5 264.4,48.1 295.4,48.1 295.4,13.2 
	330.3,13.2 330.3,48.1 "/>
<path class="st2" d="M387.7,93.9v-20c0-1.1,0.8-1.6,1.9-1.4c3,0.5,6.5,0.5,9.7-0.3c8.7-2.4,14.9-9.7,15.7-18.7s-3.8-16.8-10.8-20.9
	c-0.3-0.3-0.5-0.5-0.5-1.1c0.8-3.8,0.8-8.1-1.1-12.5c-3.5-8.4-11.7-14.1-20.9-13.5c-11.7,0.5-20.9,10-20.9,21.7c0,1.6,0.3,3,0.5,4.6
	c0,0.5,0,0.8-0.5,1.1c-7,4.1-11.7,11.9-10.8,20.9c0.8,9.2,7.6,16.5,16.5,18.7c3.2,0.8,6.2,0.8,9.2,0.3c0.8-0.3,1.9,0.5,1.9,1.4V94"
	/>
</svg>
