<?xml version="1.0" encoding="utf-8"?>
<!-- Generator: Adobe Illustrator 18.1.1, SVG Export Plug-In . SVG Version: 6.00 Build 0)  -->
<svg version="1.1" id="Layer_1" xmlns="http://www.w3.org/2000/svg" xmlns:xlink="http://www.w3.org/1999/xlink" x="0px" y="0px"
	 viewBox="0 0 1224 792" enable-background="new 0 0 1224 792" xml:space="preserve">
<polygon points="719.1,382.3 388.8,85.4 380.7,78 372.6,85.4 47.8,383.1 39.3,390.9 47.9,398.5 103.7,448 112,455.3 120,447.7 
	380.8,201.1 645.5,446.2 653.3,453.5 661.5,446.5 718.9,398 728,390.2 "/>
<polygon points="646.8,660.6 646.8,462.7 637.2,453.8 380.9,216.4 128.3,455.2 120.2,462.9 120.2,660.6 288.5,660.6 288.5,407.3 
	478.6,407.3 478.6,660.6 "/>
<ellipse cx="437.8" cy="552.7" rx="17.8" ry="16.5"/>
<g>
	<path d="M772.2,665.4v-78.3c0-1.3-1.3-2.5-2.5-3.8c-37.9-25.2-64.4-68.2-64.4-117.4c0-41.7,17.7-79.5,48-104.8
		c1.3-1.3,2.5-2.5,2.5-5c0-1.3,0-2.5,0-3.8c0-32.8,11.4-63.1,31.6-87.1c1.3-2.5,1.3-5-1.3-6.3c-11.4-3.8-22.7-6.3-35.3-7.6
		c-45.4,0-84.6,30.3-97.2,73.2c-5,16.4-5,32.8-1.3,48c0,2.5,0,3.8-2.5,5c-32.8,18.9-54.3,55.5-50.5,97.2c3.8,37.9,36.6,77,73.2,87.1
		c17.7,5,34.1,5,49.2,1.3c2.5-1.3,5,1.3,5,3.8v98.6"/>
	<path d="M918.7,665V572c0-5,3.8-7.6,8.8-6.3c13.9,2.5,30.3,2.5,45.4-1.3c40.4-11.4,69.4-45.4,73.2-87.1s-17.7-78.3-50.5-97.2
		c-1.3-1.3-2.5-2.5-2.5-5c3.8-17.7,3.8-37.9-5-58.1c-16.4-39.1-54.3-65.6-97.2-63.1c-54.3,2.5-97.2,46.7-97.2,101
		c0,7.6,1.3,13.9,2.5,21.5c0,2.5,0,3.8-2.5,5c-32.8,18.9-54.3,55.5-50.5,97.2c3.8,42.9,35.3,77,77,87.1c15.1,3.8,29,3.8,42.9,1.3
		c3.8-1.3,8.8,2.5,8.8,6.3v92.2"/>
	<path d="M1062.6,663.8v-99.4c0,0,2.5-1.3,3.8,0c15.1,3.8,30.3,5,48,0c41.7-10.1,73.2-45.4,77-87.1s-17.7-79.5-50.5-98.5
		c-1.3-1.3-2.5-2.5-2.5-3.8c5-21.5,3.8-45.4-11.4-70.7c-15.1-26.5-40.4-44.2-70.7-49.2c-18.9-2.5-36.6,0-53,6.3
		c-2.5,1.3-3.8,3.8-1.3,6.3c18.9,21.5,31.6,51.8,31.6,85.8c0,1.3,0,2.5,0,3.8s0,2.5,1.3,2.5c31.6,26.5,49.2,64.4,49.2,106
		c0,49.2-25.2,90.9-63.1,116.1c-1.3,1.3-2.5,2.5-2.5,5v77"/>
</g>
</svg>
