<svg xmlns="http://www.w3.org/2000/svg" xmlns:xlink="http://www.w3.org/1999/xlink" version="1.1" x="0px" y="0px" viewBox="0 0 48 48" enable-background="new 0 0 48 48" xml:space="preserve"><g><path fill="#000000" d="M37.6,30.6c1.2,0.3,2.4,0.4,3.8,0c3.3-0.8,5.8-3.6,6.1-6.9c0.3-3.3-1.4-6.3-4-7.8c-0.1-0.1-0.2-0.2-0.2-0.3   c0.4-1.7,0.3-3.6-0.9-5.6c-1.2-2.1-3.2-3.5-5.6-3.9c-1.5-0.2-2.9,0-4.2,0.5c-0.2,0.1-0.3,0.3-0.1,0.5C34,8.8,35,11.2,35,13.9   c0,0.1,0,0.2,0,0.3c0,0.1,0,0.2,0.1,0.2c2.5,2.1,3.9,5.1,3.9,8.4c0,3.9-2,7.2-5,9.2c-0.1,0.1-0.2,0.2-0.2,0.4l0,6.1   c0,0.2-0.1,0.3-0.3,0.3h-7.3c-0.2,0-0.3-0.1-0.3-0.3v-7.3c0-0.4,0.3-0.6,0.7-0.5c1.1,0.2,2.4,0.2,3.6-0.1c3.2-0.9,5.5-3.6,5.8-6.9   c0.3-3.3-1.4-6.2-4-7.7c-0.1-0.1-0.2-0.2-0.2-0.4c0.3-1.4,0.3-3-0.4-4.6c-1.3-3.1-4.3-5.2-7.7-5c-4.3,0.2-7.7,3.7-7.7,8   c0,0.6,0.1,1.1,0.2,1.7c0,0.2,0,0.3-0.2,0.4c-2.6,1.5-4.3,4.4-4,7.7c0.3,3.4,2.8,6.1,6.1,6.9c1.2,0.3,2.3,0.3,3.4,0.1   c0.3-0.1,0.7,0.2,0.7,0.5v7.3c0,0.2-0.1,0.3-0.3,0.3h-7.3c-0.2,0-0.3-0.1-0.3-0.3l0-6.2c0-0.1-0.1-0.2-0.2-0.3   C11.1,30.1,9,26.7,9,22.8c0-3.3,1.4-6.3,3.8-8.3c0.1-0.1,0.2-0.2,0.2-0.4c0-0.1,0-0.2,0-0.3c0-2.6,0.9-5,2.5-6.9   c0.1-0.2,0.1-0.4-0.1-0.5c-0.9-0.3-1.8-0.5-2.8-0.6c-3.6,0-6.7,2.4-7.7,5.8c-0.4,1.3-0.4,2.6-0.1,3.8c0,0.2,0,0.3-0.2,0.4   c-2.6,1.5-4.3,4.4-4,7.7c0.3,3,2.9,6.1,5.8,6.9c1.4,0.4,2.7,0.4,3.9,0.1c0.2-0.1,0.4,0.1,0.4,0.3l0,7.6c0,0.2-0.1,0.3-0.3,0.3H2.7   c-0.2,0-0.3,0.1-0.3,0.3v2.6c0,0.2,0.1,0.3,0.3,0.3h44.4c0.2,0,0.3-0.1,0.3-0.3v-2.6c0-0.2-0.1-0.3-0.3-0.3h-9.5   c-0.2,0-0.3-0.1-0.3-0.3l0-7.8C37.3,30.6,37.5,30.5,37.6,30.6z"></path></g></svg>