<svg xmlns="http://www.w3.org/2000/svg" xmlns:xlink="http://www.w3.org/1999/xlink" version="1.1" x="0px" y="0px" viewBox="0 0 100 100" enable-background="new 0 0 100 100" xml:space="preserve"><g><path d="M76.807,73.834c-6.369,0-12.141,2.572-16.33,6.735c4.469,2.974,6.594,8.539,5.17,16.431h34.328   C99.975,84.205,89.602,73.834,76.807,73.834z"></path><path d="M51.088,82.439C43.046,82.439,36.53,88.96,36.53,97h29.116C65.646,88.96,59.126,82.439,51.088,82.439z"></path></g><polygon points="86.682,8.988 86.682,3.25 67.216,3.25 67.216,8.988 54.658,8.988 54.675,11.671 54.671,11.671 54.671,50.426   60.847,56.482 60.847,15.357 67.496,15.357 67.496,67.202 73.672,67.202 73.672,15.357 80.333,15.357 80.333,67.202 86.509,67.202   86.509,15.357 93.605,15.357 93.605,71.563 99.975,77.113 99.975,8.988 "></polygon><g><path d="M51.084,56.997H21.633L18.368,97h11.793c0-11.539,9.388-20.925,20.927-20.925c1.51,0,2.98,0.167,4.4,0.473l0.503-0.497   c1.522-1.512,3.187-2.818,4.95-3.945v-4.903L51.084,56.997z"></path><path d="M0,41.467V97h17.96h0.353V41.467L9.079,18.91L0,41.467z M13.874,50.455c0,2.547-2.064,4.615-4.619,4.615   c-2.55,0-4.615-2.068-4.615-4.615c0-2.55,2.064-4.614,4.615-4.614C11.81,45.841,13.874,47.905,13.874,50.455z"></path></g></svg>