<svg xmlns="http://www.w3.org/2000/svg" width="50.925" height="60.06" viewBox="0 0 50.925 60.06">
  <g id="Group_4090" data-name="Group 4090" transform="translate(-350 -453)">
    <g id="Group_1715" data-name="Group 1715" transform="translate(350 453)">
      <path id="Path_325" data-name="Path 325" d="M165.834,138.393H131.346A2.346,2.346,0,0,1,129,136.046V92.409a2.346,2.346,0,0,1,2.346-2.346h34.488a2.346,2.346,0,0,1,2.346,2.346v43.637A2.346,2.346,0,0,1,165.834,138.393Z" transform="translate(-118.435 -79.498)" fill="#ffc870"/>
      <path id="Path_326" data-name="Path 326" d="M125.834,98.393H91.346A2.346,2.346,0,0,1,89,96.046V52.409a2.346,2.346,0,0,1,2.346-2.346h34.488a2.346,2.346,0,0,1,2.346,2.346V96.046A2.346,2.346,0,0,1,125.834,98.393Z" transform="translate(-83.127 -44.19)" fill="#ffdaa0"/>
      <path id="Path_327" data-name="Path 327" d="M85.771,58.33H51.283a2.346,2.346,0,0,1-2.346-2.346V12.346A2.346,2.346,0,0,1,51.283,10H85.771a2.346,2.346,0,0,1,2.346,2.346V55.983A2.346,2.346,0,0,1,85.771,58.33Z" transform="translate(-47.764 -8.827)" fill="#fff"/>
      <rect id="Rectangle_1555" data-name="Rectangle 1555" width="11.205" height="11.205" transform="translate(7.422 9.953)" fill="#007000"/>
      <path id="Path_328" data-name="Path 328" d="M76.944,50.676H42.456a3.523,3.523,0,0,1-3.519-3.519V25.377a1.173,1.173,0,0,1,2.346,0v21.78a1.174,1.174,0,0,0,1.173,1.173H76.944a1.174,1.174,0,0,0,1.173-1.173V3.519a1.174,1.174,0,0,0-1.173-1.173H42.456a1.174,1.174,0,0,0-1.173,1.173V15.484a1.173,1.173,0,0,1-2.346,0V3.519A3.523,3.523,0,0,1,42.456,0H76.944a3.523,3.523,0,0,1,3.519,3.519V47.157A3.523,3.523,0,0,1,76.944,50.676Z" transform="translate(-38.937)"/>
      <path id="Path_329" data-name="Path 329" d="M40.11,169.126a1.174,1.174,0,1,1,.829-.344A1.182,1.182,0,0,1,40.11,169.126Z" transform="translate(-38.937 -147.216)"/>
      <path id="Path_330" data-name="Path 330" d="M80.169,454.406a1.173,1.173,0,1,1,.829-.344A1.176,1.176,0,0,1,80.169,454.406Z" transform="translate(-74.297 -399.031)"/>
      <path id="Path_331" data-name="Path 331" d="M152.315,90.739H120.173a1.173,1.173,0,0,1,0-2.346h32.142a1.174,1.174,0,0,0,1.173-1.173V41.236a1.173,1.173,0,1,1,2.346,0V87.22A3.523,3.523,0,0,1,152.315,90.739Z" transform="translate(-109.608 -35.363)"/>
      <path id="Path_332" data-name="Path 332" d="M157.07,130.676H120.236a1.173,1.173,0,0,1,0-2.346H157.07a1.174,1.174,0,0,0,1.173-1.173V81.173a1.173,1.173,0,0,1,2.346,0v45.983A3.523,3.523,0,0,1,157.07,130.676Z" transform="translate(-109.664 -70.616)"/>
      <path id="Path_333" data-name="Path 333" d="M107.371,87.607H96.11a1.173,1.173,0,0,1-1.173-1.173V75.173A1.173,1.173,0,0,1,96.11,74h11.261a1.173,1.173,0,0,1,1.173,1.173V86.434A1.173,1.173,0,0,1,107.371,87.607ZM97.283,85.261H106.2V76.346H97.283Z" transform="translate(-88.368 -65.319)"/>
      <path id="Path_334" data-name="Path 334" d="M102.056,238.767h0a1.173,1.173,0,0,1-.829-.344l-2.279-2.279a1.173,1.173,0,0,1,1.659-1.659l1.45,1.45,3.118-3.118a1.173,1.173,0,0,1,1.659,1.659l-3.948,3.948A1.174,1.174,0,0,1,102.056,238.767Z" transform="translate(-91.604 -205.203)"/>
      <path id="Path_335" data-name="Path 335" d="M220.8,251.346H207.11a1.173,1.173,0,1,1,0-2.346H220.8a1.173,1.173,0,0,1,0,2.346Z" transform="translate(-186.347 -219.791)"/>
      <path id="Path_336" data-name="Path 336" d="M256.321,76.346H248.11a1.173,1.173,0,0,1,0-2.346h8.211a1.173,1.173,0,0,1,0,2.346Z" transform="translate(-222.538 -65.319)"/>
      <path id="Path_337" data-name="Path 337" d="M256.321,124.346H248.11a1.173,1.173,0,0,1,0-2.346h8.211a1.173,1.173,0,0,1,0,2.346Z" transform="translate(-222.538 -107.689)"/>
      <path id="Path_338" data-name="Path 338" d="M256.321,172.346H248.11a1.173,1.173,0,0,1,0-2.346h8.211a1.173,1.173,0,0,1,0,2.346Z" transform="translate(-222.538 -150.058)"/>
      <path id="Path_339" data-name="Path 339" d="M102.056,315.134h0a1.173,1.173,0,0,1-.829-.344l-2.279-2.279a1.173,1.173,0,0,1,1.659-1.659l1.45,1.45,3.118-3.118a1.173,1.173,0,0,1,1.659,1.659l-3.948,3.948A1.174,1.174,0,0,1,102.056,315.134Z" transform="translate(-91.604 -272.612)"/>
      <path id="Path_340" data-name="Path 340" d="M220.8,327.346H207.11a1.173,1.173,0,1,1,0-2.346H220.8a1.173,1.173,0,0,1,0,2.346Z" transform="translate(-186.347 -286.876)"/>
    </g>
  </g>
</svg>
