<?xml version="1.0" encoding="utf-8"?>
<!-- Generator: Adobe Illustrator 23.1.1, SVG Export Plug-In . SVG Version: 6.00 Build 0)  -->
<svg version="1.1" id="Layer_1" xmlns="http://www.w3.org/2000/svg" xmlns:xlink="http://www.w3.org/1999/xlink" x="0px" y="0px"
	 viewBox="0 0 99.9 78.1" style="enable-background:new 0 0 99.9 78.1;" xml:space="preserve">
<style type="text/css">
	.st0{fill:#102E52;}
</style>
<path class="st0" d="M52.2,25.4c-0.6-1.3-0.9-2.8-0.9-4.3c0-5,3.4-9.3,8-10.7c0-0.1,0-0.2,0-0.4c0-5.5-4.5-10-10-10s-10,4.5-10,10
	c0,0.1,0,0.2,0,0.2c4.8,1.2,8.4,5.6,8.4,10.8c0,1.4-0.3,2.7-0.7,4c0.6-0.1,1.2-0.1,1.8-0.1C50,24.9,51.1,25.1,52.2,25.4z"/>
<path class="st0" d="M45.7,25.4c0.6-1.3,1-2.8,1-4.3c0-5.5-4.5-10-10-10s-10,4.5-10,10c0,2.2,0.7,4.3,2,6c0.8,0.6,1.5,1.3,2.2,2.1
	v0.1l0,0c1.4,1.9,2.2,4.2,2.2,6.7c0,0.5,0,1-0.1,1.4c1.2-0.5,2.6-0.8,4-0.8c0.2,0,0.4,0,0.6,0c0-0.2,0-0.5,0-0.7
	C37.7,31,41,26.7,45.7,25.4z"/>
<path class="st0" d="M71.3,25.8c0.8-1.4,1.2-3,1.2-4.7c0-5.5-4.5-10-10-10s-10,4.5-10,10c0,1.8,0.5,3.5,1.4,5
	c3.6,1.8,6.1,5.6,6.1,9.9c0,0.5,0,0.9-0.1,1.4c1-0.3,2-0.4,3.1-0.4c0.5,0,1.1,0,1.6,0.1c0-0.4-0.1-0.7-0.1-1.1
	C64.4,31.4,67.3,27.4,71.3,25.8z"/>
<path class="st0" d="M75.6,26c-5.5,0-10,4.5-10,10c0,0.4,0,0.9,0.1,1.3c4.8,1.2,8.4,5.6,8.4,10.8c0,3.1-1.3,6.1-3.6,8.2
	c2.9,2.3,4.7,5.8,4.7,9.5h1.2l0,0h0.1c0.2-3.6,1.9-6.9,4.7-9.2c-2.3-2.1-3.6-5.1-3.6-8.2c0-5,3.3-9.2,7.9-10.6
	c0.1-0.6,0.1-1.1,0.1-1.7C85.6,30.5,81.1,26,75.6,26z"/>
<path class="st0" d="M48.8,26c-5.5,0-10,4.5-10,10c0,0.3,0,0.6,0,0.8c5.3,0.8,9.4,5.4,9.4,11c0,3.1-1.3,6.1-3.6,8.2
	c3,2.3,4.7,5.9,4.7,9.7c0,0,0,0,0,0.1h1.2v-0.3h0.1c0.2-3.6,1.9-6.9,4.7-9.2c-2.3-2.1-3.6-5.1-3.6-8.2c0-4.6,2.8-8.6,6.9-10.3
	c0.1-0.6,0.2-1.2,0.2-1.8C58.8,30.5,54.3,26,48.8,26z"/>
<path class="st0" d="M22,26c-5.5,0-10,4.5-10,10c0,0.2,0,0.5,0,0.7c5.8,0.4,10.3,5.2,10.3,11.1c0,3.1-1.3,6.1-3.6,8.2
	c3,2.3,4.7,5.9,4.7,9.7c0,0,0,0,0,0.1h1.2v-0.6h0.1c0.2-3.6,1.9-6.9,4.7-9.2c-2.3-2.1-3.6-5.1-3.6-8.2c0-4.2,2.4-7.9,5.9-9.8
	c0.1-0.7,0.2-1.3,0.2-2C32,30.5,27.5,26,22,26z"/>
<path class="st0" d="M22.4,65.7c0-3.7-1.8-7.1-4.8-9.2L17,56.1l0.6-0.5c2.3-1.9,3.7-4.7,3.7-7.8c0-5.5-4.5-10-10-10s-10,4.5-10,10
	c0,3,1.4,5.9,3.7,7.8l0.6,0.5l-0.7,0.4c-3,2.1-4.8,5.5-4.8,9.2v0.6H0v11.3h22.3V66.9C22.4,66.5,22.4,66.1,22.4,65.7z"/>
<path class="st0" d="M48.3,65.7c0-3.7-1.8-7.1-4.8-9.2l-0.7-0.4l0.6-0.5c2.3-1.9,3.7-4.7,3.7-7.8c0-5.5-4.5-10-10-10s-10,4.5-10,10
	c0,3,1.4,5.9,3.7,7.8l0.6,0.5l-0.6,0.4c-3,2.1-4.8,5.5-4.8,9.2v0.6h-0.1v11.3h22.3V66.9C48.2,66.5,48.3,66.1,48.3,65.7z"/>
<path class="st0" d="M74.1,66c0-3.7-1.8-7.1-4.8-9.2l-0.6-0.4l0.6-0.5c2.3-1.9,3.7-4.7,3.7-7.8c0-5.5-4.5-10-10-10s-10,4.5-10,10
	c0,3,1.4,5.9,3.7,7.8l0.6,0.5l-0.6,0.4c-3,2.1-4.8,5.5-4.8,9.2v0.6h-0.1v11.3h22.3V67.2C74.1,66.8,74.1,66.4,74.1,66z"/>
<path class="st0" d="M95.1,57l-0.6-0.4l0.6-0.5c2.3-1.9,3.7-4.7,3.7-7.8c0-5.5-4.5-10-10-10s-10,4.5-10,10c0,3,1.4,5.9,3.7,7.8
	l0.6,0.5L82.5,57c-3,2.1-4.8,5.5-4.8,9.2v0.6h-0.1v11.3h22.3V67.4c0-0.4,0.1-0.8,0.1-1.2C99.9,62.6,98.1,59.1,95.1,57z"/>
</svg>
