<?xml version="1.0" encoding="utf-8"?>
<!-- Generator: Adobe Illustrator 23.1.1, SVG Export Plug-In . SVG Version: 6.00 Build 0)  -->
<svg version="1.1" id="Layer_1" xmlns="http://www.w3.org/2000/svg" xmlns:xlink="http://www.w3.org/1999/xlink" x="0px" y="0px"
	 viewBox="0 0 90 63" style="enable-background:new 0 0 90 63;" xml:space="preserve">
<style type="text/css">
	.st0{display:none;}
	.st1{display:inline;}
	.st2{fill:#102E52;}
</style>
<g class="st0">
	<g class="st1">
		<polygon points="94,60.1 94,60.1 94,60.1 94,60.1 94,60.1 93.3,59.4 93.3,59.4 93.3,59.4 93.3,59.4 93.3,59.4 93.3,59.4 
			93.3,59.4 93.3,59.4 93.3,59.4 92.5,59.4 92.5,59.4 92.5,59.4 92.5,59.4 91.8,58.6 90.3,58.6 90.3,57.9 90.3,57.9 89.5,57.9 
			89.5,57.9 89.5,57.9 89.5,57.9 89.5,57.9 89.5,57.9 88.8,57.9 88,57.9 88,57.9 88,57.9 88,57.9 88,57.2 88,57.2 87.3,57.2 
			87.3,57.2 87.3,57.2 87.3,57.2 87.3,57.2 87.3,57.2 87.3,57.2 85,57.2 85,57.2 85,57.2 85,57.2 85,57.2 85,57.2 85,57.2 85,57.2 
			85,56.4 85,56.4 85,56.4 85,56.4 85,56.4 85,56.4 85,56.4 85,56.4 85,56.4 82.8,56.4 82.8,56.4 82.8,56.4 82.8,56.4 82.8,56.4 
			82.8,56.4 82.8,56.4 82.8,56.4 82.8,56.4 82.8,56.4 82.8,56.4 82,55.7 82,55.7 82,55.7 82,55.7 82,55.7 82,55.7 82,55.7 82,55.7 
			82,55.7 82,55.7 79.8,55.7 79.8,55.7 79.8,55.7 79.8,55.7 79.8,55.7 79.8,55.7 79.8,55.7 79.8,55.7 80.5,55.7 79.8,55.7 
			79.8,55.7 79.8,55.7 79.8,55.7 79.8,55.7 80.5,55.7 80.5,55.7 80.5,54.9 80.5,54.9 80.5,54.9 79,54.9 79,54.9 79,54.9 79,54.9 
			79.8,54.9 79,54.9 79,54.9 79,54.9 78.3,54.9 79,51.2 79,51.2 79,51.2 79,51.2 79,51.2 79,50.4 79,49.7 79.8,48.9 79.8,48.2 
			79.8,47.4 79.8,46.7 79.8,46 79.8,46 79.8,45.2 79.8,44.5 79.8,43.7 79.8,43 79.8,43 79.8,42.2 80.5,41.5 80.5,40.7 80.5,40.7 
			80.5,40.7 80.5,40.7 80.5,40.7 81.3,40 81.3,40 81.3,40 81.3,40 81.3,40 81.3,40 81.3,40 81.3,40 81.3,40 82,40.7 82,40 82,40 
			82,40 82,40 82,40 82,39.2 82,39.2 82,39.2 82,38.5 82,38.5 82,37.7 82,37.7 81.3,37 81.3,36.2 81.3,35.5 81.3,35.5 81.3,34.8 
			81.3,34.8 81.3,34 81.3,34 81.3,34 81.3,33.3 81.3,33.3 81.3,32.5 80.5,32.5 80.5,31.8 80.5,31 80.5,30.3 80.5,30.3 80.5,29.5 
			80.5,28.8 79.8,28.8 79.8,28 79.8,28 79.8,27.3 79.8,26.5 79.8,26.5 79.8,26.5 79.8,26.5 79.8,26.5 79,21.3 79,21.3 79,21.3 
			79,21.3 79,21.3 79,20.6 79,20.6 79,20.6 79,20.6 77.5,19.1 75.3,16.1 75.3,16.1 74.5,15.3 74.5,14.6 73.8,14.6 73.8,13.9 
			73,13.9 73,13.1 72.3,13.1 72.3,12.4 72.3,12.4 71.5,11.6 71.5,11.6 70.8,11.6 70.8,11.6 70,11.6 70,11.6 69.3,11.6 69.3,11.6 
			69.3,11.6 68.5,11.6 68.5,11.6 67.8,11.6 67.8,11.6 67,12.4 67,12.4 66.3,12.4 66.3,12.4 65.5,12.4 64.8,12.4 64.8,12.4 64,12.4 
			63.3,12.4 63.3,12.4 62.5,13.1 61.8,13.1 61.8,13.1 61,12.4 61,12.4 61,12.4 61,12.4 61.8,12.4 61.8,11.6 61.8,11.6 61.8,11.6 
			61.8,11.6 61.8,11.6 61.8,11.6 61.8,11.6 61.8,11.6 61.8,11.6 61.8,11.6 61.8,10.9 61,10.9 60.3,10.9 60.3,10.1 59.5,10.9 
			59.5,10.9 58.8,10.9 58.8,10.9 58,10.9 58,11.6 58,11.6 57.3,11.6 57.3,11.6 57.3,11.6 57.3,11.6 57.3,12.4 57.3,12.4 57.3,12.4 
			58,12.4 58,12.4 58,12.4 58,12.4 58,12.4 58,12.4 57.3,13.9 57.3,13.9 57.3,13.9 57.3,13.9 56.5,13.9 56.5,13.9 56.5,13.9 
			56.5,13.9 56.5,13.9 56.5,13.9 55.8,14.6 55,14.6 54.3,14.6 53.5,14.6 53.5,14.6 52.8,14.6 52,15.3 50.5,15.3 49,15.3 47.5,16.1 
			46,16.1 44.5,16.8 42.3,16.8 40.8,17.6 39.3,17.6 37.8,18.3 36.3,18.3 34.8,19.1 33.3,19.1 31,19.1 29.5,19.8 28,19.8 26.5,20.6 
			26.5,20.6 25.8,21.3 25,21.3 25,22.1 25,21.3 25,21.3 25,21.3 25,21.3 25,21.3 25,20.6 25,20.6 25,20.6 25,19.8 25,19.1 25,19.1 
			25,19.1 25,19.1 25,19.1 25,15.3 25,14.6 25.8,12.4 25.8,11.6 26.5,10.9 26.5,10.9 27.3,10.9 27.3,10.9 27.3,10.1 28,10.1 
			28,10.1 28,10.1 28,10.1 28,9.4 28,9.4 28,9.4 28,9.4 28,9.4 28.8,9.4 28,8.6 28,8.6 28,8.6 28,8.6 28,8.6 28,7.9 27.3,7.1 
			27.3,7.1 26.5,7.1 25.8,6.4 25,6.4 25,6.4 24.3,5.6 24.3,5.6 23.5,5.6 22.8,5.6 22.8,4.9 22,4.9 22,4.1 21.3,4.1 21.3,4.1 
			20.5,4.1 20.5,3.4 20.5,3.4 20.5,3.4 20.5,3.4 19.8,3.4 19.8,3.4 19.8,3.4 19,3.4 19,3.4 19,3.4 18.3,4.1 18.3,4.1 17.5,4.1 
			17.5,4.1 17.5,4.1 16.8,4.1 16,4.9 16,4.9 15.3,4.9 14.5,5.6 13.8,5.6 13.8,5.6 13,5.6 13,5.6 12.3,5.6 12.3,6.4 11.5,6.4 
			11.5,6.4 11.5,6.4 10.8,6.4 10.8,6.4 10.8,6.4 10.8,7.1 10.8,7.1 10,7.1 10.8,7.1 10,7.9 10.8,7.9 10.8,8.6 10.8,8.6 10.8,9.4 
			10.8,9.4 10.8,9.4 10.8,9.4 10.8,9.4 11.5,9.4 12.3,12.4 12.3,13.1 12.3,13.1 12.3,13.1 11.5,13.9 11.5,13.9 11.5,14.6 11.5,14.6 
			11.5,15.3 11.5,15.3 11.5,16.1 11.5,16.1 11.5,16.1 11.5,16.8 11.5,16.8 11.5,16.8 11.5,17.6 11.5,17.6 11.5,17.6 11.5,18.3 
			11.5,18.3 11.5,19.1 11.5,19.1 11.5,19.1 11.5,19.1 10.8,21.3 10.8,21.3 10.8,21.3 10.8,21.3 10.8,21.3 10.8,22.1 10.8,22.1 
			10.8,22.1 10.8,22.1 10.8,22.1 10.8,22.1 10.8,22.8 10.8,22.8 10.8,23.6 10.8,23.6 10.8,24.3 10.8,24.3 10.8,25 10.8,25 
			10.8,25.8 10.8,25.8 10.8,26.5 10.8,26.5 10.8,26.5 10.8,26.5 10.8,26.5 10,28.8 10,32.5 9.3,33.3 9.3,33.3 10,33.3 10,33.3 
			10,33.3 10,34 9.3,35.5 9.3,35.5 9.3,35.5 10,35.5 10,35.5 10,36.2 9.3,36.2 9.3,36.2 9.3,36.2 9.3,37.7 8.5,37.7 8.5,37.7 
			8.5,37.7 8.5,37.7 8.5,37.7 9.3,37.7 9.3,37.7 9.3,38.5 9.3,38.5 9.3,38.5 9.3,39.2 9.3,39.2 9.3,39.2 9.3,40 9.3,40 9.3,40.7 
			9.3,40.7 9.3,40.7 9.3,40.7 9.3,40.7 9.3,41.5 8.5,41.5 8.5,41.5 8.5,42.2 8.5,42.2 8.5,42.2 8.5,43 8.5,43 8.5,43 8.5,43.7 
			8.5,43.7 8.5,43.7 8.5,43.7 8.5,43.7 8.5,43.7 8.5,43.7 8.5,44.5 8.5,44.5 8.5,45.2 8.5,45.2 8.5,46 8.5,46 8.5,46 8.5,46.7 
			8.5,46.7 7.8,46.7 7.8,47.4 7.8,47.4 7.8,48.2 8.5,48.2 8.5,48.2 8.5,48.2 8.5,48.2 8.5,48.2 8.5,48.2 8.5,48.2 8.5,48.2 
			7.8,48.2 7.8,49.7 7.8,49.7 7.8,49.7 7.8,49.7 7,49.7 7,49.7 7,49.7 7,50.4 7,50.4 7,50.4 7,50.4 7,49.7 7,49.7 7,49.7 7,49.7 
			7,49.7 7,49.7 7,49.7 7,49.7 6.3,49.7 6.3,49.7 7,50.4 7,50.4 7,50.4 7,50.4 7,50.4 7,50.4 7,50.4 7,50.4 6.3,50.4 6.3,50.4 
			6.3,49.7 5.5,49.7 5.5,49.7 5.5,49.7 5.5,49.7 5.5,50.4 5.5,50.4 5.5,50.4 6.3,50.4 6.3,50.4 6.3,50.4 6.3,50.4 6.3,50.4 
			6.3,50.4 5.5,50.4 4.8,50.4 4.8,50.4 4.8,50.4 4.8,50.4 4.8,50.4 4.8,50.4 4.8,50.4 4.8,50.4 4.8,50.4 4.8,50.4 4.8,50.4 
			4.8,50.4 4.8,50.4 4.8,51.2 4.8,50.4 4.8,50.4 4,50.4 4,50.4 4,51.2 4,51.2 4,51.2 4,51.2 4,51.2 4,51.2 4,51.2 4,51.2 4,51.2 
			4,51.2 4,51.2 4,51.2 4,51.2 4,51.2 4,51.2 2.5,51.2 1.8,51.2 1.8,51.2 1.8,51.2 1.8,51.2 1.8,51.2 1.8,51.9 1.8,51.9 1.8,51.9 
			1.8,51.9 1.8,51.2 1.8,51.2 1,51.2 1,51.2 1,51.2 1,51.2 1,51.2 1,51.2 1,51.2 0.3,51.2 0.3,51.2 0.3,51.2 0.3,51.2 0.3,51.2 
			0.3,51.2 0.3,51.2 0.3,51.9 0.3,51.9 1,51.9 1,51.9 1,51.9 1,51.9 1,51.9 1,51.9 1.8,51.9 1.8,51.9 1.8,51.9 1.8,52.7 1.8,52.7 
			1.8,52.7 1.8,51.9 1.8,51.9 2.5,51.9 2.5,51.9 2.5,51.9 2.5,51.9 2.5,51.9 2.5,51.9 2.5,51.9 2.5,52.7 2.5,52.7 2.5,52.7 
			2.5,52.7 2.5,52.7 2.5,52.7 3.3,52.7 3.3,51.9 3.3,51.9 2.5,51.2 2.5,51.2 2.5,51.2 2.5,51.2 3.3,51.2 3.3,51.2 3.3,51.9 
			3.3,51.9 3.3,51.9 4,51.9 4,51.9 4,51.9 4,51.9 4,51.9 4,51.9 4,51.9 4,51.9 4,51.9 5.5,51.9 5.5,51.9 5.5,51.9 6.3,51.9 
			6.3,51.9 6.3,51.9 6.3,51.9 6.3,51.9 6.3,51.9 6.3,51.9 6.3,51.9 5.5,51.9 6.3,51.2 6.3,51.9 6.3,51.9 6.3,51.9 6.3,51.9 
			6.3,51.2 6.3,51.2 6.3,51.2 7.8,51.2 7.8,51.2 7.8,51.2 7.8,51.2 7.8,51.2 7.8,51.2 7.8,51.2 7.8,51.2 7.8,51.2 7.8,51.2 
			7.8,51.2 7.8,51.2 7.8,51.2 7.8,51.2 7.8,51.2 7.8,51.2 8.5,51.2 8.5,51.2 9.3,51.2 9.3,51.2 10,51.2 10,51.2 10,51.2 10,51.2 
			10,51.2 10,51.2 10,51.2 10.8,51.9 10.8,51.9 10.8,51.9 10.8,51.2 10.8,51.2 10.8,51.2 10.8,51.2 11.5,51.2 11.5,51.2 11.5,51.2 
			11.5,51.9 12.3,51.2 12.3,51.2 12.3,51.2 12.3,51.2 12.3,51.2 12.3,51.2 12.3,51.2 12.3,51.2 12.3,51.2 12.3,51.2 13,51.2 
			13,51.2 13,51.2 13,51.2 13.8,51.2 13.8,51.2 13.8,51.2 13.8,51.2 13.8,51.2 13.8,51.2 13.8,51.2 13.8,51.2 13.8,51.2 13.8,51.2 
			13.8,51.2 13.8,51.2 14.5,51.2 14.5,51.2 14.5,51.2 14.5,51.2 14.5,51.2 14.5,51.2 14.5,51.2 14.5,51.2 14.5,51.2 14.5,50.4 
			14.5,50.4 14.5,50.4 14.5,50.4 14.5,50.4 15.3,50.4 15.3,50.4 15.3,51.2 15.3,51.2 15.3,51.2 15.3,51.2 15.3,51.2 15.3,50.4 
			15.3,50.4 15.3,50.4 15.3,51.2 16,51.2 16,51.2 16,51.2 16,51.2 16,50.4 16,50.4 16,50.4 16,50.4 16,50.4 16,50.4 16,50.4 
			16,50.4 16,50.4 16,50.4 16.8,50.4 16.8,50.4 16.8,50.4 16.8,50.4 16.8,50.4 17.5,51.2 17.5,51.2 17.5,51.2 17.5,51.2 17.5,51.2 
			17.5,51.2 17.5,51.2 18.3,51.2 18.3,51.2 19,51.2 19,51.2 19,51.2 19,51.2 19,51.2 19.8,51.2 19.8,51.2 19.8,51.2 19.8,51.2 
			19.8,51.2 19.8,51.2 19.8,51.2 19.8,51.2 19.8,51.2 19.8,51.2 19.8,51.2 19.8,51.2 19.8,51.2 19.8,51.2 19.8,51.2 19.8,51.2 
			19.8,51.2 19.8,51.2 19.8,51.2 19.8,51.2 19.8,51.2 21.3,51.2 21.3,51.9 21.3,51.9 21.3,51.2 21.3,51.2 21.3,51.2 22,51.9 
			22,51.2 23.5,51.9 23.5,51.9 23.5,51.9 23.5,51.9 23.5,51.9 24.3,51.9 24.3,51.9 24.3,51.9 24.3,51.9 25,51.9 25,51.9 25,51.9 
			25,51.2 25.8,51.2 25.8,51.2 25.8,51.9 25.8,51.9 25.8,51.9 25.8,51.9 25.8,51.9 25.8,51.9 25.8,51.9 25.8,51.9 25.8,51.9 
			26.5,51.9 26.5,51.9 27.3,51.9 27.3,51.9 28,51.9 28,51.9 28,51.9 28.8,51.9 28.8,51.9 28.8,51.9 29.5,51.9 29.5,51.9 30.3,51.9 
			30.3,51.9 31,51.9 31,51.9 31.8,51.9 31.8,51.9 31.8,51.9 31.8,51.9 31.8,51.9 31.8,51.9 35.5,51.9 35.5,51.9 35.5,51.9 
			35.5,51.9 35.5,51.9 36.3,51.9 37,51.9 38.5,51.2 38.5,51.9 38.5,51.9 38.5,51.9 38.5,51.9 37.8,51.9 37.8,51.9 37.8,51.9 
			37.8,51.9 37.8,51.9 37.8,51.9 38.5,51.9 38.5,51.9 39.3,51.9 39.3,51.9 39.3,51.9 39.3,51.9 38.5,51.9 38.5,51.9 39.3,51.9 
			39.3,52.7 39.3,52.7 39.3,51.9 40,51.9 40,51.9 40.8,52.7 40.8,52.7 40.8,52.7 40.8,52.7 40.8,52.7 40.8,52.7 40.8,52.7 
			40.8,52.7 41.5,52.7 41.5,52.7 43,52.7 43,53.4 43,53.4 43,53.4 43,53.4 43.8,53.4 43.8,53.4 43.8,53.4 43.8,53.4 43.8,53.4 
			43.8,53.4 43.8,53.4 43.8,53.4 43.8,52.7 45.3,52.7 45.3,52.7 45.3,52.7 45.3,52.7 46,52.7 46,52.7 46,52.7 46,52.7 46,52.7 
			46,52.7 46,52.7 46,52.7 46,52.7 46,52.7 46,52.7 46.8,52.7 46.8,52.7 47.5,52.7 47.5,52.7 47.5,54.2 48.3,52.7 48.3,52.7 
			48.3,52.7 48.3,52.7 48.3,52.7 48.3,52.7 48.3,52.7 48.3,52.7 48.3,52.7 48.3,52.7 48.3,52.7 48.3,52.7 49,52.7 49,52.7 49,52.7 
			49,52.7 49,53.4 49.8,53.4 49.8,53.4 49.8,52.7 49.8,53.4 50.5,52.7 51.3,53.4 52,53.4 52,53.4 52.8,53.4 52.8,52.7 52.8,52.7 
			52.8,52.7 52.8,52.7 52.8,52.7 52.8,53.4 52.8,53.4 52.8,53.4 52.8,53.4 52.8,53.4 53.5,53.4 54.3,53.4 54.3,53.4 54.3,53.4 
			55,53.4 55,53.4 55,53.4 55,53.4 55,53.4 55.8,53.4 55.8,53.4 57.3,53.4 57.3,53.4 57.3,53.4 57.3,54.2 57.3,54.2 58,54.2 
			58.8,54.2 58.8,54.2 59.5,54.2 61,54.2 61,54.2 61,54.2 61,54.2 61,54.2 61,54.2 61,54.2 61,54.9 61,54.9 61,54.9 61.8,54.9 
			61.8,54.9 61.8,54.9 61.8,54.9 62.5,54.9 62.5,54.9 63.3,54.9 63.3,54.9 63.3,54.9 63.3,54.9 63.3,55.7 63.3,55.7 64.8,55.7 
			64,56.4 64.8,56.4 64.8,56.4 64.8,56.4 64.8,57.2 65.5,57.2 65.5,57.2 66.3,57.2 67,57.2 64.8,56.4 66.3,56.4 66.3,56.4 
			66.3,56.4 66.3,56.4 65.5,55.7 64.8,55.7 64.8,55.7 64,54.9 64,54.9 64,54.9 64,54.9 64,54.2 64,54.2 64,54.2 64,54.2 64,54.2 
			64,54.2 64,54.2 64,54.2 64.8,54.2 64.8,54.2 65.5,54.2 65.5,54.2 66.3,54.2 66.3,54.2 67,54.2 67,54.2 67,54.2 67,54.2 67,54.2 
			67.8,54.2 67.8,54.2 67.8,54.2 68.5,54.2 68.5,54.2 69.3,54.2 69.3,54.2 70,54.2 70,54.9 73,54.9 73,54.9 73,54.9 73,54.9 
			73,54.9 73.8,54.9 73.8,54.9 73.8,54.9 73.8,54.9 73.8,54.9 73.8,54.9 73.8,54.9 73.8,54.9 73.8,54.9 73.8,54.9 73.8,54.9 
			73.8,54.9 73.8,54.9 74.5,54.9 74.5,54.9 74.5,54.9 74.5,54.9 74.5,54.9 74.5,54.9 74.5,54.9 74.5,54.9 75.3,54.9 75.3,54.9 
			75.3,54.9 75.3,54.9 75.3,54.9 75.3,54.9 75.3,54.9 75.3,54.9 76,54.9 76,54.9 76,54.9 76,54.9 76,54.9 76,54.9 76,54.9 76,54.9 
			76,54.9 76,54.9 76,54.9 76,54.9 76,54.9 76,55.7 76.8,55.7 76.8,55.7 76.8,55.7 76.8,55.7 76.8,55.7 76.8,55.7 76.8,55.7 
			76.8,55.7 76.8,55.7 77.5,55.7 77.5,55.7 77.5,55.7 77.5,55.7 77.5,55.7 77.5,55.7 77.5,55.7 77.5,55.7 77.5,55.7 77.5,55.7 
			77.5,56.4 77.5,56.4 78.3,56.4 78.3,56.4 79,56.4 79,56.4 79,56.4 79.8,56.4 79.8,56.4 79.8,56.4 79.8,56.4 79.8,56.4 79.8,57.2 
			80.5,57.2 80.5,57.2 81.3,57.2 81.3,57.2 82,57.2 82.8,57.2 82.8,57.2 83.5,57.2 83.5,57.2 84.3,57.2 84.3,57.2 84.3,57.9 
			85,57.9 85,57.9 85,57.9 85.8,57.9 85.8,57.9 85.8,57.9 85.8,57.9 85.8,57.9 86.5,57.9 87.3,57.9 87.3,58.6 88,58.6 88.8,58.6 
			89.5,58.6 90.3,59.4 91,59.4 91.8,59.4 91.8,59.4 91.8,59.4 91.8,59.4 91.8,59.4 91.8,59.4 92.5,59.4 92.5,59.4 92.5,59.4 
			94,60.1 94,60.1 94,60.1 94,60.1 94,60.1 94,60.1 94,60.1 		"/>
		<polygon points="85.8,57.2 85.8,57.2 85.8,57.2 85.8,57.2 85.8,57.2 85.8,57.2 85.8,57.2 		"/>
		<polygon points="81.3,55.7 81.3,55.7 81.3,55.7 81.3,55.7 81.3,55.7 81.3,55.7 81.3,55.7 		"/>
		<path d="M81.3,55.7h-0.8H81.3z"/>
		<polygon points="81.3,39.2 79.8,29.5 79,25 79,22.8 79,22.8 79,22.8 79,22.8 79,22.8 79,22.1 78.3,22.1 78.3,21.3 78.3,21.3 
			78.3,21.3 78.3,20.6 78.3,20.6 78.3,19.8 76.8,19.1 76,18.3 75.3,17.6 75.3,16.8 74.5,16.1 73.8,15.3 73,14.6 72.3,13.9 
			72.3,13.1 71.5,13.1 71.5,12.4 71.5,12.4 70.8,11.6 70,12.4 65.5,14.6 65.5,14.6 65.5,14.6 65.5,14.6 65.5,15.3 64.8,15.3 
			64.8,15.3 64.8,15.3 64.8,15.3 64.8,15.3 59.5,18.3 58.8,19.8 55,26.5 55,27.3 55,27.3 54.3,28 53.5,30.3 53.5,30.3 53.5,30.3 
			53.5,30.3 53.5,30.3 52.8,30.3 49,37.7 49.8,37.7 49.8,37.7 50.5,37 50.5,37 50.5,36.2 50.5,36.2 51.3,35.5 51.3,35.5 51.3,34.8 
			52,34 52.8,32.5 52.8,31 53.5,30.3 54.3,28.8 55,28 55.8,26.5 56.5,25.8 56.5,25 56.5,25 56.5,24.3 57.3,24.3 57.3,23.6 
			57.3,23.6 57.3,23.6 58,22.8 59.5,19.1 59.5,19.1 59.5,19.1 59.5,19.1 59.5,19.1 61,18.3 62.5,17.6 64,16.1 64.8,15.3 66.3,14.6 
			67.8,13.9 69.3,13.1 70.8,12.4 70.8,13.1 71.5,13.1 72.3,13.9 72.3,14.6 73,15.3 73,15.3 73.8,16.1 74.5,16.8 74.5,16.8 
			74.5,16.8 75.3,17.6 75.3,17.6 75.3,18.3 76,18.3 76,19.1 76.8,19.1 76.8,19.8 77.5,19.8 77.5,19.8 77.5,20.6 78.3,20.6 
			78.3,21.3 78.3,21.3 78.3,21.3 78.3,22.1 78.3,22.8 78.3,22.8 78.3,23.6 78.3,23.6 78.3,24.3 79,25 79,25 79,25.8 79,26.5 
			79,27.3 79,28 79,28.8 79.8,29.5 79.8,31 79.8,31.8 79.8,32.5 79.8,33.3 79.8,34 79.8,34.8 80.5,35.5 80.5,37 80.5,37.7 
			80.5,38.5 80.5,39.2 80.5,39.2 81.3,39.2 81.3,39.2 81.3,39.2 81.3,39.2 81.3,39.2 81.3,39.2 81.3,39.2 81.3,39.2 81.3,39.2 		"/>
		<polygon points="79.8,39.2 79,34.8 79,35.5 78.3,35.5 78.3,35.5 78.3,35.5 78.3,35.5 79,34.8 79,34 79,34 79,33.3 79,32.5 
			79,32.5 79,31.8 78.3,31 78.3,33.3 78.3,35.5 77.5,36.2 77.5,35.5 77.5,34.8 77.5,34 77.5,33.3 78.3,31.8 78.3,31 78.3,30.3 
			78.3,29.5 78.3,29.5 78.3,28.8 78.3,28.8 78.3,28 78.3,28 78.3,28 77.5,27.3 77.5,27.3 77.5,26.5 77.5,26.5 77.5,26.5 77.5,26.5 
			77.5,26.5 76.8,21.3 76,20.6 75.3,19.1 74.5,18.3 73,17.6 72.3,16.1 71.5,15.3 70.8,14.6 70,13.9 70,13.9 70,13.9 70,13.9 
			70,13.9 69.3,13.9 68.5,13.9 67,14.6 66.3,15.3 64.8,16.1 64,16.8 62.5,17.6 61.8,18.3 60.3,19.1 60.3,19.1 60.3,19.8 60.3,19.8 
			60.3,19.8 59.5,19.8 59.5,20.6 59.5,21.3 58.8,21.3 58.8,22.1 58,22.8 57.3,24.3 57.3,25 56.5,25.8 56.5,26.5 55.8,27.3 55,28 
			55,28 55,28 55,28 55,28.8 55,28.8 55,28.8 55,28.8 55,28.8 54.3,29.5 53.5,31 53.5,31 53.5,31 53.5,31 53.5,31 53.5,31.8 
			53.5,31.8 53.5,32.5 52.8,32.5 52.8,33.3 52.8,33.3 52.8,34 52.8,34 52,34.8 52,34.8 52,35.5 52,36.2 51.3,36.2 51.3,36.2 
			51.3,36.2 51.3,37 51.3,41.5 51.3,41.5 51.3,41.5 51.3,41.5 51.3,41.5 51.3,41.5 51.3,41.5 51.3,41.5 51.3,41.5 51.3,42.2 
			51.3,43 51.3,43.7 51.3,45.2 51.3,46 51.3,46.7 51.3,47.4 51.3,48.2 51.3,48.2 51.3,48.2 51.3,48.9 51.3,48.9 51.3,51.2 
			51.3,51.2 51.3,50.4 51.3,50.4 51.3,50.4 51.3,50.4 51.3,50.4 51.3,50.4 51.3,50.4 51.3,50.4 51.3,51.2 52,49.7 52,49.7 52,49.7 
			52,49.7 52,49.7 52,49.7 52,49.7 52,49.7 52,50.4 52.8,48.2 52.8,48.2 52.8,48.2 52.8,48.2 52.8,48.2 52.8,48.2 52.8,51.2 
			52.8,51.9 52.8,50.4 53.5,49.7 53.5,48.9 53.5,47.4 53.5,46.7 53.5,45.2 53.5,44.5 54.3,43 54.3,43 54.3,43 54.3,42.2 54.3,42.2 
			54.3,42.2 54.3,42.2 54.3,42.2 54.3,42.2 54.3,43.7 54.3,43.7 55,43.7 55,43.7 55,43.7 55,42.2 55,42.2 55,42.2 55,42.2 55,42.2 
			55,42.2 55,43 55,43 55,43.7 55,43.7 55,43.7 55,43.7 55.8,43.7 55.8,43.7 55.8,43.7 55.8,43 55.8,43 55.8,43 55.8,42.2 
			55.8,42.2 55.8,42.2 55.8,42.2 55.8,42.2 55.8,42.2 55.8,42.2 55.8,42.2 55.8,42.2 55.8,42.2 55.8,42.2 55.8,42.2 55.8,42.2 
			55.8,43.7 55.8,43.7 56.5,43.7 56.5,43.7 56.5,43.7 56.5,43 56.5,42.2 56.5,40.7 57.3,40 57.3,39.2 57.3,38.5 57.3,37.7 57.3,37 
			57.3,35.5 57.3,34.8 57.3,34 57.3,33.3 57.3,32.5 58,31.8 58,30.3 58,29.5 58,29.5 58,28.8 58,28 58,28 58,28 58,28 58,28 58,28 
			58,28 58,28 58,28 58.8,28 58.8,28 58.8,28.8 58.8,28.8 58.8,29.5 58.8,29.5 58,30.3 58,30.3 58,31 58,31.8 58,31.8 58,32.5 
			58,33.3 58,34 58,34.8 58,34.8 58,35.5 57.3,36.2 57.3,37.7 57.3,38.5 57.3,39.2 57.3,40 57.3,40.7 57.3,41.5 57.3,42.2 57.3,43 
			57.3,43 57.3,43.7 57.3,43.7 57.3,43.7 57.3,43.7 57.3,43.7 57.3,43.7 57.3,43.7 57.3,43 57.3,43 58,42.2 58,42.2 58,43 58,43 
			58,43 58,43 58,43.7 58,43.7 58,43.7 58,43.7 58.8,42.2 58.8,42.2 58.8,42.2 58.8,42.2 58.8,42.2 58.8,43.7 58.8,43.7 58.8,43.7 
			58.8,43.7 58.8,43.7 58.8,43.7 58.8,43.7 58.8,43.7 59.5,43.7 59.5,43.7 59.5,43.7 59.5,43.7 59.5,44.5 59.5,44.5 59.5,44.5 
			59.5,45.2 59.5,45.2 59.5,46 59.5,46.7 59.5,47.4 59.5,48.2 58.8,48.9 58.8,48.9 58.8,49.7 58.8,50.4 58,50.4 58,50.4 57.3,50.4 
			57.3,50.4 56.5,50.4 56.5,51.9 56.5,51.9 57.3,51.9 57.3,51.9 57.3,51.9 57.3,51.9 57.3,51.9 57.3,51.9 57.3,51.9 57.3,51.9 
			57.3,51.9 57.3,51.9 57.3,51.9 57.3,51.2 57.3,51.2 57.3,51.2 57.3,51.2 57.3,51.2 57.3,51.2 57.3,52.7 58,51.2 58,51.2 58,51.2 
			58,51.2 58,51.9 58,51.9 58,51.9 58,52.7 58,52.7 58.8,52.7 58.8,53.4 59.5,53.4 59.5,53.4 59.5,52.7 59.5,52.7 61,40.7 61,40.7 
			61,40.7 61,40.7 61,40.7 61.8,40.7 61.8,40 62.5,40 62.5,39.2 62.5,39.2 62.5,38.5 62.5,38.5 62.5,38.5 62.5,37.7 62.5,37.7 
			62.5,37 62.5,36.2 62.5,36.2 62.5,35.5 63.3,34.8 63.3,34.8 63.3,34 63.3,34 63.3,34 63.3,34 63.3,34 63.3,34 63.3,34 63.3,34 
			63.3,34 63.3,34 63.3,34.8 63.3,34.8 63.3,34.8 63.3,35.5 62.5,40.7 64,40 64,40 64.8,40 65.5,34.8 65.5,34.8 65.5,34.8 
			65.5,34.8 65.5,34.8 65.5,34.8 65.5,34.8 65.5,34.8 65.5,34.8 65.5,35.5 65.5,36.2 65.5,37 65.5,37.7 65.5,38.5 65.5,39.2 
			64.8,39.2 64.8,40 64.8,40 65.5,40.7 65.5,40.7 65.5,40.7 67,35.5 67,35.5 67,35.5 67,35.5 67,35.5 67,36.2 67,37 67,37.7 
			66.3,38.5 66.3,38.5 66.3,39.2 66.3,40 66.3,40.7 67.8,40.7 72.3,41.5 73,37.7 73,37.7 73,37.7 73,37.7 73,37.7 73,38.5 73,38.5 
			73,39.2 73,39.2 73,40 73,40 73,40.7 73,40.7 73,41.5 73,41.5 73,41.5 73,41.5 73,41.5 73,41.5 73.8,41.5 73.8,41.5 74.5,41.5 
			74.5,41.5 74.5,41.5 75.3,41.5 75.3,40 75.3,39.2 75.3,39.2 75.3,39.2 75.3,39.2 75.3,40 76,40 75.3,40 75.3,40.7 75.3,40.7 
			75.3,41.5 75.3,41.5 75.3,41.5 75.3,41.5 75.3,41.5 75.3,41.5 75.3,42.2 75.3,42.2 75.3,43.7 75.3,44.5 74.5,46 74.5,46.7 
			74.5,47.4 74.5,48.2 74.5,48.9 74.5,49.7 74.5,50.4 74.5,51.2 74.5,51.2 74.5,51.2 73.8,51.9 73.8,51.9 73.8,51.9 73.8,52.7 
			73.8,52.7 73.8,52.7 73.8,52.7 73.8,52.7 73.8,52.7 73.8,53.4 73.8,53.4 73.8,53.4 73.8,53.4 73.8,54.2 73.8,54.2 73.8,54.2 
			73.8,54.2 73.8,54.2 74.5,54.2 74.5,54.2 74.5,54.2 74.5,54.2 74.5,54.2 75.3,54.2 75.3,53.4 76,53.4 76,53.4 76,52.7 76,52.7 
			76,51.9 76,51.9 76,51.2 76,51.2 76,50.4 76,50.4 76,50.4 76,50.4 75.3,54.2 75.3,50.4 75.3,49.7 75.3,49.7 75.3,49.7 75.3,49.7 
			75.3,49.7 75.3,49.7 75.3,49.7 75.3,49.7 74.5,53.4 74.5,53.4 74.5,53.4 73.8,53.4 73.8,53.4 74.5,51.2 74.5,50.4 74.5,46.7 
			74.5,46.7 75.3,46.7 75.3,46.7 75.3,46.7 75.3,45.2 75.3,45.2 75.3,45.2 75.3,45.2 75.3,45.2 76.8,44.5 76.8,44.5 76.8,44.5 
			76.8,44.5 76.8,44.5 76.8,44.5 76.8,43.7 76.8,43 76.8,43 76.8,42.2 76.8,41.5 77.5,41.5 77.5,40.7 77.5,40.7 77.5,40.7 
			77.5,40.7 77.5,40.7 77.5,40.7 77.5,40.7 77.5,40.7 77.5,40.7 76.8,44.5 78.3,44.5 78.3,45.2 78.3,45.2 78.3,45.2 78.3,45.2 
			78.3,45.2 79,40 79,40 79,40 79,40 79,40 79,40 79.8,40 79.8,40 79.8,40.7 79,41.5 79,41.5 79,42.2 79,43 79,43.7 79,44.5 
			79,44.5 79,45.2 79,45.2 79,46 79,46 79,46 78.3,47.4 78.3,47.4 78.3,47.4 78.3,47.4 78.3,47.4 78.3,47.4 78.3,47.4 78.3,47.4 
			78.3,46.7 78.3,46.7 77.5,50.4 77.5,52.7 77.5,53.4 77.5,53.4 76.8,53.4 76.8,53.4 76.8,54.2 77.5,54.2 78.3,54.2 78.3,53.4 
			78.3,53.4 78.3,52.7 78.3,52.7 78.3,51.9 78.3,51.9 78.3,51.9 78.3,51.2 78.3,51.2 78.3,50.4 78.3,50.4 79,45.2 79,45.2 79,44.5 
			79,43.7 79,43 79,42.2 79,42.2 79.8,41.5 79.8,40.7 79.8,40.7 79.8,40 79.8,40 		"/>
		<polygon points="79,55.7 79,55.7 79,55.7 79,55.7 79,55.7 78.3,55.7 78.3,55.7 78.3,55.7 78.3,55.7 79,55.7 79,55.7 79,55.7 
			79,55.7 		"/>
		<polygon points="78.3,54.2 78.3,54.2 78.3,54.2 78.3,54.2 78.3,54.2 77.5,54.2 77.5,54.2 77.5,54.2 77.5,54.2 77.5,54.2 
			77.5,54.2 77.5,54.2 77.5,54.2 77.5,54.9 77.5,54.9 77.5,54.9 77.5,54.9 77.5,54.9 78.3,54.9 78.3,54.2 78.3,54.2 78.3,54.2 
			78.3,54.2 78.3,54.2 		"/>
		<polygon points="78.3,46.7 78.3,46.7 78.3,46.7 78.3,46.7 78.3,46 78.3,46 78.3,46.7 		"/>
		<polygon points="76.8,50.4 76.8,49.7 76.8,49.7 76.8,49.7 76.8,49.7 76.8,49.7 76.8,50.4 76.8,50.4 76.8,50.4 76.8,50.4 
			76.8,51.2 76.8,51.2 76,51.9 76,51.9 76,51.9 76,52.7 76,52.7 76,53.4 76,53.4 76,53.4 76,54.2 76,54.2 76.8,54.2 76.8,51.2 		"/>
		<polygon points="77.5,28.8 77.5,28 77.5,27.3 76.8,28 76.8,29.5 76.8,30.3 76.8,31 76.8,32.5 76.8,33.3 76.8,34 76.8,35.5 
			76.8,35.5 76.8,35.5 76.8,35.5 76.8,35.5 76.8,34.8 76.8,34 76.8,34 76.8,33.3 76.8,32.5 76.8,31.8 76.8,31 77.5,31 77.5,30.3 
			77.5,30.3 77.5,29.5 77.5,29.5 77.5,29.5 77.5,28.8 		"/>
		<polygon points="76.8,42.2 76.8,40.7 76,40.7 76,41.5 76,42.2 76,42.2 76,43 76,43.7 76,43.7 76,44.5 76,44.5 76,44.5 76,44.5 
			76,44.5 		"/>
		<polygon points="77.5,25 77.5,25 77.5,25 77.5,25 76.8,25 76,24.3 76,24.3 76,23.6 75.3,23.6 75.3,23.6 74.5,22.8 73,22.8 
			72.3,22.8 72.3,22.8 73,22.1 73,22.1 73,21.3 73,21.3 73,20.6 73,20.6 73,19.8 73,19.8 73,19.1 73,19.1 73,19.1 73,19.1 73,19.1 
			73,19.1 73,19.1 73,19.1 72.3,19.1 72.3,19.1 72.3,22.8 71.5,22.8 70.8,22.8 70.8,22.8 70,22.8 69.3,22.8 69.3,22.8 68.5,22.8 
			67.8,22.1 69.3,15.3 69.3,15.3 69.3,15.3 69.3,15.3 69.3,15.3 67.8,22.1 67,22.1 67,21.3 67,21.3 67,20.6 67,19.8 67,19.8 
			67,19.1 67,18.3 67,17.6 67,17.6 67.8,16.8 67.8,16.8 67.8,16.1 67.8,16.1 67.8,15.3 67.8,15.3 67.8,14.6 67.8,14.6 67.8,14.6 
			67.8,15.3 67.8,15.3 67,16.1 67,16.8 67,17.6 67,18.3 67,19.8 67,20.6 67,21.3 66.3,22.1 66.3,22.1 66.3,22.1 66.3,22.1 
			66.3,22.1 66.3,22.8 66.3,23.6 65.5,24.3 65.5,25 65.5,25 65.5,25.8 65.5,26.5 65.5,27.3 65.5,28 65.5,28.8 65.5,29.5 65.5,30.3 
			65.5,31 65.5,31.8 64.8,32.5 64.8,33.3 64.8,33.3 64.8,33.3 64.8,33.3 65.5,33.3 65.5,33.3 65.5,33.3 65.5,33.3 65.5,32.5 
			65.5,33.3 65.5,33.3 65.5,33.3 65.5,33.3 66.3,33.3 66.3,33.3 66.3,32.5 66.3,32.5 66.3,32.5 66.3,32.5 66.3,32.5 66.3,32.5 
			66.3,32.5 66.3,32.5 66.3,32.5 66.3,32.5 67,32.5 67,33.3 67,33.3 67,33.3 67,33.3 67,33.3 67,33.3 67,33.3 67,33.3 67,33.3 
			67.8,34 68.5,34 68.5,34 68.5,34 68.5,34 68.5,33.3 68.5,33.3 68.5,33.3 68.5,33.3 68.5,33.3 70,33.3 69.3,33.3 69.3,33.3 
			69.3,32.5 69.3,32.5 69.3,32.5 69.3,32.5 69.3,32.5 69.3,32.5 70.8,33.3 70.8,34 70.8,34 70.8,34 70.8,34 70.8,34 70.8,34 
			70.8,34 70.8,34 70.8,34 70.8,34 70.8,34 70.8,34 70.8,34 70.8,34 70.8,34 70.8,34 70.8,34 71.5,34 71.5,34 71.5,33.3 71.5,33.3 
			71.5,33.3 71.5,33.3 71.5,33.3 71.5,33.3 71.5,33.3 71.5,33.3 71.5,33.3 71.5,33.3 71.5,33.3 71.5,33.3 72.3,33.3 73,33.3 
			73,33.3 73,33.3 73,33.3 73,33.3 73,33.3 73,33.3 73,33.3 73,33.3 73,33.3 73.8,33.3 73.8,33.3 73.8,33.3 73.8,33.3 73.8,33.3 
			73.8,33.3 73.8,33.3 73.8,33.3 73.8,33.3 73.8,33.3 73.8,33.3 74.5,32.5 74.5,32.5 74.5,32.5 74.5,32.5 74.5,33.3 74.5,32.5 
			74.5,31.8 74.5,31.8 74.5,31 75.3,31 75.3,30.3 75.3,30.3 75.3,29.5 75.3,29.5 75.3,28.8 75.3,28.8 75.3,28.8 75.3,28 75.3,28 
			75.3,27.3 75.3,27.3 75.3,27.3 75.3,27.3 75.3,26.5 75.3,26.5 75.3,25.8 75.3,25.8 75.3,25.8 75.3,25.8 75.3,25.8 75.3,25 76,25 
			76,25 76.8,25 77.5,25 77.5,25 77.5,25 		"/>
		<polygon points="76.8,28 76.8,25.8 76.8,26.5 76,26.5 76,27.3 76,27.3 76,28 76,28.8 76,28.8 76,29.5 76,29.5 76,30.3 76,30.3 
			76,31 76,31 76,31.8 76,31.8 75.3,32.5 76,29.5 76,29.5 76,29.5 76,29.5 76,29.5 		"/>
		<polygon points="74.5,42.2 74.5,42.2 74.5,42.2 73.8,42.2 73,42.2 72.3,42.2 72.3,42.2 71.5,42.2 70.8,42.2 70,41.5 69.3,41.5 
			68.5,41.5 67.8,41.5 67,41.5 66.3,41.5 65.5,41.5 65.5,41.5 64.8,40.7 64,40.7 64,40.7 63.3,40.7 62.5,41.5 62.5,41.5 61.8,40.7 
			61.8,40.7 61.8,40.7 61,43 61.8,43 61.8,43.7 61.8,43.7 61.8,43.7 61.8,44.5 61.8,44.5 61.8,45.2 61.8,45.2 61.8,46 61.8,46 
			61,46.7 61,46.7 61,47.4 61,47.4 61,48.2 61,48.2 61,48.9 61,48.9 61,49.7 61,50.4 61,51.2 61,51.2 61,51.9 61,52.7 61,52.7 
			61,52.7 61,53.4 61,53.4 61,53.4 61,52.7 61,52.7 61,51.9 61,51.9 61,51.2 61,51.2 61,50.4 61.8,50.4 61.8,49.7 61.8,49.7 
			61.8,48.9 61.8,48.2 61.8,48.2 61.8,47.4 61.8,47.4 61.8,46.7 61.8,46.7 61.8,46 61.8,46 61.8,45.2 61.8,45.2 61.8,44.5 
			61.8,44.5 61.8,43.7 61.8,43.7 61.8,43.7 61.8,43.7 61.8,43.7 61.8,43.7 61.8,43 61.8,43 61.8,42.2 61.8,42.2 61.8,41.5 
			62.5,41.5 63.3,41.5 64,41.5 64.8,41.5 65.5,41.5 66.3,41.5 67,41.5 67.8,41.5 68.5,41.5 69.3,41.5 70,42.2 70.8,42.2 71.5,42.2 
			72.3,42.2 73,42.2 73.8,42.2 74.5,42.2 74.5,43 73.8,44.5 73.8,44.5 73.8,44.5 73.8,44.5 74.5,44.5 		"/>
		<polygon points="75.3,24.3 73,24.3 75.3,24.3 75.3,24.3 75.3,24.3 		"/>
		<polygon points="74.5,25.8 75.3,25 74.5,25 74.5,25 74.5,25 74.5,25 73.8,31 		"/>
		<polygon points="73.8,46 73.8,46 73.8,46 73.8,46 73.8,45.2 73.8,46 73.8,46 73.8,46 73.8,46.7 73.8,46.7 		"/>
		<polygon points="73.8,47.4 73.8,47.4 73.8,47.4 73.8,47.4 73.8,47.4 73.8,47.4 73.8,47.4 73.8,47.4 		"/>
		<polygon points="73.8,40 73.8,39.2 73.8,41.5 73.8,41.5 73.8,41.5 73.8,41.5 73.8,41.5 		"/>
		<polygon points="73.8,48.2 73.8,48.2 73.8,48.2 73.8,48.2 73.8,48.2 73.8,48.9 		"/>
		<polygon points="74.5,23.6 72.3,23.6 74.5,23.6 74.5,23.6 74.5,23.6 		"/>
		<polygon points="73,50.4 73,50.4 73,50.4 73,50.4 73,50.4 73,53.4 		"/>
		<polygon points="73.8,49.7 73.8,49.7 73.8,49.7 73,49.7 73,49.7 		"/>
		<polygon points="74.5,20.6 74.5,20.6 74.5,20.6 74.5,20.6 74.5,20.6 73.8,20.6 73.8,21.3 73.8,21.3 73.8,22.1 73.8,22.8 		"/>
		<polygon points="73.8,31.8 73.8,31.8 73.8,32.5 73.8,32.5 73.8,32.5 73.8,32.5 73.8,32.5 		"/>
		<polygon points="73,45.2 73,44.5 70,48.2 69.3,48.9 69.3,48.9 69.3,48.9 69.3,48.9 69.3,48.9 69.3,48.9 68.5,49.7 68.5,49.7 
			68.5,50.4 67.8,50.4 67.8,51.2 67.8,51.2 67,51.2 67,51.9 67,51.9 67,51.9 67,51.9 67,51.9 67,51.9 67,52.7 67,52.7 67,52.7 
			67,52.7 67,52.7 67.8,51.9 68.5,51.9 68.5,51.2 69.3,50.4 69.3,50.4 69.3,49.7 70,48.9 70,48.9 70.8,48.2 70.8,48.2 71.5,47.4 
			71.5,47.4 72.3,46.7 72.3,46 73,46 		"/>
		<polygon points="73.8,25 73.8,25 73.8,25 73.8,25 73.8,25 73.8,25 73,25 73,25 73,25 72.3,25 72.3,25 71.5,25 71.5,25 71.5,25 
			70.8,25 70.8,25 70.8,24.3 70,24.3 70,24.3 70,24.3 69.3,24.3 69.3,24.3 69.3,24.3 69.3,24.3 69.3,24.3 69.3,24.3 69.3,24.3 
			69.3,24.3 70,24.3 70,25 73.8,25 73.8,25 73.8,25 		"/>
		<polygon points="73,47.4 73,47.4 73,47.4 73,47.4 73,47.4 73,46.7 73,46.7 73,46.7 72.3,47.4 72.3,47.4 72.3,47.4 72.3,48.2 
			72.3,48.2 71.5,48.9 71.5,49.7 71.5,49.7 71.5,50.4 71.5,50.4 71.5,50.4 71.5,51.2 71.5,51.2 71.5,51.2 71.5,51.2 71.5,51.2 
			71.5,51.2 71.5,51.2 71.5,51.2 71.5,51.2 71.5,51.2 70.8,51.2 71.5,48.9 71.5,48.9 71.5,48.9 71.5,48.9 71.5,48.9 70.8,51.9 
			70.8,51.9 70.8,51.9 70.8,51.9 70.8,51.9 70.8,49.7 70.8,49.7 70,50.4 70,50.4 70,50.4 70,51.2 70,51.2 70,51.9 70,51.9 70,51.9 
			70,51.9 70,51.9 70,51.9 70,51.9 69.3,51.9 69.3,51.9 69.3,51.9 69.3,51.9 69.3,51.9 69.3,51.9 69.3,51.9 70,51.2 68.5,52.7 
			72.3,52.7 72.3,51.9 73,48.2 72.3,51.2 72.3,51.2 72.3,51.2 72.3,51.2 72.3,51.2 72.3,51.2 71.5,51.2 71.5,51.2 71.5,51.2 
			72.3,47.4 72.3,47.4 72.3,47.4 73,47.4 73,47.4 73,47.4 73,47.4 		"/>
		<polygon points="73,43 71.5,43 69.3,42.2 68.5,43 72.3,43.7 73,43 73,43 73,43 		"/>
		<polygon points="73,29.5 73,29.5 73,29.5 73,29.5 73,29.5 73,29.5 73,30.3 73,30.3 72.3,30.3 72.3,29.5 72.3,29.5 72.3,29.5 
			72.3,29.5 72.3,29.5 72.3,29.5 72.3,29.5 72.3,29.5 72.3,29.5 72.3,29.5 72.3,29.5 72.3,29.5 72.3,29.5 72.3,29.5 72.3,29.5 
			72.3,29.5 72.3,29.5 72.3,29.5 72.3,29.5 72.3,29.5 71.5,29.5 71.5,29.5 71.5,29.5 71.5,29.5 71.5,29.5 71.5,29.5 71.5,29.5 
			71.5,29.5 70.8,29.5 70.8,29.5 70,29.5 70,29.5 70,29.5 70,29.5 70,29.5 70,29.5 69.3,29.5 69.3,29.5 68.5,29.5 68.5,29.5 
			68.5,29.5 68.5,29.5 68.5,29.5 68.5,29.5 68.5,29.5 68.5,29.5 68.5,29.5 68.5,29.5 68.5,29.5 68.5,29.5 68.5,28.8 68.5,28.8 
			68.5,28.8 68.5,28.8 68.5,28.8 67,28 67,28 67,28 67,28 67,28 67,28 67,28 67,28 67,28 67.8,28.8 67.8,29.5 67.8,29.5 67.8,29.5 
			67.8,29.5 67.8,29.5 67.8,29.5 67,29.5 67,29.5 67,29.5 67,29.5 67,29.5 67,29.5 67,29.5 67,29.5 67,30.3 67,30.3 67,30.3 67,31 
			67,31 67,31.8 67,31.8 67,31.8 67,31.8 67,31.8 67,31.8 67,31.8 67,31.8 67,31.8 67,31.8 67,31.8 67,31.8 67,31.8 67,31.8 
			67,31.8 67,31.8 67,31.8 67,31.8 67,31.8 67,31.8 67,31.8 67,31.8 67,32.5 67.8,31.8 67.8,32.5 67.8,32.5 67.8,32.5 67.8,32.5 
			67.8,32.5 67.8,32.5 67.8,32.5 67.8,32.5 67.8,32.5 67.8,32.5 67.8,32.5 67.8,32.5 67.8,32.5 67.8,32.5 67.8,32.5 67.8,33.3 
			67.8,32.5 67.8,32.5 67.8,32.5 67.8,32.5 68.5,32.5 68.5,32.5 68.5,32.5 68.5,32.5 68.5,32.5 68.5,32.5 68.5,32.5 68.5,32.5 
			68.5,32.5 68.5,32.5 68.5,32.5 68.5,32.5 69.3,32.5 69.3,32.5 69.3,32.5 69.3,32.5 69.3,32.5 69.3,32.5 69.3,32.5 69.3,32.5 
			69.3,32.5 69.3,32.5 69.3,32.5 69.3,32.5 69.3,32.5 69.3,32.5 69.3,32.5 69.3,32.5 69.3,32.5 69.3,32.5 70,32.5 70,32.5 70,32.5 
			70,32.5 70,32.5 70,32.5 70,32.5 70,32.5 70,32.5 70,32.5 70,32.5 70.8,32.5 70.8,32.5 70.8,32.5 70.8,32.5 70.8,32.5 70.8,32.5 
			70.8,31.8 70.8,31.8 70.8,31.8 70.8,31.8 70.8,31.8 70.8,31.8 70.8,31.8 70.8,31.8 70.8,31.8 71.5,31.8 71.5,31.8 71.5,31.8 
			71.5,31.8 71.5,32.5 71.5,32.5 72.3,32.5 73,33.3 72.3,32.5 72.3,32.5 73,32.5 73,32.5 73,32.5 73,32.5 73,31.8 73,31.8 73,31.8 
			73,31.8 73,31.8 73,31.8 73,31.8 		"/>
		<polygon points="73,28.8 73,28.8 73,28 73,28 73,28 73,28 73,28 73,28 73,28 73,28.8 73,28.8 73,28.8 73,28.8 73,28.8 73,28.8 
			73,28.8 73,28.8 		"/>
		<polygon points="72.3,53.4 72.3,53.4 70.8,53.4 70.8,53.4 70.8,53.4 70.8,53.4 70.8,53.4 72.3,53.4 72.3,53.4 72.3,53.4 		"/>
		<polygon points="71.5,54.2 71.5,54.2 71.5,54.2 71.5,54.2 71.5,54.2 71.5,54.2 71.5,54.2 71.5,54.2 		"/>
		<polygon points="72.3,44.5 70,43.7 68.5,43.7 68.5,44.5 68.5,44.5 68.5,45.2 68.5,45.2 68.5,46 67.8,46 67.8,46.7 67.8,47.4 
			67.8,47.4 67.8,48.2 67.8,48.2 67.8,48.9 67.8,49.7 67.8,49.7 67,50.4 67,50.4 67.8,50.4 67.8,49.7 67.8,49.7 68.5,49.7 
			68.5,48.9 68.5,48.9 68.5,48.9 68.5,48.2 68.5,48.2 68.5,48.2 68.5,48.2 68.5,48.2 68.5,48.2 68.5,47.4 68.5,47.4 68.5,46.7 
			68.5,46.7 68.5,46.7 68.5,46.7 68.5,46.7 69.3,45.2 69.3,44.5 69.3,44.5 69.3,44.5 69.3,44.5 69.3,44.5 69.3,44.5 69.3,44.5 
			69.3,44.5 68.5,48.9 69.3,48.2 69.3,48.2 69.3,48.2 69.3,47.4 69.3,47.4 69.3,46.7 69.3,46.7 69.3,46.7 70,45.2 70,45.2 70,45.2 
			70,45.2 70,45.2 69.3,47.4 70,47.4 70,47.4 70,46.7 70,46.7 70,46 70.8,46 70.8,45.2 70.8,45.2 70.8,45.2 70.8,45.2 70.8,45.2 
			70.8,44.5 70.8,45.2 70.8,45.2 70.8,45.2 70.8,45.2 70.8,46 		"/>
		<polygon points="72.3,38.5 71.5,38.5 71.5,37 71.5,37.7 71.5,37.7 71.5,38.5 71.5,39.2 71.5,40 71.5,40 71.5,40.7 71.5,41.5 
			71.5,40.7 71.5,40.7 71.5,40 71.5,40 71.5,40 71.5,39.2 71.5,39.2 		"/>
		<polygon points="71.5,31 71.5,31 71.5,31 70.8,31 70.8,31 70.8,31 70.8,31 70.8,31.8 71.5,31.8 71.5,31 71.5,31 71.5,31 71.5,31 
			71.5,31 71.5,31 		"/>
		<polygon points="71.5,30.3 71.5,30.3 71.5,30.3 71.5,30.3 71.5,30.3 70.8,31 71.5,31 71.5,31 71.5,30.3 		"/>
		<polygon points="71.5,29.5 70.8,29.5 70.8,29.5 70,30.3 70,30.3 71.5,30.3 71.5,30.3 71.5,29.5 		"/>
		<polygon points="70.8,37 70.8,36.2 70.8,36.2 70.8,36.2 70.8,36.2 70.8,36.2 70,40.7 70,40.7 70,40 70.8,40 70.8,39.2 70.8,39.2 
			70.8,39.2 70.8,38.5 70.8,38.5 70.8,37.7 70.8,37.7 		"/>
		<polygon points="70,53.4 70,53.4 70,53.4 70,53.4 70,53.4 69.3,53.4 69.3,53.4 69.3,53.4 69.3,53.4 69.3,53.4 70,53.4 70,53.4 
			70,53.4 70,53.4 		"/>
		<polygon points="70,54.2 69.3,54.2 70,54.2 70,54.2 70,54.2 		"/>
		<polygon points="71.5,18.3 70.8,16.8 70,22.1 70.8,22.1 70.8,22.1 70.8,21.3 70.8,21.3 70.8,20.6 70.8,20.6 70.8,19.8 70.8,19.8 
			71.5,19.8 71.5,19.1 71.5,19.1 		"/>
		<polygon points="70.8,30.3 70.8,30.3 70.8,30.3 70.8,30.3 70.8,30.3 70,30.3 70,30.3 70,30.3 70,30.3 70,30.3 70.8,30.3 
			70.8,30.3 70.8,30.3 		"/>
		<polygon points="70,31 70,31 70,31 70,31 70,31 70,31 69.3,31 69.3,30.3 69.3,30.3 69.3,30.3 69.3,30.3 69.3,30.3 68.5,30.3 
			68.5,30.3 67.8,30.3 68.5,30.3 68.5,31 68.5,31 68.5,31 68.5,31 68.5,31 70,31 70,31 70,31 		"/>
		<polygon points="70,28 70,28 70,28 70,28 70,28 70,28.8 70,28.8 70,28.8 70,28.8 70,28.8 70,28.8 70,28.8 70,28.8 70,28.8 70,28 
					"/>
		<polygon points="70,16.8 70,15.3 70,15.3 70,15.3 70,15.3 70,15.3 69.3,22.1 		"/>
		<polygon points="69.3,37.7 69.3,36.2 69.3,36.2 68.5,37 68.5,37 68.5,37.7 68.5,37.7 68.5,38.5 68.5,38.5 68.5,39.2 68.5,39.2 
			68.5,40 68.5,40 68.5,40.7 		"/>
		<polygon points="68.5,42.2 67.8,42.2 67,43 67,43.7 66.3,44.5 66.3,45.2 65.5,46 64.8,46.7 64,47.4 64,48.2 63.3,48.2 62.5,49.7 
			62.5,49.7 61.8,49.7 61.8,50.4 61.8,51.2 61.8,51.2 61.8,51.2 61.8,51.2 61.8,51.9 61.8,51.2 62.5,51.2 62.5,50.4 62.5,50.4 
			63.3,50.4 63.3,49.7 63.3,49.7 64,48.9 64,48.9 64,48.2 64,48.2 64.8,47.4 64.8,47.4 65.5,47.4 65.5,46.7 65.5,46 66.3,46 
			66.3,45.2 67,44.5 67,44.5 67,43.7 67.8,43 68.5,43 68.5,42.2 68.5,42.2 68.5,42.2 		"/>
		<polygon points="67.8,44.5 67.8,44.5 67.8,44.5 67.8,44.5 67.8,44.5 67,45.2 67,46.7 67,46.7 67,47.4 67,47.4 67,48.2 67,48.2 
			67,48.2 67,48.2 67,48.9 67,48.9 67,48.9 67,48.9 67,48.9 67,48.9 66.3,48.9 65.5,51.9 65.5,51.9 65.5,51.9 65.5,51.9 65.5,51.9 
			65.5,51.9 65.5,51.9 65.5,51.9 65.5,51.9 66.3,46.7 65.5,47.4 65.5,47.4 65.5,47.4 65.5,47.4 65.5,47.4 64.8,51.2 64.8,51.9 
			64.8,51.9 64.8,51.9 64.8,51.9 64.8,51.2 64.8,50.4 64.8,50.4 64.8,49.7 64.8,49.7 65.5,48.9 65.5,48.2 65.5,48.2 64.8,48.9 
			64.8,48.9 64.8,48.9 64.8,48.9 64.8,48.9 64.8,51.2 64.8,51.2 64.8,51.2 64,51.2 64,51.2 64.8,48.9 64,49.7 64,51.2 64,51.2 
			63.3,51.2 63.3,51.2 63.3,51.2 63.3,51.2 63.3,51.2 63.3,51.2 63.3,51.2 63.3,51.2 63.3,51.2 63.3,51.2 63.3,51.2 63.3,50.4 
			62.5,51.9 66.3,51.9 66.3,51.9 66.3,51.9 66.3,51.9 66.3,51.9 66.3,51.9 66.3,51.9 66.3,51.9 66.3,51.9 66.3,51.2 66.3,51.2 
			67,51.2 67,51.2 		"/>
		<polygon points="67.8,38.5 67.8,36.2 67,40 		"/>
		<polygon points="67,42.2 67,42.2 67,42.2 67,42.2 67,42.2 66.3,42.2 66.3,42.2 65.5,42.2 65.5,42.2 64.8,42.2 64.8,42.2 
			64.8,42.2 64,42.2 64,42.2 63.3,42.2 63.3,42.2 63.3,42.2 63.3,42.2 62.5,42.2 62.5,42.2 62.5,42.2 62.5,43 63.3,43 63.3,43 
			64,43 64.8,43 64.8,43 65.5,43 66.3,43 66.3,43 67,43 67,42.2 67,42.2 67,42.2 67,42.2 67,42.2 		"/>
		<polygon points="66.3,53.4 66.3,53.4 66.3,53.4 66.3,53.4 66.3,53.4 66.3,53.4 66.3,52.7 66.3,52.7 66.3,52.7 64.8,52.7 
			64.8,52.7 64.8,52.7 64.8,52.7 64.8,52.7 61.8,52.7 61.8,52.7 61.8,52.7 61.8,52.7 61.8,53.4 66.3,53.4 66.3,53.4 66.3,53.4 		"/>
		<polygon points="67,32.5 67,32.5 67,32.5 67,32.5 67,32.5 67,32.5 67,32.5 		"/>
		<polygon points="67,22.8 67,22.8 66.3,22.8 66.3,23.6 66.3,23.6 66.3,23.6 66.3,25 66.3,25.8 66.3,26.5 66.3,27.3 66.3,28 
			66.3,28.8 65.5,29.5 65.5,30.3 65.5,30.3 65.5,31 65.5,31.8 65.5,31.8 65.5,31.8 65.5,31.8 65.5,31.8 65.5,31.8 66.3,31.8 
			66.3,31 66.3,30.3 66.3,30.3 66.3,29.5 66.3,29.5 66.3,28.8 66.3,28 66.3,27.3 66.3,27.3 67,26.5 67,25.8 67,25 67,24.3 67,23.6 
			67,23.6 67,22.8 67,22.8 67,22.8 67,22.8 67,22.8 67,22.8 		"/>
		<polygon points="66.3,41.5 66.3,41.5 66.3,41.5 66.3,41.5 66.3,41.5 66.3,41.5 66.3,41.5 66.3,42.2 		"/>
		<polygon points="66.3,43.7 62.5,43.7 62.5,43.7 62.5,43.7 62.5,43.7 62.5,44.5 62.5,44.5 62.5,44.5 62.5,44.5 62.5,45.2 
			61.8,49.7 62.5,48.9 62.5,48.2 62.5,47.4 62.5,46.7 62.5,46 62.5,46 62.5,45.2 62.5,44.5 62.5,43.7 62.5,43.7 63.3,43.7 
			63.3,43.7 63.3,43.7 62.5,48.2 63.3,47.4 63.3,47.4 64,44.5 64,44.5 64,44.5 64,44.5 64,44.5 64,44.5 64,44.5 64,44.5 64,44.5 
			64,45.2 64,45.2 64,46 64,46 64,46 64,46.7 64,46.7 63.3,47.4 64,46.7 64,46.7 64,46 64,46 64,45.2 64.8,45.2 64.8,44.5 
			64.8,44.5 64.8,44.5 64.8,44.5 64.8,44.5 64.8,44.5 64.8,44.5 64.8,44.5 64.8,44.5 64.8,44.5 64.8,45.2 		"/>
		<polygon points="66.3,16.8 66.3,16.1 66.3,15.3 66.3,15.3 66.3,15.3 66.3,16.1 66.3,16.8 65.5,17.6 65.5,18.3 65.5,19.1 
			65.5,19.8 65.5,20.6 64.8,21.3 64.8,22.8 64.8,22.8 64.8,22.8 64.8,22.8 64.8,23.6 65.5,22.8 65.5,22.1 65.5,22.1 65.5,21.3 
			65.5,20.6 65.5,19.8 65.5,19.8 66.3,19.1 66.3,18.3 66.3,17.6 66.3,17.6 		"/>
		<polygon points="65.5,25 65.5,24.3 65.5,24.3 65.5,24.3 65.5,24.3 64.8,24.3 64.8,25 64.8,25.8 64.8,26.5 64.8,27.3 64.8,28 
			64.8,28.8 64.8,29.5 64.8,30.3 64.8,29.5 64.8,28.8 64.8,28 64.8,27.3 64.8,26.5 64.8,25.8 65.5,25.8 		"/>
		<polygon points="64,37 64,35.5 64,37 64,38.5 63.3,40 		"/>
		<polygon points="64,18.3 64,17.6 64,17.6 64,17.6 64,17.6 64,17.6 64,17.6 63.3,22.1 63.3,22.1 63.3,22.1 63.3,22.1 63.3,22.1 
			64,20.6 64,19.8 64,19.8 64,19.8 64,19.8 		"/>
		<polygon points="63.3,23.6 63.3,23.6 63.3,22.8 63.3,22.8 63.3,22.8 63.3,22.8 63.3,22.8 63.3,22.8 63.3,22.8 63.3,22.8 
			63.3,22.8 63.3,22.8 63.3,22.8 63.3,25.8 		"/>
		<polygon points="62.5,34.8 62.5,34 62.5,33.3 62.5,33.3 62.5,32.5 62.5,32.5 62.5,32.5 61.8,32.5 61.8,32.5 61.8,33.3 61.8,34 
			61.8,34.8 61.8,35.5 61.8,36.2 61.8,37 61,37.7 61,38.5 61,39.2 61,39.2 61,40 61,40 61.8,39.2 		"/>
		<polygon points="62.5,18.3 62.5,18.3 62.5,18.3 62.5,18.3 62.5,18.3 62.5,20.6 62.5,20.6 62.5,21.3 62.5,21.3 62.5,20.6 		"/>
		<polygon points="61,31.8 61,31 61,31 61,31 61,31 61,31 60.3,38.5 		"/>
		<polygon points="61,42.2 60.3,42.2 60.3,42.2 60.3,42.2 60.3,42.2 60.3,40.7 60.3,40.7 60.3,40.7 60.3,40.7 60.3,40.7 59.5,49.7 
			60.3,45.2 60.3,45.2 60.3,45.2 60.3,45.2 60.3,45.2 60.3,45.2 60.3,45.2 60.3,45.2 60.3,45.2 		"/>
		<path d="M60.3,39.2v-0.7V39.2z"/>
		<polygon points="61,12.4 61,12.4 61,12.4 60.3,12.4 60.3,12.4 59.5,12.4 59.5,12.4 60.3,12.4 60.3,13.1 60.3,13.1 60.3,13.1 
			60.3,13.1 60.3,13.1 59.5,13.1 58.8,13.9 58.8,13.9 58,14.6 58,14.6 58,14.6 58,14.6 58,14.6 58.8,14.6 58.8,14.6 58.8,14.6 
			59.5,13.9 59.5,13.9 60.3,13.9 60.3,13.9 60.3,13.1 		"/>
		<polygon points="58.8,51.2 58.8,51.2 58.8,51.2 58.8,51.2 58.8,51.2 58.8,51.2 58.8,51.2 58.8,50.4 		"/>
		<polygon points="59.5,30.3 59.5,28.8 59.5,28.8 59.5,28.8 59.5,28.8 59.5,28.8 59.5,29.5 59.5,31 59.5,32.5 58.8,33.3 58.8,34.8 
			58.8,36.2 58.8,37.7 58.8,38.5 		"/>
		<polygon points="58.8,44.5 58.8,44.5 58.8,44.5 58.8,44.5 58.8,44.5 58.8,44.5 58.8,44.5 58,44.5 58,44.5 57.3,43.7 57.3,44.5 
			57.3,44.5 57.3,44.5 57.3,44.5 57.3,44.5 58.8,44.5 58.8,44.5 58.8,44.5 58.8,44.5 58.8,45.2 58.8,46.7 58.8,46.7 58,47.4 
			58,48.2 58,48.2 58,48.2 58,48.9 58,48.9 58,48.9 58,49.7 58,49.7 57.3,49.7 57.3,49.7 57.3,49.7 56.5,49.7 56.5,49.7 55.8,49.7 
			55.8,49.7 55.8,49.7 55,49.7 55,49.7 55,49.7 55,49.7 55,49.7 55,49.7 55,49.7 55,48.9 55,48.9 55,44.5 55.8,44.5 55.8,44.5 
			55.8,44.5 55.8,44.5 56.5,44.5 56.5,44.5 56.5,43.7 56.5,43.7 55.8,43.7 55.8,43.7 55.8,43.7 55.8,43.7 55.8,43.7 55.8,44.5 
			55.8,43.7 55,43.7 55,43.7 55,43.7 55,44.5 55,45.2 55,46 55,46.7 54.3,47.4 54.3,47.4 54.3,48.2 54.3,48.9 54.3,48.9 54.3,49.7 
			54.3,49.7 54.3,49.7 54.3,49.7 54.3,49.7 54.3,49.7 54.3,49.7 54.3,49.7 54.3,49.7 55,49.7 55,49.7 55,50.4 55,50.4 55.8,50.4 
			56.5,49.7 56.5,49.7 56.5,49.7 56.5,49.7 56.5,49.7 56.5,49.7 58,50.4 58.8,49.7 58.8,49.7 58.8,49.7 58,49.7 58,48.9 		"/>
		<polygon points="60.3,10.9 60.3,10.9 60.3,10.9 60.3,10.9 59.5,10.9 		"/>
		<polygon points="57.3,27.3 57.3,27.3 57.3,27.3 57.3,27.3 57.3,27.3 57.3,27.3 57.3,27.3 57.3,27.3 56.5,27.3 56.5,27.3 
			56.5,27.3 56.5,27.3 56.5,27.3 56.5,27.3 56.5,27.3 56.5,27.3 56.5,27.3 55.8,37 55.8,37 55.8,36.2 55.8,35.5 55.8,34.8 56.5,34 
			56.5,33.3 56.5,32.5 56.5,32.5 56.5,31.8 56.5,31 56.5,30.3 56.5,29.5 57.3,29.5 57.3,28.8 57.3,28 		"/>
		<polygon points="56.5,51.9 56.5,50.4 55.8,50.4 55.8,50.4 55.8,50.4 55.8,50.4 55.8,51.9 55.8,51.9 55.8,51.9 55.8,51.9 
			55.8,51.9 55.8,52.7 55.8,52.7 55.8,52.7 55.8,52.7 55.8,52.7 55.8,51.9 56.5,51.9 		"/>
		<polygon points="55,50.4 55,50.4 55,50.4 55,50.4 55,50.4 55,50.4 55,51.2 55,51.2 55,51.2 55,51.9 55,51.9 55,51.9 55,51.9 
			55,51.9 		"/>
		<polygon points="55.8,29.5 55.8,28.8 55,28.8 55,28.8 55,28.8 55,28.8 55,29.5 55,30.3 55,31.8 55,32.5 55,33.3 55,34 55,35.5 
			55,36.2 		"/>
		<polygon points="54.3,51.2 54.3,50.4 54.3,50.4 54.3,50.4 53.5,50.4 53.5,50.4 53.5,50.4 53.5,49.7 53.5,49.7 53.5,49.7 
			53.5,48.9 53.5,48.9 53.5,48.9 53.5,48.2 53.5,48.2 53.5,48.9 53.5,48.9 53.5,49.7 53.5,49.7 53.5,49.7 53.5,50.4 53.5,50.4 
			53.5,51.2 53.5,51.2 53.5,51.2 53.5,51.9 53.5,51.9 53.5,51.9 53.5,51.9 53.5,51.9 53.5,51.9 54.3,51.9 54.3,51.2 54.3,51.2 
			54.3,51.2 54.3,51.2 		"/>
		<polygon points="53.5,47.4 53.5,47.4 53.5,47.4 53.5,47.4 53.5,47.4 53.5,48.2 		"/>
		<polygon points="55,17.6 55,17.6 55,17.6 55,17.6 54.3,17.6 55,17.6 55,17.6 		"/>
		<polygon points="54.3,37.7 54.3,37.7 54.3,37.7 54.3,37.7 53.5,37.7 53.5,35.5 53.5,35.5 53.5,35.5 53.5,35.5 53.5,35.5 
			53.5,36.2 53.5,36.2 53.5,36.2 53.5,36.2 53.5,37 53.5,37.7 53.5,38.5 53.5,39.2 53.5,40 53.5,40.7 52.8,41.5 52.8,42.2 52.8,43 
			52.8,43 52.8,43.7 52.8,43.7 52.8,43.7 52.8,44.5 52.8,44.5 52.8,45.2 53.5,37.7 54.3,37.7 54.3,37.7 		"/>
		<polygon points="52.8,47.4 52.8,46.7 52.8,46.7 52.8,46.7 52.8,46.7 52.8,46.7 		"/>
		<polygon points="52.8,37 52.8,35.5 52.8,35.5 52.8,35.5 52.8,35.5 52.8,35.5 52.8,37 52.8,37 52.8,37 52.8,37 52.8,37 52.8,37 
			52.8,37 		"/>
		<polygon points="52.8,38.5 52.8,37.7 52.8,37.7 52.8,37.7 52.8,37.7 52.8,37.7 52,38.5 52.8,39.2 52.8,39.2 52.8,39.2 52.8,39.2 
			52.8,39.2 		"/>
		<polygon points="52,51.2 52,50.4 52,51.9 52,51.9 52,51.2 		"/>
		<polygon points="52,47.4 52,46.7 52,46.7 52,46.7 52,46.7 52,46.7 51.3,48.9 52,48.9 52,48.9 52,48.9 52,48.2 52,48.2 52,48.2 
			52,48.2 		"/>
		<polygon points="52.8,17.6 49.8,17.6 49.8,17.6 49.8,17.6 49.8,17.6 49,17.6 49,17.6 49,17.6 49,17.6 49,16.8 51.3,16.8 
			49.8,16.8 49.8,16.8 49.8,16.8 49.8,16.8 49.8,16.1 49.8,16.1 49.8,16.1 49.8,16.1 50.5,16.1 49,16.1 48.3,16.1 47.5,16.8 
			46.8,16.8 46,16.8 44.5,17.6 43.8,17.6 43,17.6 42.3,17.6 42.3,17.6 41.5,17.6 40.8,18.3 40.8,18.3 40.8,18.3 40,18.3 40,18.3 
			39.3,18.3 39.3,18.3 38.5,18.3 38.5,18.3 37.8,18.3 37.8,18.3 37,19.1 37,19.1 36.3,19.1 36.3,19.1 35.5,19.1 34.8,19.1 
			34.8,19.1 34,19.1 33.3,19.8 32.5,19.8 32.5,19.8 31.8,19.8 31,19.8 30.3,19.8 30.3,19.8 29.5,20.6 29.5,20.6 28.8,20.6 28,20.6 
			28,20.6 27.3,20.6 26.5,20.6 26.5,21.3 25.8,21.3 25.8,22.1 25,22.8 24.3,22.8 24.3,23.6 23.5,23.6 23.5,24.3 23.5,25 22.8,25 
			22.8,25.8 22.8,25.8 22.8,26.5 22.8,27.3 22,27.3 22,28 22,28.8 21.3,29.5 21.3,30.3 20.5,31 20.5,32.5 19.8,33.3 19.8,34 
			19,34.8 19,35.5 19,35.5 19,36.2 18.3,37 18.3,37 18.3,37.7 18.3,38.5 17.5,38.5 18.3,39.2 18.3,39.2 18.3,39.2 18.3,39.2 
			18.3,39.2 18.3,39.2 18.3,38.5 18.3,38.5 18.3,38.5 18.3,38.5 18.3,38.5 19,38.5 19,38.5 19,38.5 19,38.5 19,37.7 19,37.7 
			19,37.7 19,37.7 19,37.7 19,37.7 19,37.7 19.8,37.7 19.8,37.7 19.8,37.7 20.5,37.7 20.5,37.7 20.5,37.7 21.3,37.7 22,37.7 
			22.8,37.7 23.5,37.7 24.3,37.7 25,37.7 25.8,37.7 26.5,37.7 28,37.7 28.8,37.7 29.5,37.7 30.3,37.7 31,37.7 31.8,37.7 32.5,37.7 
			33.3,37.7 34,37.7 34,37.7 34,37.7 34,37.7 34,37.7 24.3,37.7 23.5,37.7 22.8,37.7 22,37.7 21.3,37.7 21.3,37.7 20.5,37.7 
			19.8,37.7 19,37.7 19,37.7 19,37.7 19,37 19,37 19,37 19,37 19,37 19,37 22,37 19,36.2 19,36.2 19,36.2 19,36.2 19,36.2 
			24.3,36.2 21.3,35.5 21.3,35.5 21.3,35.5 21.3,35.5 21.3,35.5 23.5,35.5 22.8,35.5 22.8,35.5 22.8,35.5 22.8,35.5 22.8,35.5 
			22.8,35.5 23.5,35.5 23.5,34.8 29.5,34.8 29.5,34.8 28.8,34.8 28,34.8 28,34.8 27.3,34.8 27.3,34.8 26.5,34 26.5,34 26.5,34 
			26.5,34 26.5,34 26.5,34 27.3,34 28,34 28.8,34 29.5,34 30.3,34 31,34 31.8,34 32.5,34 28.8,34 28.8,34 28.8,34 28.8,34 28.8,34 
			28.8,34 28.8,34 28.8,34 28.8,34 28.8,33.3 28.8,33.3 28.8,33.3 28.8,33.3 28.8,33.3 28.8,33.3 28.8,33.3 28.8,33.3 29.5,33.3 
			30.3,33.3 31,33.3 31.8,33.3 32.5,33.3 33.3,33.3 34,33.3 34.8,33.3 35.5,34 36.3,34 37,34 37.8,34 38.5,34 39.3,34 40,34 
			40.8,34 41.5,34 41.5,34 41.5,34 40.8,34 31.8,32.5 31.8,32.5 31.8,32.5 31.8,32.5 31.8,32.5 32.5,32.5 33.3,32.5 34,32.5 
			35.5,32.5 36.3,32.5 37,32.5 37.8,32.5 38.5,32.5 38.5,32.5 37.8,32.5 37.8,32.5 37,32.5 36.3,32.5 36.3,32.5 35.5,32.5 
			35.5,31.8 34.8,31.8 34.8,31.8 34.8,31.8 35.5,31.8 35.5,31.8 36.3,31.8 36.3,31.8 37,31.8 37,31.8 37.8,31.8 37.8,31.8 
			37.8,31.8 38.5,31.8 38.5,31.8 37.8,31 37,31 37,31 36.3,31 36.3,30.3 36.3,30.3 36.3,30.3 36.3,30.3 39.3,31 39.3,31 39.3,31 
			39.3,31 40,31 42.3,31 37.8,30.3 37.8,30.3 37.8,30.3 37.8,30.3 38.5,29.5 39.3,29.5 39.3,29.5 39.3,29.5 39.3,29.5 39.3,29.5 
			39.3,29.5 39.3,29.5 39.3,29.5 39.3,29.5 39.3,29.5 39.3,29.5 39.3,29.5 39.3,29.5 40.8,29.5 40.8,28.8 40.8,28.8 40.8,28.8 
			40.8,28.8 40.8,28.8 40.8,28.8 41.5,28.8 41.5,28.8 42.3,28.8 42.3,28.8 43,28.8 43.8,28.8 43.8,28.8 44.5,28.8 44.5,28.8 
			44.5,28.8 45.3,28.8 44.5,28.8 43.8,28.8 43,28.8 42.3,28.8 42.3,28.8 41.5,28.8 40.8,28 40.8,28 40.8,28 40,28 40,28 40,28 
			40.8,28 40.8,28 41.5,28 41.5,28 41.5,28 42.3,28 42.3,28 43,28 43,28 43,28 43,28 43,28 44.5,28 41.5,27.3 41.5,27.3 41.5,27.3 
			41.5,27.3 41.5,27.3 41.5,27.3 41.5,27.3 41.5,27.3 41.5,27.3 41.5,27.3 42.3,27.3 43,27.3 43.8,27.3 44.5,27.3 44.5,27.3 
			45.3,27.3 46,27.3 45.3,27.3 44.5,27.3 44.5,27.3 43.8,27.3 43,27.3 42.3,26.5 42.3,26.5 41.5,26.5 41.5,26.5 41.5,26.5 
			41.5,26.5 41.5,26.5 42.3,26.5 43,26.5 43,26.5 43.8,26.5 44.5,26.5 45.3,26.5 46,26.5 46,26.5 41.5,25.8 40.8,25.8 40.8,25.8 
			40.8,25.8 40.8,25.8 41.5,25.8 42.3,25 42.3,25 43,25 43,25 43.8,25.8 44.5,25.8 44.5,25.8 44.5,25.8 44.5,25.8 44.5,25.8 
			44.5,25.8 40.8,25 40.8,25 40.8,25 40.8,25 40.8,25 40.8,24.3 40.8,24.3 40.8,24.3 40.8,24.3 41.5,24.3 40,24.3 39.3,24.3 
			39.3,23.6 39.3,23.6 39.3,23.6 39.3,23.6 39.3,23.6 39.3,23.6 38.5,23.6 38.5,23.6 37.8,23.6 37.8,23.6 37.8,23.6 37.8,23.6 
			37.8,23.6 37.8,23.6 37.8,23.6 38.5,22.8 38.5,22.8 29.5,24.3 28.8,24.3 28.8,24.3 28,24.3 28,24.3 27.3,24.3 27.3,24.3 
			27.3,24.3 26.5,24.3 26.5,24.3 25.8,24.3 25.8,24.3 25,24.3 25,24.3 25,23.6 24.3,23.6 24.3,23.6 25,23.6 25,23.6 25,23.6 
			25.8,23.6 26.5,23.6 26.5,23.6 27.3,23.6 27.3,23.6 28,23.6 29.5,23.6 30.3,22.8 31,22.8 32.5,22.8 33.3,22.8 34,22.8 35.5,22.8 
			36.3,22.1 37,22.1 37.8,22.1 39.3,22.1 40,22.1 40.8,22.1 42.3,21.3 43,21.3 42.3,21.3 42.3,21.3 41.5,21.3 41.5,21.3 40.8,21.3 
			40,21.3 40,21.3 39.3,21.3 39.3,21.3 39.3,21.3 39.3,21.3 39.3,21.3 40,20.6 40,20.6 40,20.6 40.8,20.6 40.8,20.6 41.5,20.6 
			41.5,20.6 42.3,20.6 42.3,20.6 42.3,20.6 41.5,20.6 41.5,20.6 41.5,20.6 42.3,19.8 42.3,19.8 43,19.8 43,19.8 43.8,19.8 
			43.8,19.8 44.5,19.8 45.3,19.8 44.5,19.8 44.5,19.8 44.5,19.8 43.8,19.8 43.8,19.8 43.8,19.1 43.8,19.1 43.8,19.1 43.8,19.1 
			43.8,19.1 44.5,19.1 44.5,19.1 44.5,19.1 45.3,19.1 46,19.8 46,19.8 46.8,19.8 47.5,19.8 48.3,19.8 48.3,19.8 48.3,19.8 
			48.3,19.1 48.3,19.1 47.5,19.8 46.8,19.1 46.8,19.1 46.8,19.1 46.8,19.1 46.8,19.1 46.8,19.1 46.8,19.1 46.8,19.1 46.8,19.1 
			52,18.3 51.3,18.3 50.5,18.3 50.5,18.3 49.8,18.3 49.8,18.3 49,18.3 48.3,18.3 48.3,18.3 48.3,18.3 48.3,18.3 48.3,18.3 
			48.3,18.3 48.3,18.3 48.3,17.6 48.3,17.6 48.3,17.6 52.8,17.6 52.8,17.6 52.8,17.6 		"/>
		<polygon points="51.3,38.5 51.3,37.7 51.3,37.7 51.3,37.7 51.3,37.7 51.3,37 50.5,37.7 50.5,37.7 50.5,37.7 50.5,38.5 50.5,38.5 
			50.5,38.5 50.5,39.2 50.5,39.2 49.8,39.2 49.8,40 49.8,40 49.8,40.7 49.8,41.5 49.8,42.2 49.8,43.7 49.8,44.5 49.8,46 49,47.4 
			49,48.2 49,49.7 49,50.4 49,49.7 49,49.7 49,49.7 49,49.7 49,49.7 49,49.7 49,49.7 49,49.7 49,49.7 49,51.2 49,51.9 49,51.9 
			49,51.9 49,51.9 49,50.4 49.8,50.4 49.8,49.7 49.8,49.7 49.8,49.7 49.8,49.7 49.8,51.9 49.8,51.9 49.8,51.9 49.8,51.9 49.8,51.9 
			49.8,51.9 49.8,51.9 49.8,51.9 49.8,51.9 		"/>
		<polygon points="49,40 49,40 49,40 49,40 49,40 49,40 48.3,40.7 49,40.7 49,40 49,40 49,40 		"/>
		<polygon points="48.3,39.2 49,39.2 49,39.2 		"/>
		<polygon points="48.3,49.7 48.3,48.9 48.3,50.4 		"/>
		<polygon points="47.5,48.9 47.5,48.9 47.5,48.9 47.5,48.9 47.5,48.9 47.5,48.9 47.5,48.9 		"/>
		<polygon points="47.5,51.2 47.5,51.2 47.5,51.2 47.5,51.2 47.5,51.2 47.5,51.2 47.5,50.4 47.5,51.2 47.5,51.2 47.5,51.2 
			47.5,51.2 47.5,51.2 47.5,51.2 47.5,51.2 47.5,51.2 47.5,51.2 47.5,51.2 47.5,51.2 		"/>
		<polygon points="47.5,49.7 47.5,49.7 47.5,49.7 47.5,49.7 47.5,49.7 47.5,50.4 		"/>
		<polygon points="47.5,40 47.5,40 47.5,41.5 46.8,43 46.8,44.5 46.8,45.2 46,46.7 46,48.2 46,49.7 46,51.2 46,51.2 46,51.2 
			46,51.2 46,51.2 46,51.2 46,51.2 46,51.2 46,51.2 46,51.2 46,51.2 46,51.2 46,51.2 46,51.2 46,51.2 46,51.2 46,51.2 46,51.2 
			46,51.2 46,51.2 46,51.2 46,51.2 46,51.2 46,50.4 46,50.4 46,49.7 46,48.9 46.8,48.9 46.8,48.2 46.8,48.2 46.8,46.7 46.8,46 
			46.8,45.2 47.5,43.7 47.5,43 47.5,42.2 47.5,41.5 		"/>
		<polygon points="46,40 46,40 46,40 46,40.7 46,40.7 46,40.7 46,40.7 		"/>
		<polygon points="46,45.2 46,45.2 46,45.2 46,45.2 46,45.2 45.3,47.4 		"/>
		<polygon points="45.3,48.9 45.3,48.9 45.3,48.9 45.3,48.9 45.3,48.9 44.5,51.9 44.5,51.9 		"/>
		<polygon points="44.5,40.7 44.5,40 44.5,40.7 44.5,40.7 44.5,40.7 44.5,40.7 44.5,40.7 44.5,41.5 43,51.2 43,51.2 43,51.2 
			43,51.2 43,51.2 43,50.4 43,50.4 43,49.7 43,48.9 43.8,48.9 43.8,48.2 43.8,48.2 43.8,47.4 43.8,47.4 43.8,46 43.8,45.2 
			44.5,44.5 44.5,43.7 44.5,43 44.5,42.2 44.5,41.5 		"/>
		<polygon points="43,41.5 43,40.7 43,40.7 43,40.7 43,40.7 43,40.7 43,40.7 43,41.5 43,41.5 43,41.5 43,42.2 43,42.2 43,42.2 
			43,43 		"/>
		<path d="M43,29.5h-1.5H43z"/>
		<path d="M43.8,24.3H43H43.8z"/>
		<polygon points="42.3,47.4 43,45.2 42.3,46 42.3,46 42.3,46.7 42.3,46.7 42.3,47.4 42.3,47.4 42.3,48.2 42.3,48.2 42.3,48.9 
			42.3,48.9 42.3,49.7 41.5,49.7 41.5,50.4 41.5,50.4 41.5,51.2 41.5,51.2 41.5,51.2 41.5,51.2 41.5,51.2 42.3,51.2 42.3,51.2 
			42.3,51.2 42.3,51.2 42.3,51.2 42.3,51.2 42.3,51.2 42.3,51.2 42.3,51.2 42.3,51.2 42.3,50.4 42.3,49.7 42.3,49.7 42.3,48.9 
			42.3,48.2 42.3,48.2 		"/>
		<polygon points="41.5,40.7 41.5,40.7 41.5,40.7 41.5,40.7 41.5,40.7 41.5,40.7 41.5,42.2 41.5,43 40.8,44.5 40.8,46 40.8,46.7 
			40,48.2 40,49.7 40,50.4 40,51.2 40,51.2 40,51.2 40,51.2 40,51.2 40,51.2 40,51.2 40,51.2 40,48.9 40,48.9 40,48.9 40,48.9 
			40,48.2 40,48.2 40,48.2 40.8,48.2 40.8,48.2 40.8,48.2 40.8,46.7 40.8,46.7 40.8,46.7 40.8,46.7 40.8,46.7 42.3,40.7 42.3,40.7 
			42.3,40.7 		"/>
		<polygon points="40,40.7 40,40 38.5,40 38.5,41.5 38.5,42.2 37.8,43 37.8,43 37.8,43.7 37.8,44.5 37.8,45.2 37.8,46 37.8,46 
			37.8,46.7 37,47.4 37,47.4 37,48.2 37,48.9 37,49.7 37,49.7 36.3,50.4 36.3,50.4 36.3,50.4 36.3,50.4 36.3,50.4 36.3,50.4 
			36.3,50.4 36.3,50.4 36.3,50.4 36.3,50.4 36.3,50.4 36.3,50.4 36.3,50.4 36.3,50.4 36.3,50.4 37,50.4 37,50.4 37,50.4 37,50.4 
			37,51.2 37,51.2 37,51.2 37,51.2 37,51.2 37,51.2 37,50.4 37,49.7 37,49.7 37,48.9 37,48.2 37,48.2 37.8,47.4 37.8,47.4 
			37.8,46.7 37.8,46 37.8,45.2 37.8,45.2 37.8,44.5 37.8,43.7 37.8,43 38.5,43 38.5,40 39.3,40 39.3,40 39.3,40 39.3,40 39.3,40.7 
			40,40.7 40,40.7 40,40.7 40,41.5 39.3,41.5 39.3,42.2 39.3,42.2 39.3,43 39.3,43 39.3,43.7 39.3,43.7 		"/>
		<path d="M40,23.6L40,23.6L40,23.6z"/>
		<path d="M40,32.5h-1.5H40z"/>
		<polygon points="39.3,46 39.3,46 39.3,45.2 39.3,45.2 39.3,45.2 38.5,46 38.5,46.7 38.5,47.4 38.5,47.4 38.5,48.2 38.5,48.9 
			38.5,48.9 38.5,49.7 38.5,49.7 38.5,48.9 38.5,48.9 38.5,48.9 38.5,48.2 38.5,48.2 38.5,48.2 38.5,47.4 38.5,46.7 39.3,46.7 		"/>
		<polygon points="38.5,51.2 38.5,51.2 38.5,51.2 38.5,51.2 38.5,51.2 37.8,50.4 37.8,51.2 38.5,51.2 38.5,51.2 38.5,51.2 		"/>
		<path d="M38.5,34.8h-3H38.5z"/>
		<polygon points="37,40.7 37,40 37,40 37,40 37,40 37,40 37,40.7 37,40.7 37,40.7 		"/>
		<polygon points="37,42.2 35.5,50.4 35.5,50.4 35.5,50.4 35.5,50.4 35.5,50.4 		"/>
		<polygon points="35.5,51.2 35.5,51.2 35.5,51.2 35.5,51.2 35.5,51.2 35.5,51.2 35.5,51.2 35.5,51.2 35.5,51.2 35.5,51.2 
			35.5,51.2 		"/>
		<polygon points="36.3,40.7 36.3,40 36.3,40 36.3,40 36.3,40 34.8,40 34.8,43.7 35.5,40 35.5,40 36.3,40.7 36.3,40.7 36.3,40.7 
			36.3,40.7 36.3,40.7 36.3,40.7 		"/>
		<polygon points="34.8,45.2 34.8,43.7 33.3,49.7 33.3,50.4 33.3,50.4 33.3,50.4 34,50.4 34,50.4 		"/>
		<polygon points="33.3,42.2 33.3,40 30.3,40 30.3,40.7 30.3,41.5 30.3,42.2 30.3,42.2 30.3,43 30.3,43.7 30.3,44.5 30.3,45.2 
			30.3,46 30.3,46.7 30.3,47.4 29.5,47.4 29.5,48.2 29.5,48.9 29.5,49.7 29.5,50.4 29.5,51.2 30.3,50.4 31,40.7 31,40.7 31,40.7 
			31,40.7 31,40.7 31,40 31,40 31.8,40 31.8,40 31.8,40 32.5,40.7 32.5,40.7 32.5,40.7 32.5,40.7 32.5,40.7 32.5,41.5 32.5,42.2 
			32.5,43 32.5,43.7 32.5,44.5 32.5,45.2 32.5,46 32.5,46.7 32.5,47.4 32.5,47.4 32.5,48.2 32.5,48.2 31.8,48.9 31.8,48.9 
			31.8,49.7 31.8,49.7 31.8,50.4 31.8,50.4 31.8,50.4 31.8,50.4 31.8,50.4 31.8,50.4 31.8,50.4 32.5,50.4 32.5,50.4 32.5,49.7 
			32.5,48.9 32.5,48.2 32.5,47.4 32.5,46.7 32.5,46 32.5,45.2 33.3,44.5 33.3,44.5 33.3,43.7 33.3,43.7 33.3,43 33.3,43 		"/>
		<polygon points="33.3,28.8 33.3,28.8 33.3,28 33.3,28 33.3,28 32.5,28 32.5,28.8 32.5,28.8 32.5,28.8 32.5,28.8 32.5,28.8 
			32.5,28.8 32.5,28.8 32.5,28.8 		"/>
		<polygon points="33.3,21.3 33.3,21.3 32.5,21.3 32.5,21.3 32.5,21.3 32.5,21.3 32.5,21.3 32.5,21.3 32.5,21.3 33.3,21.3 
			33.3,21.3 33.3,21.3 33.3,21.3 		"/>
		<polygon points="32.5,26.5 32.5,26.5 32.5,26.5 32.5,26.5 32.5,26.5 32.5,26.5 32.5,26.5 32.5,26.5 32.5,26.5 31.8,26.5 
			31.8,26.5 31.8,26.5 32.5,26.5 32.5,26.5 32.5,26.5 32.5,26.5 		"/>
		<path d="M31.8,35.5H31H31.8z"/>
		<polygon points="31.8,30.3 31.8,30.3 31.8,30.3 31.8,30.3 31.8,29.5 31,29.5 31,30.3 31,30.3 31,30.3 31,30.3 31,30.3 31,30.3 
			31,30.3 31,30.3 31,30.3 31,30.3 		"/>
		<polygon points="31,28 31,28 31,28 30.3,28 30.3,28 30.3,28.8 30.3,28.8 30.3,28.8 30.3,28.8 30.3,28.8 31,28 31,28 31,28 		"/>
		<polygon points="30.3,31.8 29.5,31 29.5,31 29.5,31.8 29.5,31.8 29.5,31.8 29.5,31.8 29.5,31.8 29.5,31.8 29.5,31.8 		"/>
		<polygon points="30.3,21.3 30.3,21.3 30.3,20.6 30.3,20.6 30.3,20.6 30.3,20.6 30.3,20.6 30.3,20.6 30.3,20.6 29.5,21.3 
			29.5,21.3 29.5,21.3 30.3,21.3 		"/>
		<polygon points="29.5,40.7 29.5,40.7 29.5,40.7 29.5,40.7 29.5,40.7 29.5,40.7 28.8,40.7 28.8,41.5 28.8,42.2 28.8,43 28.8,43.7 
			28.8,44.5 28.8,45.2 28,46 28,46.7 28,47.4 28,47.4 28,48.2 28,48.2 28,48.9 28,49.7 28,49.7 28,50.4 28,50.4 28.8,50.4 
			28.8,50.4 28.8,49.7 28.8,49.7 28.8,48.9 28.8,48.9 28.8,48.2 28.8,48.2 28.8,47.4 28.8,46.7 28.8,46 28.8,45.2 28.8,44.5 
			29.5,43.7 29.5,42.2 29.5,41.5 		"/>
		<polygon points="29.5,26.5 29.5,26.5 29.5,26.5 29.5,26.5 29.5,26.5 29.5,26.5 29.5,26.5 29.5,26.5 29.5,26.5 29.5,26.5 
			29.5,26.5 29.5,26.5 29.5,26.5 29.5,26.5 29.5,26.5 29.5,26.5 29.5,26.5 29.5,26.5 29.5,26.5 		"/>
		<polygon points="28.8,30.3 28.8,30.3 28.8,30.3 28.8,30.3 28.8,29.5 28.8,29.5 28.8,30.3 28,30.3 28,30.3 28,30.3 28,30.3 
			28,30.3 28,31 28,31 28.8,31 28.8,31 28.8,31 28.8,31 28.8,30.3 28.8,30.3 28.8,30.3 		"/>
		<polygon points="28,41.5 28,40.7 27.3,40.7 27.3,40.7 27.3,40.7 27.3,40.7 28,40.7 28,40.7 27.3,40.7 27.3,40.7 27.3,40.7 
			26.5,50.4 26.5,49.7 26.5,49.7 26.5,49.7 26.5,49.7 27.3,49.7 		"/>
		<polygon points="28.8,22.1 28,22.1 28,22.1 28,22.1 28,22.1 28,22.1 28,22.8 28,22.8 28,22.8 28,22.8 28,22.1 28,22.1 28,22.1 
			28.8,22.1 28.8,22.1 28.8,22.1 		"/>
		<polygon points="27.3,51.2 27.3,51.2 27.3,51.2 26.5,51.2 26.5,51.2 26.5,51.2 27.3,51.2 27.3,51.2 27.3,51.2 27.3,51.2 
			27.3,51.2 		"/>
		<polygon points="28,28.8 28,28.8 28,28 28,28 28,28 28,28 28,28 28,28 28,28 28,28 27.3,28.8 27.3,28.8 27.3,28.8 27.3,28.8 
			27.3,28.8 27.3,28.8 		"/>
		<polygon points="27.3,31.8 27.3,31.8 27.3,31 27.3,31 27.3,31 27.3,31 27.3,31 26.5,31 26.5,31 26.5,31.8 26.5,31.8 26.5,31.8 
			26.5,31.8 26.5,31.8 		"/>
		<polygon points="27.3,21.3 27.3,21.3 27.3,21.3 27.3,21.3 27.3,21.3 27.3,21.3 26.5,22.1 26.5,22.1 26.5,22.1 26.5,22.1 
			26.5,22.1 27.3,22.1 27.3,22.1 27.3,21.3 27.3,21.3 27.3,21.3 27.3,21.3 		"/>
		<polygon points="28,8.6 27.3,7.9 27.3,7.9 26.5,7.1 26.5,7.1 25.8,7.1 25.8,7.1 25,7.1 25,7.1 24.3,6.4 24.3,6.4 23.5,6.4 
			22.8,6.4 22,6.4 21.3,5.6 20.5,5.6 19.8,5.6 19,5.6 18.3,5.6 16.8,5.6 16,6.4 15.3,6.4 13.8,6.4 13,6.4 12.3,6.4 10.8,7.1 
			10.8,7.9 11.5,7.9 11.5,7.1 12.3,7.1 13,7.1 13.8,7.1 14.5,7.1 15.3,6.4 16,6.4 16.8,6.4 18.3,6.4 19,6.4 20.5,6.4 22,7.1 
			22.8,7.1 24.3,7.1 25,7.9 25.8,7.9 25.8,7.9 25.8,7.9 25.8,7.9 26.5,7.9 28,9.4 28,9.4 28,9.4 		"/>
		<polygon points="27.3,27.3 27.3,27.3 27.3,26.5 27.3,26.5 27.3,26.5 27.3,26.5 27.3,26.5 27.3,26.5 26.5,26.5 26.5,26.5 
			26.5,26.5 26.5,26.5 26.5,27.3 26.5,27.3 26.5,27.3 26.5,27.3 26.5,27.3 26.5,27.3 27.3,27.3 27.3,27.3 		"/>
		<polygon points="26.5,40.7 26.5,40.7 26.5,40.7 26.5,40.7 25.8,40.7 25.8,40.7 25,50.4 25,50.4 25,50.4 25,50.4 25,50.4 		"/>
		<polygon points="25.8,29.5 25.8,29.5 25.8,29.5 25.8,29.5 25.8,29.5 25.8,29.5 25.8,29.5 25,29.5 25,29.5 25,29.5 25,29.5 
			25,29.5 25,29.5 25,30.3 25,30.3 25,30.3 25,30.3 25,30.3 25,30.3 25,30.3 25,30.3 		"/>
		<polygon points="25,41.5 25,40.7 25,40.7 25,40.7 25,40.7 25,40.7 25,40.7 25,41.5 24.3,41.5 25,42.2 24.3,42.2 24.3,43 
			24.3,43.7 24.3,43.7 24.3,44.5 24.3,44.5 24.3,45.2 24.3,46 24.3,46 24.3,46.7 24.3,46.7 24.3,47.4 24.3,47.4 24.3,48.2 
			24.3,48.2 24.3,48.9 24.3,48.9 24.3,48.9 23.5,49.7 23.5,49.7 23.5,49.7 23.5,50.4 23.5,50.4 23.5,51.2 23.5,51.2 23.5,51.2 
			23.5,51.2 23.5,51.2 		"/>
		<polygon points="25,26.5 25,26.5 25,26.5 25,26.5 25,26.5 25,26.5 25,27.3 25,27.3 25,27.3 25,27.3 25,27.3 25,27.3 25,27.3 
			25,26.5 25,26.5 25,26.5 		"/>
		<polygon points="25,33.3 25,33.3 25,33.3 24.3,33.3 24.3,33.3 24.3,33.3 24.3,33.3 24.3,33.3 24.3,34 24.3,34 24.3,34 24.3,34 
			24.3,34 24.3,34 24.3,34 24.3,34 24.3,34 24.3,34 24.3,33.3 24.3,33.3 25,33.3 25,33.3 25,33.3 		"/>
		<polygon points="25,28 25,28 25,28 25,28 25,28 24.3,28.8 24.3,28.8 24.3,28.8 24.3,28.8 24.3,28.8 25,28 25,28 25,28 		"/>
		<polygon points="25.8,10.9 25.8,10.1 25,9.4 25,9.4 25,9.4 24.3,9.4 24.3,9.4 23.5,9.4 23.5,9.4 22.8,8.6 22.8,8.6 22,8.6 
			21.3,8.6 21.3,8.6 20.5,8.6 20.5,8.6 19.8,7.9 19.8,7.9 19,7.9 19,7.9 19,7.9 18.3,7.9 16.8,9.4 18.3,9.4 19,9.4 19.8,9.4 
			21.3,9.4 22,9.4 22.8,10.1 24.3,10.1 25,10.9 25,10.9 25,10.9 25,10.9 25,10.9 25,10.9 25,10.9 25,10.9 25.8,10.9 25.8,10.9 
			25.8,10.9 		"/>
		<polygon points="24.3,31.8 24.3,31 24.3,31 24.3,31 24.3,31 24.3,31 24.3,31.8 23.5,31.8 23.5,31.8 23.5,31.8 23.5,31.8 
			24.3,31.8 24.3,31.8 24.3,31.8 24.3,31.8 24.3,31.8 		"/>
		<polygon points="25,12.4 25,11.6 24.3,11.6 23.5,10.9 22,10.9 21.3,10.1 19.8,10.1 18.3,10.1 17.5,10.1 16,10.9 15.3,10.9 
			15.3,10.9 15.3,10.9 15.3,10.9 15.3,10.9 15.3,10.9 14.5,11.6 14.5,11.6 15.3,11.6 16,11.6 16.8,11.6 17.5,11.6 18.3,11.6 
			18.3,11.6 19,11.6 19,11.6 19,11.6 19,11.6 19,11.6 19,12.4 16.8,11.6 16.8,11.6 16.8,12.4 16.8,12.4 16.8,12.4 16.8,12.4 
			16.8,12.4 16.8,12.4 16.8,12.4 19.8,13.1 19.8,13.1 19.8,13.1 19.8,13.1 19.8,13.1 18.3,13.1 17.5,13.9 17.5,13.9 17.5,13.9 
			18.3,13.9 19,13.9 19,14.6 19,14.6 19,14.6 19,14.6 19.8,14.6 19.8,14.6 19.8,14.6 19.8,14.6 19.8,14.6 19,14.6 18.3,14.6 
			18.3,14.6 17.5,14.6 16.8,14.6 16,14.6 15.3,14.6 14.5,15.3 14.5,15.3 14.5,15.3 13.8,15.3 13.8,15.3 14.5,15.3 14.5,15.3 
			14.5,15.3 14.5,15.3 14.5,15.3 15.3,15.3 15.3,15.3 16,15.3 16.8,15.3 16.8,15.3 17.5,15.3 18.3,15.3 18.3,15.3 18.3,16.1 
			18.3,16.1 18.3,16.1 18.3,16.1 16,16.1 16.8,16.1 16.8,16.1 16.8,16.1 16.8,16.1 16.8,16.1 16,16.1 16,16.1 16,16.1 16,16.1 
			16,16.1 16.8,16.1 17.5,16.1 17.5,16.1 18.3,16.8 19,16.8 19,16.8 19.8,16.8 19.8,16.8 19.8,16.8 19.8,16.8 19.8,16.8 19.8,16.8 
			16.8,16.8 16.8,16.8 16.8,16.8 16,17.6 16.8,17.6 16.8,17.6 16.8,17.6 16.8,17.6 16.8,17.6 17.5,17.6 18.3,17.6 19,17.6 19,17.6 
			19.8,17.6 20.5,17.6 21.3,18.3 22,18.3 22,18.3 22,18.3 22,18.3 22,18.3 21.3,18.3 20.5,18.3 19,18.3 18.3,18.3 17.5,18.3 
			16,18.3 15.3,18.3 14.5,18.3 14.5,19.1 14.5,19.1 14.5,19.1 14.5,19.1 15.3,19.1 15.3,19.1 16,19.1 16.8,19.1 17.5,19.1 
			18.3,19.1 19,19.1 19.8,19.8 19.8,19.8 19.8,19.8 19.8,19.8 19.8,19.8 19.8,19.8 19.8,19.8 19.8,19.8 19,19.8 16,19.8 16,19.8 
			16,19.8 16,19.8 16,20.6 16,20.6 19,20.6 19,20.6 19,20.6 19,20.6 19,20.6 17.5,20.6 16,20.6 16,20.6 16,20.6 16,21.3 16,21.3 
			15.3,21.3 16,21.3 16,21.3 16.8,21.3 16.8,21.3 17.5,21.3 17.5,21.3 18.3,21.3 18.3,22.1 19,22.1 19,22.1 19,22.1 19,22.1 
			16.8,22.1 16.8,23.6 18.3,23.6 18.3,25 19,25 19,25 19,25 19,25 19,25 18.3,25 18.3,25 18.3,25 17.5,24.3 17.5,24.3 17.5,24.3 
			18.3,24.3 18.3,23.6 18.3,23.6 18.3,23.6 15.3,24.3 15.3,25 15.3,25 15.3,25 15.3,25 16,25 16,25 16,25 16,25 16,25 16,25 16,25 
			16,25 16,25 19,25 19,25 19,25 19,25 19,25.8 19.8,25.8 19.8,25.8 19.8,25.8 19.8,25.8 19.8,25.8 16.8,25.8 16.8,26.5 18.3,27.3 
			18.3,27.3 18.3,27.3 18.3,27.3 18.3,27.3 17.5,27.3 17.5,27.3 17.5,28 17.5,28 17.5,28.8 19,28.8 19,28.8 19,28.8 19,28.8 
			19,28.8 16,28.8 16,28.8 16,28.8 16,28.8 16,28.8 13.8,28.8 13.8,29.5 13.8,29.5 13.8,29.5 13.8,29.5 13.8,29.5 13.8,30.3 
			15.3,30.3 15.3,29.5 15.3,29.5 15.3,29.5 15.3,29.5 15.3,29.5 16,29.5 16,29.5 16,29.5 16,29.5 16,29.5 16,29.5 16,29.5 16,30.3 
			16,30.3 16,30.3 16,30.3 16,30.3 18.3,30.3 17.5,30.3 17.5,30.3 17.5,31 17.5,31 17.5,31 16.8,31 16.8,31 16,31 16,31 15.3,30.3 
			14.5,30.3 14.5,31 15.3,31 15.3,31 16,31 16,31 16,31.8 16.8,31.8 17.5,31.8 17.5,31 17.5,31.8 17.5,31.8 17.5,31.8 17.5,31.8 
			17.5,31.8 18.3,32.5 15.3,32.5 15.3,32.5 15.3,32.5 15.3,32.5 15.3,32.5 15.3,32.5 15.3,32.5 15.3,32.5 15.3,32.5 16,32.5 
			16,33.3 16,33.3 16,33.3 16,33.3 18.3,33.3 18.3,33.3 18.3,33.3 18.3,34 18.3,34 15.3,33.3 15.3,34 15.3,34 15.3,34 15.3,34.8 
			16,34.8 16,34 16,34 16,34 16,34 16.8,34 16.8,34 16.8,34 16.8,34 16.8,34.8 17.5,34.8 17.5,34.8 17.5,34.8 17.5,34.8 17.5,35.5 
			17.5,35.5 17.5,34.8 16.8,35.5 16,35.5 16,35.5 16,35.5 16,35.5 16,35.5 16,36.2 16,36.2 16,36.2 16,36.2 16,36.2 16,36.2 
			16,36.2 16,36.2 16,36.2 16,36.2 16,36.2 16,36.2 16,36.2 16,36.2 17.5,37 19.8,31 20.5,30.3 20.5,29.5 21.3,28.8 21.3,28 
			22,27.3 22,26.5 22,25 22.8,24.3 22.8,24.3 22.8,24.3 22.8,24.3 22.8,24.3 22.8,24.3 22.8,24.3 22.8,24.3 22.8,24.3 22.8,23.6 
			22.8,23.6 23.5,22.8 24.3,22.8 24.3,22.1 24.3,22.1 24.3,22.1 24.3,22.1 24.3,22.1 24.3,21.3 24.3,21.3 24.3,20.6 24.3,20.6 
			24.3,19.8 24.3,19.1 24.3,19.1 24.3,18.3 24.3,16.8 24.3,16.8 24.3,16.8 24.3,16.1 24.3,16.1 24.3,16.1 24.3,16.1 24.3,15.3 
			25,15.3 24.3,15.3 25,14.6 25,13.9 25,13.9 25,13.1 24.3,13.1 		"/>
		<polygon points="23.5,41.5 23.5,40.7 23.5,40.7 23.5,40.7 23.5,40.7 23.5,40.7 23.5,41.5 23.5,41.5 23.5,41.5 23.5,41.5 
			23.5,41.5 23.5,42.2 23.5,43 23.5,43 23.5,43.7 23.5,44.5 22.8,45.2 22.8,46 22.8,46.7 22.8,46.7 22.8,47.4 22.8,48.2 22.8,48.9 
			22.8,48.9 22.8,49.7 22.8,50.4 22.8,50.4 22.8,50.4 22.8,50.4 22.8,50.4 22.8,50.4 22.8,50.4 22.8,49.7 22.8,49.7 22.8,48.9 
			22.8,48.9 22.8,48.2 22.8,47.4 22.8,47.4 23.5,46.7 23.5,46 23.5,46 23.5,45.2 23.5,44.5 23.5,44.5 23.5,43.7 23.5,43.7 23.5,43 
			23.5,43 23.5,42.2 23.5,42.2 		"/>
		<polygon points="24.3,16.1 24.3,16.1 24.3,16.1 24.3,16.1 24.3,16.1 24.3,16.1 24.3,16.1 23.5,16.1 23.5,16.1 23.5,14.6 
			23.5,14.6 23.5,14.6 23.5,14.6 23.5,14.6 23.5,14.6 23.5,14.6 23.5,14.6 23.5,14.6 23.5,15.3 23.5,15.3 23.5,15.3 22.8,16.1 
			23.5,16.1 24.3,16.1 24.3,16.1 24.3,16.1 		"/>
		<polygon points="23.5,21.3 23.5,21.3 23.5,21.3 23.5,21.3 23.5,20.6 23.5,20.6 23.5,20.6 23.5,20.6 23.5,20.6 23.5,20.6 
			23.5,20.6 23.5,20.6 23.5,20.6 23.5,20.6 23.5,21.3 23.5,21.3 23.5,21.3 23.5,21.3 23.5,21.3 23.5,21.3 22.8,21.3 22.8,21.3 
			22.8,21.3 22.8,22.1 22.8,22.1 22.8,22.1 23.5,22.1 23.5,22.1 23.5,22.1 		"/>
		<polygon points="22.8,40.7 22.8,40.7 22.8,40.7 22,40.7 22,40.7 22,40.7 22,40.7 22,40.7 22,40.7 22,40.7 22,40.7 22,40.7 
			22,40.7 22,40.7 22,41.5 22,41.5 22,42.2 22,42.2 22,43 22,43.7 22,43.7 22,44.5 22,45.2 22,46 22,46.7 22,47.4 22,48.2 22,48.9 
			21.3,49.7 21.3,50.4 21.3,50.4 21.3,50.4 21.3,50.4 22,50.4 		"/>
		<path d="M22.8,38.5H22H22.8z"/>
		<polygon points="22.8,29.5 22.8,29.5 22.8,29.5 22.8,29.5 22.8,29.5 22.8,29.5 22.8,29.5 22.8,29.5 22.8,29.5 22,30.3 22,30.3 
			22,30.3 22,30.3 22.8,30.3 		"/>
		<polygon points="22.8,37 22.8,37 22.8,37 22.8,37 22,37 22,37 22.8,37 		"/>
		<polygon points="22,33.3 22,33.3 22,33.3 22,33.3 22,33.3 22,32.5 22,32.5 22,32.5 22,32.5 21.3,33.3 21.3,33.3 21.3,33.3 
			21.3,34 21.3,34 22,34 22,34 22,34 22,34 		"/>
		<polygon points="22.8,12.4 22.8,12.4 22.8,12.4 22.8,12.4 22.8,12.4 22.8,12.4 22,12.4 22,12.4 21.3,12.4 21.3,12.4 21.3,13.1 
			21.3,13.1 21.3,13.9 21.3,13.9 21.3,14.6 21.3,14.6 21.3,15.3 22.8,15.3 		"/>
		<polygon points="21.3,43.7 21.3,40.7 21.3,40.7 21.3,40.7 21.3,40.7 20.5,40.7 20.5,50.4 20.5,50.4 20.5,50.4 20.5,50.4 
			20.5,50.4 20.5,50.4 20.5,50.4 20.5,50.4 20.5,50.4 		"/>
		<polygon points="22,23.6 22,23.6 22,23.6 22,23.6 22,23.6 22,23.6 22,23.6 21.3,23.6 21.3,23.6 21.3,22.8 21.3,22.8 20.5,22.8 
			20.5,22.8 20.5,22.8 20.5,22.8 20.5,22.8 20.5,23.6 20.5,23.6 20.5,23.6 20.5,23.6 20.5,23.6 21.3,23.6 22,23.6 22,23.6 22,23.6 
			22,23.6 22,23.6 22,23.6 		"/>
		<polygon points="22,21.3 22,21.3 22,21.3 22,20.6 22,20.6 22,20.6 22,20.6 22,20.6 22,20.6 22,20.6 22,20.6 21.3,21.3 21.3,21.3 
			21.3,21.3 21.3,21.3 20.5,21.3 20.5,20.6 20.5,21.3 20.5,21.3 20.5,21.3 20.5,21.3 20.5,21.3 20.5,21.3 20.5,21.3 20.5,21.3 
			21.3,21.3 21.3,21.3 21.3,21.3 21.3,21.3 22,21.3 22,21.3 22,21.3 22,21.3 		"/>
		<polygon points="21.3,25 21.3,24.3 21.3,24.3 21.3,24.3 21.3,24.3 21.3,24.3 20.5,24.3 20.5,24.3 20.5,24.3 20.5,25 21.3,25 
			21.3,25 21.3,25 21.3,25 21.3,25 21.3,25 		"/>
		<polygon points="19.8,43 19.8,40.7 19.8,40.7 19.8,40.7 19.8,40.7 19.8,40.7 19.8,41.5 19.8,41.5 19.8,42.2 19.8,43 19,43.7 
			19,43.7 19,44.5 19,45.2 19,46 19,46 19,46.7 19,47.4 19,47.4 19,48.2 19,48.2 19,48.9 19,48.9 19,49.7 19,49.7 19,49.7 19,49.7 
			19,49.7 19,49.7 19,49.7 19,49.7 19,49.7 19,49.7 19,49.7 19,48.9 19,48.2 19,48.2 19,47.4 19.8,46.7 19.8,46 19.8,46 19.8,45.2 
			19.8,45.2 19.8,44.5 19.8,44.5 19.8,43.7 19.8,43.7 19.8,43.7 		"/>
		<polygon points="19,51.2 19,51.2 19,51.2 19,51.2 19,51.2 19,51.2 19,51.2 19,51.2 19,51.2 19,51.2 19,51.2 		"/>
		<polygon points="19,40.7 19,40 19,40 19,40.7 19,40.7 19,40.7 19,40.7 19,40.7 19,40.7 		"/>
		<polygon points="18.3,48.2 18.3,46.7 18.3,47.4 17.5,50.4 18.3,49.7 18.3,48.2 18.3,48.2 18.3,48.2 		"/>
		<polygon points="18.3,46 18.3,45.2 18.3,45.2 18.3,46 18.3,46 18.3,46 18.3,46 18.3,46 		"/>
		<polygon points="17.5,37 17.5,37 17.5,37 17.5,37 17.5,37 15.3,37 15.3,37 15.3,37 15.3,37 15.3,37 14.5,37 14.5,37 14.5,37 
			14.5,37 14.5,37 14.5,37 14.5,37 14.5,37.7 14.5,37.7 16.8,37.7 16.8,37.7 16.8,37.7 16.8,37.7 16.8,37.7 14.5,37.7 16.8,38.5 
			16.8,38.5 16.8,38.5 16.8,38.5 16.8,38.5 16,39.2 16,39.2 16,40 15.3,40 15.3,40 15.3,40 16,40 16,40 16,40.7 15.3,40.7 16,40.7 
			16,40 16,40 16,40 16,39.2 16.8,39.2 17.5,37 17.5,37 17.5,37 		"/>
		<polygon points="16.8,27.3 14.5,27.3 14.5,28 16.8,28.8 16.8,27.3 16.8,27.3 16.8,27.3 		"/>
		<polygon points="17.5,13.9 17.5,13.9 17.5,13.9 17.5,13.9 17.5,13.1 17.5,13.1 17.5,13.1 15.3,13.1 15.3,13.9 15.3,13.9 
			15.3,13.9 15.3,13.9 15.3,13.9 17.5,13.9 17.5,13.9 17.5,13.9 		"/>
		<polygon points="16,26.5 16,25.8 13.8,25.8 13.8,26.5 16,26.5 16,26.5 16,26.5 		"/>
		<polygon points="16,23.6 16,22.1 13.8,22.8 13.8,23.6 13.8,23.6 13.8,22.8 13.8,22.8 13.8,22.8 14.5,23.6 14.5,23.6 14.5,23.6 
			14.5,23.6 14.5,23.6 16,23.6 16,23.6 16,23.6 		"/>
		<polygon points="16,17.6 16,16.8 14.5,16.8 14.5,16.8 14.5,16.8 14.5,17.6 15.3,17.6 15.3,17.6 15.3,17.6 15.3,17.6 15.3,17.6 
			15.3,17.6 15.3,17.6 14.5,17.6 14.5,17.6 15.3,17.6 15.3,17.6 15.3,17.6 15.3,17.6 15.3,17.6 16,17.6 16,17.6 16,17.6 		"/>
		<polygon points="16,12.4 16,12.4 16,12.4 16,12.4 16,11.6 14.5,12.4 14.5,12.4 14.5,12.4 14.5,12.4 14.5,12.4 14.5,12.4 
			14.5,12.4 14.5,12.4 14.5,12.4 14.5,12.4 14.5,12.4 14.5,12.4 14.5,12.4 14.5,12.4 14.5,12.4 14.5,13.1 13.8,13.1 		"/>
		<polygon points="15.3,33.3 15.3,33.3 15.3,32.5 15.3,32.5 15.3,32.5 15.3,32.5 15.3,32.5 15.3,32.5 14.5,32.5 14.5,32.5 
			14.5,32.5 14.5,32.5 14.5,32.5 13,32.5 13,32.5 13,32.5 13,32.5 13,32.5 14.5,33.3 		"/>
		<polygon points="15.3,19.8 15.3,19.8 15.3,19.8 15.3,19.8 15.3,19.1 14.5,19.1 14.5,19.8 14.5,19.8 14.5,19.8 15.3,19.8 
			15.3,19.8 15.3,19.8 15.3,19.8 15.3,19.8 15.3,19.8 15.3,19.8 		"/>
		<polygon points="15.3,19.8 15.3,19.8 15.3,19.8 15.3,19.8 15.3,19.8 14.5,19.8 15.3,19.8 15.3,19.8 15.3,19.8 15.3,20.6 
			15.3,20.6 15.3,20.6 15.3,20.6 15.3,20.6 15.3,20.6 15.3,19.8 		"/>
		<polygon points="14.5,50.4 14.5,50.4 14.5,50.4 14.5,50.4 14.5,50.4 13.8,50.4 13.8,50.4 13.8,50.4 		"/>
		<path d="M15.3,16.8h-0.8H15.3z"/>
		<polygon points="14.5,25 14.5,25 14.5,25 14.5,24.3 14.5,24.3 13.8,24.3 13.8,25 14.5,25 14.5,25 14.5,25 		"/>
		<polygon points="13.8,27.3 13.8,28 13.8,28 13.8,28 13.8,28 13.8,28 13.8,28 13.8,28 13.8,28 		"/>
		<polygon points="14.5,13.9 14.5,13.9 14.5,13.9 14.5,13.9 14.5,13.9 14.5,13.9 14.5,13.9 14.5,13.9 13.8,13.9 13.8,13.9 
			13.8,13.9 13.8,13.9 13.8,13.9 14.5,13.9 14.5,13.9 14.5,13.9 		"/>
		<polygon points="6.3,51.2 5.5,51.2 5.5,51.2 5.5,51.2 5.5,51.2 		"/>
		<polygon points="1,57.9 1,57.9 1,57.9 1,57.9 1,57.9 1,57.9 1,57.9 1,57.9 1,57.9 1,57.9 1,57.9 1,57.9 		"/>
		<polygon points="-1.2,57.9 -1.2,57.9 -2,57.9 -2,57.9 -2,58.6 -2,58.6 -2,58.6 -2,58.6 -2,58.6 -2,58.6 -2,58.6 -2,58.6 -2,58.6 
			-1.2,58.6 -1.2,58.6 		"/>
	</g>
</g>
<g>
	<polygon class="st2" points="68.4,63 80.5,63 74.5,58.9 	"/>
	<g>
		<path class="st2" d="M9.6,0C4.5,0,0.4,3.4,0,7.6l0,0v55.1h19.2v-55l0,0C18.8,3.4,14.7,0,9.6,0z"/>
		<polygon class="st2" points="71.5,22.3 37,22.3 28.8,31.3 21.9,46.3 21.9,62.8 55.8,62.8 56.5,62.8 56.5,46.3 56.6,46.3 
			63.1,31.3 		"/>
		<polygon class="st2" points="66.5,61.9 72.9,57.5 66.5,53 		"/>
		<polygon class="st2" points="68.6,52.1 74.6,56.3 80.6,52.1 		"/>
		<polygon class="st2" points="82.8,61.9 82.8,53 76.3,57.5 		"/>
		<path class="st2" d="M83.2,31.3l-7.5-8c0,0-0.3-0.4-0.9-0.4s-1,0.4-1,0.4l-7.7,8l-6.8,15v16.5h5.3V50.2h20.2v12.6h5.3V46.3
			L83.2,31.3z M80.4,43.7H68.9v-9.6h11.5V43.7L80.4,43.7z"/>
		<rect x="70.8" y="36.1" class="st2" width="7.6" height="5.7"/>
	</g>
</g>
</svg>
