<?xml version="1.0" encoding="utf-8"?>
<!-- Generator: Adobe Illustrator 23.1.1, SVG Export Plug-In . SVG Version: 6.00 Build 0)  -->
<svg version="1.1" id="Layer_1" xmlns="http://www.w3.org/2000/svg" xmlns:xlink="http://www.w3.org/1999/xlink" x="0px" y="0px"
	 viewBox="0 0 289.1 153.5" style="enable-background:new 0 0 289.1 153.5;" xml:space="preserve">
<style type="text/css">
	.st0{fill:#102E52;}
	.st1{fill:#102E52;stroke:#102E52;stroke-width:4;stroke-miterlimit:10;}
	.st2{fill:#102E52;stroke:#FFFFFF;stroke-width:4;stroke-miterlimit:10;}
</style>
<polygon class="st0" points="150.1,91.5 77.2,25.9 75.4,24.3 73.6,25.9 1.9,91.6 0,93.4 1.9,95 14.2,105.9 16,107.6 17.8,105.9 
	75.4,51.5 133.8,105.6 135.6,107.2 137.4,105.6 150,94.9 152,93.2 "/>
<polygon class="st0" points="134.1,152.9 134.1,109.2 132,107.2 75.4,54.8 19.7,107.5 17.9,109.2 17.9,152.9 55,152.9 55,97 97,97 
	97,152.9 "/>
<ellipse class="st0" cx="85" cy="129.1" rx="3.9" ry="3.6"/>
<polygon class="st0" points="131.7,152.9 131.7,107.3 243.3,107.3 243.3,152.9 220.6,152.9 220.6,116.4 153.1,116.4 153.1,152.9 "/>
<rect x="134.8" y="95.1" class="st0" width="108.6" height="23.4"/>
<line class="st1" x1="176.9" y1="149.9" x2="197.6" y2="149.9"/>
<polygon class="st0" points="246.6,67.2 185.8,1.6 184.3,0 182.8,1.6 123,67.3 121.5,69.1 123.1,70.7 133.3,81.7 134.9,83.3 
	136.3,81.6 184.3,27.2 233.1,81.3 234.5,82.9 236,81.3 246.6,70.6 248.3,68.9 "/>
<polygon class="st0" points="233.3,107.6 233.3,84.9 231.6,83 184.4,30.5 137.9,83.3 136.4,85 136.4,107.6 167.4,107.6 167.4,72.7 
	202.3,72.7 202.3,107.6 "/>
<path class="st2" d="M259.7,153.4v-20c0-1.1,0.8-1.6,1.9-1.4c3,0.5,6.5,0.5,9.7-0.3c8.7-2.4,14.9-9.7,15.7-18.7s-3.8-16.8-10.8-20.9
	c-0.3-0.3-0.5-0.5-0.5-1.1c0.8-3.8,0.8-8.1-1.1-12.5c-3.5-8.4-11.7-14.1-20.9-13.5c-11.7,0.5-20.9,10-20.9,21.7c0,1.6,0.3,3,0.5,4.6
	c0,0.5,0,0.8-0.5,1.1c-7,4.1-11.7,11.9-10.8,20.9c0.8,9.2,7.6,16.5,16.5,18.7c3.2,0.8,6.2,0.8,9.2,0.3c0.8-0.3,1.9,0.5,1.9,1.4v19.8
	"/>
</svg>
