<svg enable-background="new 0 0 512 512" viewBox="0 0 512 512" xmlns="http://www.w3.org/2000/svg" xmlns:xlink="http://www.w3.org/1999/xlink"><clipPath id="a"><path d="m746.5-69.6h226.4v233.7h-226.4z"/></clipPath><g fill="#027a48"><path d="m339 314.9-163.6-282.9h161.2l163.6 282.9zm-137.5 23.6-80.6 141.5h310.5l80.6-141.5zm-47.4-271.1-154.1 271.1 80.6 141.5 156.4-271.2z"/><g clip-path="url(#a)"><path d="m746.5 47.9c0-28.6 0-57.3 0-85.9-.9-13.5 7.6-25.9 20.7-29.8 3.4-1.1 6.9-1.7 10.4-1.7 22.7-.1 45.3-.1 68-.1 6.5-.2 12.8 2.4 17.4 7.1 17.2 17.4 34.6 34.7 51.9 52 4.6 4.6 7.1 11 6.8 17.5 0 19.6 0 39.2.1 58.9 0 2.8-1.1 3.7-3.7 3.5-2.2-.2-4.4-.2-6.6 0-3.2.3-4.3-1-4.2-4.2.1-14.4 0-28.8.1-43.1 0-3.3-.9-4.1-4.1-4.1-15.2.2-30.5.1-45.7 0-10.3.5-19.5-6.2-22.2-16.1-.7-2.7-1-5.5-.9-8.3-.1-14.6 0-29.2 0-43.9 0-4.6-.2-4.7-4.7-4.7-17.2 0-34.4 0-51.6 0-6-1-11.9 1.8-15 7-1.5 3.1-2.3 6.4-2.4 9.8-.2 57.1-.2 114.1-.1 171.1-.9 8.4 5.1 16 13.6 17 1.2.1 2.3.1 3.5 0 5.4 0 10.7.1 16.1 0 2.5 0 3.6.8 3.4 3.4-.2 2.8.1 5.6-.1 8.4-.1.9-1.4 2.4-2.1 2.4-7.6 0-15.2.3-22.6-.4-13.8-1.3-24.6-12.4-25.6-26.2-.5-7.4-.4-14.8-.4-22.3 0-22.5 0-44.9 0-67.3m159.4-44.4-56.9-57c-.2.9-.3 1.7-.3 2.6v44.5c0 7.6 2.5 10.1 10.1 10.1h44.5c1.2.1 2.3-.1 2.6-.2"/><path d="m921.5 127.2c0 5.5.4 11-.1 16.4-.6 11.7-10.3 20.7-22 20.5-4.5.1-9 0-13.5 0-3.6.5-7-2-7.6-5.6 0-.3-.1-.6-.1-.9-.2-1.2-.3-2.4-.2-3.6 0-17.3 0-34.5 0-51.8 0-8.1 2.3-10.6 10.4-10.3 6.2-.1 12.4.4 18.4 1.4 8.3 1.9 14.2 9.2 14.5 17.7.4 5.4.1 10.9.1 16.4h.1m-29.1.4v15.2c0 7.4 0 7.4 7.6 6.8 4.3-.3 7.1-2.5 7.2-6.7.2-10.2.2-20.4 0-30.6.1-3.4-2.5-6.2-5.8-6.4-1.5-.3-3.1-.1-4.7-.3-3.1-.4-4.4.8-4.3 4 .1 6-.1 12-0 18"/><path d="m834.1 142.1c0 5.3.2 9.8 0 14.3-.3 5.3-2.8 7.7-7.3 7.7-3.3.4-6.3-2-6.6-5.4 0-.2 0-.3 0-.5-.1-1.2-.2-2.4-.2-3.7 0-17.8 0-35.6 0-53.3 0-7.6 1.9-9.7 9.5-9.5 6.8-.2 13.5.4 20.2 1.6 11.3 3.1 18.6 14.1 16.9 25.7-.7 12-10.1 21.8-22.1 23-3.3.3-6.6 0-10.4.1m0-25.5v4c0 7.8.8 8.5 8.7 7.1 6.1-1 10.2-6.7 9.3-12.7-.3-1.7-.9-3.3-1.9-4.6-2.7-3.4-7-5.1-11.4-4.6-4.8 0-4.8 0-4.8 4.6-0 2-0 4.1.1 6.2"/><path d="m951.1 120.7c4.9 0 9.2-.2 13.6 0 6.5.3 9.9 5.3 7.3 10.6-1.1 2.4-3.6 3.8-6.3 3.6-3.9 0-7.8.1-11.7 0-2.2-.1-3 .7-3 3 .1 6.1.2 12.2 0 18.3-.2 5.5-2.8 8-7.5 7.9-3.3.3-6.2-2.2-6.5-5.5v-.1c-.2-1.3-.2-2.7-.2-4 0-17.7 0-35.3 0-52.9 0-8 1.9-9.8 10-9.8 6.5 0 12.9-.2 19.4.2 3.7 0 6.7 3 6.7 6.7 0 1.5-.5 2.9-1.4 4.1-1.6 1.7-3.8 2.7-6.2 2.9-3.8.3-7.6.4-11.4.1-2.2-.1-3 .8-2.9 3 .2 3.7.1 7.4.1 11.9"/></g></g></svg>