<svg id="Group_5938" data-name="Group 5938" xmlns="http://www.w3.org/2000/svg" xmlns:xlink="http://www.w3.org/1999/xlink" width="17.925" height="17.937" viewBox="0 0 17.925 17.937">
  <defs>
    <clipPath id="clip-path">
      <rect id="Rectangle_3140" data-name="Rectangle 3140" width="17.925" height="17.937" fill="#027a48"/>
    </clipPath>
  </defs>
  <g id="Group_5840" data-name="Group 5840" clip-path="url(#clip-path)">
    <path id="Path_3465" data-name="Path 3465" d="M0,9.022q0-3.295,0-6.59A2.23,2.23,0,0,1,1.6.129,2.745,2.745,0,0,1,2.428.007C4.139,0,5.85.005,7.561,0A1.863,1.863,0,0,1,8.967.573q1.95,1.975,3.923,3.927a1.834,1.834,0,0,1,.554,1.36c0,1.327,0,2.655.005,3.982,0,.2-.07.27-.264.259a4.464,4.464,0,0,0-.561,0c-.226.015-.29-.087-.288-.3.007-.935,0-1.869.009-2.8,0-.23-.071-.282-.286-.281q-1.767.013-3.534,0a1.684,1.684,0,0,1-1.7-1.233,2.262,2.262,0,0,1-.066-.636c-.006-1.122,0-2.243,0-3.365,0-.351-.013-.362-.362-.363-1.318,0-2.637,0-3.955,0a1.126,1.126,0,0,0-1.149.535,1.785,1.785,0,0,0-.182.75Q1.085,8.987,1.1,15.562a1.172,1.172,0,0,0,1.3,1.278c.234,0,.468,0,.7,0,.16,0,.246.05.24.225-.008.224.008.449-.008.672-.005.068-.086.188-.131.187a4.308,4.308,0,0,1-1.85-.195A2.158,2.158,0,0,1,.032,15.919,11.248,11.248,0,0,1,0,14.686q0-2.832,0-5.664m12.224-3.41L7.858,1.245a1.417,1.417,0,0,0-.021.194q0,1.708,0,3.417c0,.584.189.769.774.77q1.709,0,3.418,0c.088,0,.176-.012.194-.013" transform="translate(0 0.001)" fill="#027a48"/>
    <path id="Path_3466" data-name="Path 3466" d="M89.789,112.924c0-.682,0-1.363,0-2.045,0-.534.2-.742.724-.728a9.119,9.119,0,0,1,1.527.107,1.924,1.924,0,0,1-.526,3.765c-.084,0-.168,0-.252,0-.373,0-.373,0-.375.367,0,.261.006.523-.006.784a.477.477,0,0,1-.442.52.487.487,0,0,1-.609-.4,1.492,1.492,0,0,1-.042-.387c0-.663,0-1.326,0-1.989m1.1-.86c0,.215-.008.43,0,.644a.272.272,0,0,0,.1.2,1.154,1.154,0,0,0,1.106-.292.828.828,0,0,0,.1-.941.875.875,0,0,0-.816-.445c-.5-.021-.5-.019-.5.469,0,.121,0,.243,0,.364" transform="translate(-79.696 -97.77)" fill="#027a48"/>
    <path id="Path_3467" data-name="Path 3467" d="M50.057,112.924c0-.682,0-1.363,0-2.045,0-.534.2-.742.724-.728a9.119,9.119,0,0,1,1.527.107,1.924,1.924,0,0,1-.526,3.765c-.084,0-.168,0-.252,0-.373,0-.373,0-.375.367,0,.261.006.523-.006.784a.477.477,0,0,1-.442.52.487.487,0,0,1-.609-.4,1.493,1.493,0,0,1-.042-.387c0-.663,0-1.326,0-1.989m1.1-.86c0,.215-.008.43,0,.644a.272.272,0,0,0,.1.2,1.154,1.154,0,0,0,1.106-.292.828.828,0,0,0,.1-.941.875.875,0,0,0-.816-.445c-.5-.021-.5-.019-.5.469,0,.121,0,.243,0,.364" transform="translate(-44.43 -97.77)" fill="#027a48"/>
    <path id="Path_3468" data-name="Path 3468" d="M132.233,113.326c0,.6.006,1.2,0,1.794-.005.359-.162.573-.416.614a.509.509,0,0,1-.662-.547c-.012-.514-.006-1.028-.006-1.542,0-.692-.006-1.383,0-2.075,0-.23-.076-.329-.311-.3a1.486,1.486,0,0,1-.336-.007.49.49,0,0,1-.47-.526.461.461,0,0,1,.459-.525q1.19-.028,2.382,0a.487.487,0,0,1,.468.527.5.5,0,0,1-.475.525,1.52,1.52,0,0,1-.168.009c-.464.01-.464.009-.464.486q0,.785,0,1.57Z" transform="translate(-115.418 -97.811)" fill="#027a48"/>
  </g>
</svg>
