<svg id="Group_1144" data-name="Group 1144" xmlns="http://www.w3.org/2000/svg" width="83.335" height="83.361" viewBox="0 0 83.335 83.361">
  <path id="Path_135" data-name="Path 135" d="M221.5,332.973a1.629,1.629,0,1,0-2.3,0A1.63,1.63,0,0,0,221.5,332.973Z" transform="translate(-183.194 -276.433)" fill="#0075b2"/>
  <path id="Path_136" data-name="Path 136" d="M188.449,17.9A17.9,17.9,0,1,0,206.354,0,17.925,17.925,0,0,0,188.449,17.9ZM221,17.9a14.65,14.65,0,1,1-14.65-14.649A14.666,14.666,0,0,1,221,17.9Z" transform="translate(-157.848)" fill="#0075b2"/>
  <path id="Path_137" data-name="Path 137" d="M19.249,260.63a1.627,1.627,0,0,0,2.3.013l7.891-7.774a4.919,4.919,0,0,0,1.159-5.051l1.7-1.637a4.854,4.854,0,0,1,3.389-1.369H57.322a14.574,14.574,0,0,0,10.218-4.151c.113-.11-.859,1.035,14.762-17.635a6.511,6.511,0,0,0-9.908-8.45l-9.6,9.872a6.541,6.541,0,0,0-5.061-2.423H39.578a21,21,0,0,0-8.151-1.627c-7.838,0-14.682,3.62-18.355,10.407a4.862,4.862,0,0,0-4.353,1.349L.976,239.919a1.628,1.628,0,0,0,0,2.3Zm12.177-36.979a17.769,17.769,0,0,1,7.166,1.491,1.624,1.624,0,0,0,.653.137H57.729a3.255,3.255,0,1,1,0,6.511H44.449a1.628,1.628,0,0,0,0,3.255h13.28a6.5,6.5,0,0,0,6.453-7.362c9.291-9.551,10.6-10.893,10.657-10.96a3.256,3.256,0,1,1,4.971,4.206l-14.6,17.453a11.334,11.334,0,0,1-7.89,3.173H35.683a8.092,8.092,0,0,0-5.65,2.282l-1.383,1.335L15.9,232.423C18.878,226.832,24.471,223.652,31.426,223.652Zm-20.4,10.8a1.624,1.624,0,0,1,2.015-.229c.282.172-.527-.565,14.1,14.04a1.631,1.631,0,0,1,.009,2.294l-6.728,6.628L4.424,241.071Z" transform="translate(-0.501 -177.751)" fill="#0075b2"/>
  <path id="Path_138" data-name="Path 138" d="M269.146,41.616v1.907a4.883,4.883,0,0,0,1.628,9.487,1.627,1.627,0,0,1,0,3.255,2.944,2.944,0,0,1-2.114-1.231,1.628,1.628,0,0,0-2.492,2.1,6.752,6.752,0,0,0,2.978,2.12v1.9a1.628,1.628,0,0,0,3.255,0V59.241a4.883,4.883,0,0,0-1.627-9.486,1.628,1.628,0,0,1,0-3.256,2.613,2.613,0,0,1,1.76.851,1.628,1.628,0,0,0,2.264-2.339,6.289,6.289,0,0,0-2.4-1.5v-1.9a1.628,1.628,0,1,0-3.255,0Z" transform="translate(-222.594 -33.477)" fill="#0075b2"/>
</svg>
