<svg xmlns="http://www.w3.org/2000/svg" width="33.755" height="37.723" viewBox="0 0 33.755 37.723">
  <g id="Group_4093" data-name="Group 4093" transform="translate(-180 -124.277)">
    <path id="Path_795" data-name="Path 795" d="M-475.679,25.8H-503.4a.546.546,0,0,0-.107.011,2.808,2.808,0,0,0-.328.046,2.812,2.812,0,0,0-2.239,2.746V55.654a2.806,2.806,0,0,0,2.8,2.8h21.033a.544.544,0,0,0,.384-.159l8.818-8.818a.544.544,0,0,0,.159-.384V28.6A2.806,2.806,0,0,0-475.679,25.8Z" transform="translate(686.542 103.543)" fill="#ffbf00"/>
    <g id="Group_4092" data-name="Group 4092" transform="translate(153.073 124.277)">
      <path id="Path_789" data-name="Path 789" d="M89.577,13.121a2.943,2.943,0,0,0,2.94-2.94V.553a.553.553,0,1,0-1.105,0V4.516h-.693V2.041a2.041,2.041,0,0,0-4.081,0v8.141A2.943,2.943,0,0,0,89.577,13.121Zm1.834-2.94a1.834,1.834,0,1,1-3.669,0V5.622h3.669v4.56ZM88.678,1.105a.936.936,0,0,1,.935.935V4.516H87.742V2.041A.937.937,0,0,1,88.678,1.105Z" transform="translate(-55.311)"/>
      <path id="Path_790" data-name="Path 790" d="M84.058,396H93.79a.553.553,0,1,0,0-1.105H84.058a.553.553,0,1,0,0,1.105Z" transform="translate(-52.409 -365.798)"/>
      <path id="Path_791" data-name="Path 791" d="M84.058,334.285H108.37a.553.553,0,1,0,0-1.105H84.058a.553.553,0,0,0,0,1.105Z" transform="translate(-52.409 -308.632)"/>
      <path id="Path_792" data-name="Path 792" d="M84.058,270.57H108.37a.553.553,0,0,0,0-1.105H84.058a.553.553,0,0,0,0,1.105Z" transform="translate(-52.409 -249.611)"/>
      <path id="Path_793" data-name="Path 793" d="M84.058,206.856H108.37a.553.553,0,1,0,0-1.105H84.058a.553.553,0,1,0,0,1.105Z" transform="translate(-52.409 -190.592)"/>
      <path id="Path_794" data-name="Path 794" d="M57.832,61.3H39.224a.553.553,0,1,0,0,1.105H57.832a1.747,1.747,0,0,1,1.745,1.745V84.435H52.849a2.24,2.24,0,0,0-2.238,2.238V93.4H29.777a1.747,1.747,0,0,1-1.745-1.745V64.15a1.742,1.742,0,0,1,1.745-1.745.553.553,0,1,0,0-1.105,2.848,2.848,0,0,0-2.85,2.85V91.656a2.854,2.854,0,0,0,2.85,2.85H51.163a.553.553,0,0,0,.391-.162l8.966-8.966a.553.553,0,0,0,.162-.391V64.15a2.853,2.853,0,0,0-2.85-2.85ZM52.849,85.54H58.8l-7.08,7.08V86.673A1.134,1.134,0,0,1,52.849,85.54Z" transform="translate(0 -56.784)"/>
    </g>
  </g>
</svg>
