<svg id="hand_1_" data-name="hand(1)" xmlns="http://www.w3.org/2000/svg" width="29.62" height="29.629" viewBox="0 0 29.62 29.629">
  <path id="Path_1303" data-name="Path 1303" d="M219.712,331.181a.579.579,0,1,0-.819,0A.579.579,0,0,0,219.712,331.181Zm0,0" transform="translate(-206.096 -311.085)"/>
  <path id="Path_1304" data-name="Path 1304" d="M188.449,6.364A6.364,6.364,0,1,0,194.813,0,6.371,6.371,0,0,0,188.449,6.364Zm11.571,0a5.207,5.207,0,1,1-5.207-5.207A5.213,5.213,0,0,1,200.02,6.364Zm0,0" transform="translate(-177.573)"/>
  <path id="Path_1305" data-name="Path 1305" d="M7.165,229.49a.578.578,0,0,0,.817,0l2.8-2.763a1.748,1.748,0,0,0,.412-1.8l.6-.582a1.725,1.725,0,0,1,1.2-.487H20.7a5.18,5.18,0,0,0,3.632-1.475c.04-.039-.305.368,5.247-6.268a2.314,2.314,0,0,0-3.521-3L22.64,216.63a2.325,2.325,0,0,0-1.8-.861H14.39a7.464,7.464,0,0,0-2.9-.578,7.158,7.158,0,0,0-6.524,3.7,1.728,1.728,0,0,0-1.547.479L.67,222.129a.579.579,0,0,0,0,.816Zm4.328-13.143a6.316,6.316,0,0,1,2.547.53.578.578,0,0,0,.232.049h6.57a1.157,1.157,0,1,1,0,2.314h-4.72a.578.578,0,0,0,0,1.157h4.72a2.311,2.311,0,0,0,2.294-2.617c3.3-3.395,3.768-3.872,3.788-3.9a1.157,1.157,0,1,1,1.767,1.5l-5.189,6.2a4.029,4.029,0,0,1-2.8,1.128H13.006a2.876,2.876,0,0,0-2.008.811l-.492.475-4.532-4.532A5.973,5.973,0,0,1,11.493,216.347Zm-7.252,3.839a.577.577,0,0,1,.716-.081c.1.061-.187-.2,5.011,4.99a.58.58,0,0,1,0,.815L7.58,228.266,1.9,222.538Zm0,0" transform="translate(-0.501 -200.033)"/>
  <path id="Path_1306" data-name="Path 1306" d="M266.981,40.567v.678a1.735,1.735,0,0,0,.578,3.372.578.578,0,0,1,0,1.157,1.046,1.046,0,0,1-.751-.438.579.579,0,0,0-.886.745,2.4,2.4,0,0,0,1.058.753v.675a.578.578,0,0,0,1.157,0v-.678a1.736,1.736,0,0,0-.578-3.372.579.579,0,0,1,0-1.157.929.929,0,0,1,.626.3.579.579,0,0,0,.8-.831,2.235,2.235,0,0,0-.852-.533v-.674a.578.578,0,1,0-1.157,0Zm0,0" transform="translate(-250.435 -37.674)"/>
</svg>
