<svg id="Group_5944" data-name="Group 5944" xmlns="http://www.w3.org/2000/svg" xmlns:xlink="http://www.w3.org/1999/xlink" width="17.925" height="17.917" viewBox="0 0 17.925 17.917">
  <defs>
    <clipPath id="clip-path">
      <rect id="Rectangle_3141" data-name="Rectangle 3141" width="17.925" height="17.917" fill="#027a48"/>
    </clipPath>
  </defs>
  <g id="Group_5842" data-name="Group 5842" clip-path="url(#clip-path)">
    <path id="Path_3469" data-name="Path 3469" d="M0,9.043q0-3.305,0-6.611A2.23,2.23,0,0,1,1.6.129,2.638,2.638,0,0,1,2.4.007C4.126,0,5.854,0,7.582,0A1.808,1.808,0,0,1,8.938.552q1.97,1.99,3.958,3.963a1.806,1.806,0,0,1,.534,1.338c0,1.326,0,2.652.006,3.978,0,.193-.067.272-.262.26a4.439,4.439,0,0,0-.56,0c-.224.015-.291-.084-.289-.3.007-.934,0-1.868.009-2.8,0-.228-.066-.284-.284-.282-1.177.009-2.353.008-3.53,0a1.682,1.682,0,0,1-1.7-1.23,2.263,2.263,0,0,1-.067-.636c-.006-1.12,0-2.241,0-3.361,0-.352-.012-.363-.36-.364-1.317,0-2.634,0-3.95,0a1.125,1.125,0,0,0-1.149.533,1.777,1.777,0,0,0-.183.749Q1.087,8.976,1.1,15.545a1.171,1.171,0,0,0,1.3,1.278c.243,0,.487-.014.727.01a.287.287,0,0,1,.2.186,4.389,4.389,0,0,1,0,.727c0,.059-.085.162-.129.161a4.827,4.827,0,0,1-1.718-.143A2.139,2.139,0,0,1,.037,15.9a13.825,13.825,0,0,1-.032-1.539Q0,11.7,0,9.043M12.27,5.62l.051-.093L7.889,1.093a2.125,2.125,0,0,0-.059.293c0,1.175,0,2.35,0,3.525,0,.51.208.708.719.709,1.1,0,2.2,0,3.3,0h.415" transform="translate(0 0)" fill="#027a48"/>
    <path id="Path_3470" data-name="Path 3470" d="M50.075,112.924c0-.709,0-1.418,0-2.126,0-.454.172-.639.624-.632a8.642,8.642,0,0,1,1.554.1,1.471,1.471,0,0,1,1.13,1.4c.022.82.027,1.642,0,2.462a1.664,1.664,0,0,1-1.709,1.579c-.336.01-.672,0-1.007,0-.416,0-.568-.155-.59-.574,0-.028,0-.056,0-.084q0-1.063,0-2.126m1.092.02v.7c0,.242-.007.485,0,.726,0,.082.031.207.086.235a.728.728,0,0,0,1.031-.53c.036-.761.028-1.526,0-2.288-.011-.35-.238-.521-.594-.542-.1-.006-.205,0-.307,0-.169-.014-.23.052-.227.225.009.493,0,.987,0,1.481" transform="translate(-44.451 -97.795)" fill="#027a48"/>
    <path id="Path_3471" data-name="Path 3471" d="M93.1,112.9c0,.485.022.971-.005,1.455a1.354,1.354,0,0,1-1.387,1.322c-.14,0-.28,0-.42,0a1.418,1.418,0,0,1-1.523-1.518c-.008-.653-.012-1.306,0-1.959a5.609,5.609,0,0,1,.1-1.134,1.286,1.286,0,0,1,1.144-.922,6.675,6.675,0,0,1,.839,0,1.358,1.358,0,0,1,1.25,1.248c0,.056.011.112.011.168q0,.672,0,1.343H93.1m-1.093,0c0-.419.007-.838,0-1.257,0-.114-.039-.314-.093-.326a2.409,2.409,0,0,0-.807-.078c-.225.029-.242.27-.241.476,0,.736,0,1.471,0,2.207,0,.59.085.672.683.661.336-.006.454-.116.46-.454.007-.41,0-.819,0-1.229" transform="translate(-79.68 -97.76)" fill="#027a48"/>
    <path id="Path_3472" data-name="Path 3472" d="M129.955,112.859c0-.485-.012-.971,0-1.456a1.333,1.333,0,0,1,1.242-1.279c.251-.016.5-.014.756-.005a1.414,1.414,0,0,1,1.293,1.781.527.527,0,0,1-.561.41.522.522,0,0,1-.485-.463c0-.009,0-.019,0-.028-.079-.621-.147-.672-.778-.627-.233.017-.374.124-.376.36q-.007,1.316,0,2.632a.358.358,0,0,0,.412.387c.084,0,.168,0,.252,0,.319,0,.44-.113.473-.423.052-.49.247-.723.581-.694s.511.279.506.769a1.388,1.388,0,0,1-1.449,1.438c-.168,0-.336,0-.5,0a1.345,1.345,0,0,1-1.359-1.317c-.019-.494,0-.989,0-1.484" transform="translate(-115.358 -97.748)" fill="#027a48"/>
  </g>
</svg>
