<svg xmlns="http://www.w3.org/2000/svg" xmlns:xlink="http://www.w3.org/1999/xlink" width="29.797" height="29.74" viewBox="0 0 29.797 29.74">
  <defs>
    <clipPath id="clip-path">
      <rect id="Rectangle_2012" data-name="Rectangle 2012" width="29.797" height="29.74" fill="rgba(0,0,0,0)"/>
    </clipPath>
  </defs>
  <g id="Group_4481" data-name="Group 4481" clip-path="url(#clip-path)">
    <path id="Path_1309" data-name="Path 1309" d="M17.428,126.771l-5.288-5.288.881-.881a.565.565,0,0,0-.4-.964h-4.4a.721.721,0,0,0-.721.721v4.4a.565.565,0,0,0,.964.4l.881-.881,4.352,4.351a1.22,1.22,0,0,1,.357.862v12.489h3.954V128.169a1.976,1.976,0,0,0-.579-1.4" transform="translate(-7.064 -112.676)" fill="none"/>
    <path id="Path_1310" data-name="Path 1310" d="M324.528,223.841l5.288-5.288-.881-.881a.564.564,0,0,1,.4-.964h4.4a.721.721,0,0,1,.721.721v4.4a.565.565,0,0,1-.964.4l-.881-.881-4.351,4.933a1.22,1.22,0,0,0-.357.863V233.4h-3.954v-8.164a1.977,1.977,0,0,1,.579-1.4" transform="translate(-305.096 -204.097)" fill="none"/>
    <path id="Path_1311" data-name="Path 1311" d="M198.312,10.784,195.2,7.672a.721.721,0,0,0-1.02,0l-3.112,3.112a.565.565,0,0,0,.4.964h1.246V36.333h3.954V11.748h1.246a.565.565,0,0,0,.4-.964" transform="translate(-179.792 -7.027)" fill="none"/>
    <path id="Path_1312" data-name="Path 1312" d="M2.281,117.794l4.043,4.043a.778.778,0,0,1,.229.554v3.991a.436.436,0,1,0,.873,0v-3.991a1.645,1.645,0,0,0-.485-1.171L2.59,116.869a.436.436,0,0,0-.617,0l-.881.881a.128.128,0,0,1-.218-.09v-4.4a.285.285,0,0,1,.284-.284h4.4a.128.128,0,0,1,.09.218l-.881.881a.44.44,0,0,0,0,.617l5.288,5.288a1.53,1.53,0,0,1,.451,1.089v13.377H7.426v-6.315a.436.436,0,0,0-.873,0v6.752a.436.436,0,0,0,.436.436h3.954a.436.436,0,0,0,.436-.436V121.067a2.4,2.4,0,0,0-.707-1.707l-4.979-4.979.572-.572a1.009,1.009,0,0,0-.708-1.709h-4.4A1.159,1.159,0,0,0,0,113.258v4.4a1.01,1.01,0,0,0,1.709.708Z" transform="translate(0 -105.576)"/>
    <path id="Path_1313" data-name="Path 1313" d="M326.877,214.851a.126.126,0,0,1-.139-.027l-.881-.881a.441.441,0,0,0-.636.02l-1.262,1.432a.436.436,0,1,0,.655.577l.955-1.083.552.552a1.009,1.009,0,0,0,1.709-.708v-4.4a1.159,1.159,0,0,0-1.157-1.157h-4.4a1.009,1.009,0,0,0-.708,1.709l.572.572-4.979,4.979a2.4,2.4,0,0,0-.707,1.707v8.164a.436.436,0,0,0,.436.436h3.954a.436.436,0,0,0,.437-.436v-6.257a.777.777,0,0,1,.229-.554l.019-.02,1.942-2.2a.436.436,0,0,0-.655-.577l-1.934,2.192a1.644,1.644,0,0,0-.475,1.161v5.821h-3.082v-7.727a1.532,1.532,0,0,1,.451-1.09l5.288-5.287a.44.44,0,0,0,0-.617l-.881-.881a.128.128,0,0,1,.091-.218h4.4a.285.285,0,0,1,.284.284v4.4a.125.125,0,0,1-.079.117" transform="translate(-298.033 -197.002)"/>
    <path id="Path_1314" data-name="Path 1314" d="M185.794,29.74h3.954a.436.436,0,0,0,.436-.436V5.155h.809a1.009,1.009,0,0,0,.708-1.709L188.59.334a1.169,1.169,0,0,0-1.637,0l-3.112,3.112a1.009,1.009,0,0,0,.708,1.709h.809V29.3a.436.436,0,0,0,.436.436M184.548,4.282a.129.129,0,0,1-.09-.218L187.57.952a.286.286,0,0,1,.4,0l3.112,3.112a.129.129,0,0,1-.09.218h-1.246a.437.437,0,0,0-.436.436V28.867H186.23V4.719a.436.436,0,0,0-.436-.436Z" transform="translate(-172.873 0)"/>
  </g>
</svg>
