<?xml version="1.0" encoding="utf-8"?>
<!-- Generator: Adobe Illustrator 19.1.0, SVG Export Plug-In . SVG Version: 6.00 Build 0)  -->
<svg version="1.1" id="Layer_1" xmlns="http://www.w3.org/2000/svg" xmlns:xlink="http://www.w3.org/1999/xlink" x="0px" y="0px"
	 viewBox="57.8 -8 49.8 50" style="enable-background:new 57.8 -8 49.8 50;" xml:space="preserve">
<g>
	<g>
		<g>
			<polygon points="106,11 59,11 59,7 82.5,-8 106,7 			"/>
		</g>
	</g>
	<g>
		<g>
			<path d="M107.6,39.6L105,29.5V13H60v16.5l-2.1,10.1c-0.3,1.2,0.8,2.4,1.7,2.4h46.8C107.3,42,107.9,40.8,107.6,39.6z M71,34h-5
				V21.5c0-1.4,1.1-2.5,2.5-2.5s2.5,1.1,2.5,2.5V34z M80,34h-5V21.5c0-1.4,1.1-2.5,2.5-2.5s2.5,1.1,2.5,2.5V34z M89,34h-5V21.5
				c0-1.4,1.1-2.5,2.5-2.5s2.5,1.1,2.5,2.5V34z M98,34h-5V21.5c0-1.4,1.1-2.5,2.5-2.5s2.5,1.1,2.5,2.5V34z"/>
		</g>
	</g>
</g>
</svg>
