<?xml version="1.0" encoding="utf-8"?>
<!-- Generator: Adobe Illustrator 23.1.1, SVG Export Plug-In . SVG Version: 6.00 Build 0)  -->
<svg version="1.1" id="Layer_1" xmlns="http://www.w3.org/2000/svg" xmlns:xlink="http://www.w3.org/1999/xlink" x="0px" y="0px"
	 viewBox="0 0 100 93.8" style="enable-background:new 0 0 100 93.8;" xml:space="preserve">
<style type="text/css">
	.st0{fill:#102E52;}
</style>
<g>
	<path class="st0" d="M76.8,70.6c-6.4,0-12.1,2.6-16.3,6.7c4.5,3,6.6,8.5,5.2,16.4H100C100,81,89.6,70.6,76.8,70.6z"/>
	<path class="st0" d="M51.1,79.2c-8,0-14.6,6.5-14.6,14.6h29.1C65.6,85.8,59.1,79.2,51.1,79.2z"/>
</g>
<polygon class="st0" points="86.7,5.8 86.7,0 67.2,0 67.2,5.8 54.7,5.8 54.7,8.5 54.7,8.5 54.7,47.2 60.8,53.3 60.8,12.2 67.5,12.2 
	67.5,64 73.7,64 73.7,12.2 80.3,12.2 80.3,64 86.5,64 86.5,12.2 93.6,12.2 93.6,68.4 100,73.9 100,5.8 "/>
<g>
	<path class="st0" d="M51.1,53.8H21.6l-3.3,40h11.8c0-11.5,9.4-20.9,20.9-20.9c1.5,0,3,0.2,4.4,0.5l0.5-0.5c1.5-1.5,3.2-2.8,4.9-3.9
		v-4.9L51.1,53.8z"/>
	<path class="st0" d="M0,38.3v55.5h18h0.4V38.3L9.2,15.7L0,38.3z M13.9,47.3c0,2.5-2.1,4.6-4.6,4.6s-4.6-2.1-4.6-4.6
		s2.1-4.6,4.6-4.6C11.8,42.6,13.9,44.7,13.9,47.3z"/>
</g>
</svg>
