<?xml version="1.0" encoding="utf-8"?>
<!-- Generator: Adobe Illustrator 23.1.1, SVG Export Plug-In . SVG Version: 6.00 Build 0)  -->
<svg version="1.1" id="Layer_1" xmlns="http://www.w3.org/2000/svg" xmlns:xlink="http://www.w3.org/1999/xlink" x="0px" y="0px"
	 viewBox="0 0 790.9 412.5" style="enable-background:new 0 0 790.9 412.5;" xml:space="preserve">
<style type="text/css">
	.st0{fill:#102E52;}
</style>
<path class="st0" d="M598.1,0c-43.7,0-79.3,35.6-79.3,79.3c0,3.5,0.2,6.9,0.7,10.3c38,9.8,66.2,44.3,66.2,85.4
	c0,24.7-10.2,47.9-28.2,64.6c23.2,18,37.1,45.7,37.6,75.1h9.5v-0.3h0.6c1.2-28.4,14.8-55,37.2-72.5c-18.1-16.7-28.4-40-28.4-64.8
	c0-39.6,26.3-73.2,62.3-84.3c0.8-4.4,1.2-8.9,1.2-13.5C677.4,35.6,641.8,0,598.1,0z"/>
<path class="st0" d="M386,0c-43.7,0-79.3,35.6-79.3,79.3c0,2.2,0.1,4.4,0.3,6.6c42,6.7,74.2,43.2,74.2,87
	c0,24.7-10.2,47.9-28.2,64.6c23.6,18.4,37.6,46.7,37.6,76.8c0,0.1,0,0.3,0,0.4h9.4v-2.4h0.6c1.2-28.4,14.8-55,37.2-72.5
	c-18.1-16.7-28.4-40-28.4-64.8c0-36.7,22.5-68.2,54.5-81.4c0.8-4.7,1.3-9.4,1.3-14.2C465.3,35.6,429.7,0,386,0z"/>
<path class="st0" d="M173.9,0c-43.7,0-79.3,35.6-79.3,79.3c0,1.9,0.1,3.8,0.2,5.7c45.7,3.2,81.9,41.4,81.9,87.9
	c0,24.7-10.2,47.9-28.2,64.6c23.6,18.4,37.6,46.7,37.6,76.8c0,0.1,0,0.3,0,0.4h9.4v-4.5h0.6c1.2-28.4,14.8-55,37.2-72.5
	c-18.2-16.7-28.4-40-28.4-64.8c0-33.6,18.9-62.8,46.6-77.7c1.1-5.2,1.6-10.5,1.6-15.9C253.1,35.6,217.6,0,173.9,0z"/>
<path class="st0" d="M177.3,314.3c0-29.1-14.3-56.3-38.3-72.9l-4.9-3.3l4.6-3.7c18.6-15.1,29.2-37.5,29.2-61.5
	c0-43.7-35.6-79.3-79.3-79.3S9.3,129.2,9.3,172.9c0,24,10.7,46.5,29.5,61.7l4.6,3.7l-4.8,3.4c-23.9,16.6-38.1,43.7-38.1,72.7v4.8H0
	v89.2h176.8v-84.6C177.1,320.5,177.3,317.4,177.3,314.3z"/>
<path class="st0" d="M381.8,314.3c0-29.1-14.3-56.3-38.4-72.9l-4.9-3.3l4.6-3.7c18.6-15.1,29.2-37.5,29.2-61.5
	c0-43.7-35.6-79.3-79.3-79.3s-79.3,35.6-79.3,79.3c0,24,10.7,46.5,29.5,61.7l4.6,3.7l-4.8,3.4c-23.9,16.6-38.1,43.7-38.1,72.7v4.8
	h-0.5v89.2h176.9v-84.6C381.6,320.5,381.8,317.4,381.8,314.3z"/>
<path class="st0" d="M586.3,316.4c0-29.1-14.3-56.3-38.4-72.9l-4.9-3.3l4.6-3.7c18.6-15.1,29.2-37.6,29.2-61.5
	c0-43.7-35.6-79.3-79.3-79.3s-79.3,35.6-79.3,79.3c0,24,10.7,46.5,29.5,61.7l4.6,3.7l-4.8,3.4c-23.9,16.6-38.1,43.7-38.1,72.7v4.8
	h-0.5v89.2h176.9v-84.7C586.1,322.6,586.3,319.4,586.3,316.4z"/>
<path class="st0" d="M752.4,245.6l-4.8-3.3l4.6-3.7c18.6-15.1,29.2-37.6,29.2-61.5c0-43.7-35.6-79.3-79.3-79.3
	c-43.7,0-79.3,35.6-79.3,79.3c0,24,10.7,46.5,29.5,61.7l4.6,3.7l-4.8,3.4c-23.8,16.6-38.1,43.7-38.1,72.7v4.8h-0.5v89.1h176.9v-84.6
	c0.3-3.1,0.5-6.3,0.5-9.4C790.8,289.4,776.5,262.1,752.4,245.6z"/>
</svg>
