<?xml version="1.0" encoding="utf-8"?>
<!-- Generator: Adobe Illustrator 23.1.1, SVG Export Plug-In . SVG Version: 6.00 Build 0)  -->
<svg version="1.1" id="Layer_1" xmlns="http://www.w3.org/2000/svg" xmlns:xlink="http://www.w3.org/1999/xlink" x="0px" y="0px"
	 viewBox="0 0 49.8 50" style="enable-background:new 0 0 49.8 50;" xml:space="preserve">
<style type="text/css">
	.st0{fill:#102E52;}
</style>
<g>
	<g>
		<g>
			<polygon class="st0" points="48.2,19 1.2,19 1.2,15 24.7,0 48.2,15 			"/>
		</g>
	</g>
	<g>
		<g>
			<path class="st0" d="M49.8,47.6l-2.6-10.1V21h-45v16.5L0.1,47.6C-0.2,48.8,0.9,50,1.8,50h46.8C49.5,50,50.1,48.8,49.8,47.6z
				 M13.2,42h-5V29.5c0-1.4,1.1-2.5,2.5-2.5s2.5,1.1,2.5,2.5V42z M22.2,42h-5V29.5c0-1.4,1.1-2.5,2.5-2.5s2.5,1.1,2.5,2.5V42z
				 M31.2,42h-5V29.5c0-1.4,1.1-2.5,2.5-2.5s2.5,1.1,2.5,2.5V42z M40.2,42h-5V29.5c0-1.4,1.1-2.5,2.5-2.5s2.5,1.1,2.5,2.5V42z"/>
		</g>
	</g>
</g>
</svg>
