<?xml version="1.0" encoding="utf-8"?>
<!-- Generator: Adobe Illustrator 23.1.1, SVG Export Plug-In . SVG Version: 6.00 Build 0)  -->
<svg version="1.1" id="Layer_1" xmlns="http://www.w3.org/2000/svg" xmlns:xlink="http://www.w3.org/1999/xlink" x="0px" y="0px"
	 viewBox="0 0 1152.5 587.5" style="enable-background:new 0 0 1152.5 587.5;" xml:space="preserve">
<style type="text/css">
	.st0{fill:#102E52;}
</style>
<polygon class="st0" points="679.8,304.3 349.5,7.4 341.4,0 333.3,7.4 8.5,305.1 0,312.9 8.6,320.5 64.4,370 72.7,377.3 80.7,369.7 
	341.5,123.1 606.2,368.2 614,375.5 622.2,368.5 679.6,320 688.7,312.2 "/>
<polygon class="st0" points="607.5,582.6 607.5,384.7 597.9,375.8 341.6,138.4 89,377.2 80.9,384.9 80.9,582.6 249.2,582.6 
	249.2,329.3 439.3,329.3 439.3,582.6 "/>
<ellipse class="st0" cx="398.5" cy="474.7" rx="17.8" ry="16.5"/>
<g>
	<path class="st0" d="M732.9,587.4v-78.3c0-1.3-1.3-2.5-2.5-3.8c-37.9-25.2-64.4-68.2-64.4-117.4c0-41.7,17.7-79.5,48-104.8
		c1.3-1.3,2.5-2.5,2.5-5c0-1.3,0-2.5,0-3.8c0-32.8,11.4-63.1,31.6-87.1c1.3-2.5,1.3-5-1.3-6.3c-11.4-3.8-22.7-6.3-35.3-7.6
		c-45.4,0-84.6,30.3-97.2,73.2c-5,16.4-5,32.8-1.3,48c0,2.5,0,3.8-2.5,5c-32.8,18.9-54.3,55.5-50.5,97.2c3.8,37.9,36.6,77,73.2,87.1
		c17.7,5,34.1,5,49.2,1.3c2.5-1.3,5,1.3,5,3.8v98.6"/>
	<path class="st0" d="M879.4,587v-93c0-5,3.8-7.6,8.8-6.3c13.9,2.5,30.3,2.5,45.4-1.3c40.4-11.4,69.4-45.4,73.2-87.1
		s-17.7-78.3-50.5-97.2c-1.3-1.3-2.5-2.5-2.5-5c3.8-17.7,3.8-37.9-5-58.1c-16.4-39.1-54.3-65.6-97.2-63.1
		c-54.3,2.5-97.2,46.7-97.2,101c0,7.6,1.3,13.9,2.5,21.5c0,2.5,0,3.8-2.5,5c-32.8,18.9-54.3,55.5-50.5,97.2
		c3.8,42.9,35.3,77,77,87.1c15.1,3.8,29,3.8,42.9,1.3c3.8-1.3,8.8,2.5,8.8,6.3v92.2"/>
	<path class="st0" d="M1023.3,585.8v-99.4c0,0,2.5-1.3,3.8,0c15.1,3.8,30.3,5,48,0c41.7-10.1,73.2-45.4,77-87.1
		s-17.7-79.5-50.5-98.5c-1.3-1.3-2.5-2.5-2.5-3.8c5-21.5,3.8-45.4-11.4-70.7c-15.1-26.5-40.4-44.2-70.7-49.2
		c-18.9-2.5-36.6,0-53,6.3c-2.5,1.3-3.8,3.8-1.3,6.3c18.9,21.5,31.6,51.8,31.6,85.8c0,1.3,0,2.5,0,3.8c0,1.3,0,2.5,1.3,2.5
		c31.6,26.5,49.2,64.4,49.2,106c0,49.2-25.2,90.9-63.1,116.1c-1.3,1.3-2.5,2.5-2.5,5v77"/>
</g>
</svg>
