<svg id="Layer_1" data-name="Layer 1" xmlns="http://www.w3.org/2000/svg" viewBox="0 0 36 36">
  <title>certificate</title>
  <g style="isolation: isolate">
    <path d="M42.76,28.17A1.68,1.68,0,0,1,42,31L37.6,32.13l1.25,4.36a1.71,1.71,0,0,1-2.09,2.09L32.4,37.34l-1.12,4.4a1.68,1.68,0,0,1-2.84.75l-3.16-3.23-3.16,3.23a1.67,1.67,0,0,1-2.84-.75l-1.12-4.4L13.8,38.58a1.71,1.71,0,0,1-2.09-2.09L13,32.13,8.55,31a1.68,1.68,0,0,1-.75-2.84L11,25,7.8,21.84A1.67,1.67,0,0,1,8.55,19L13,17.88l-1.24-4.36a1.71,1.71,0,0,1,2.09-2.09l4.36,1.25,1.12-4.41a1.69,1.69,0,0,1,2.84-.75l3.16,3.26,3.16-3.26a1.69,1.69,0,0,1,2.84.75l1.12,4.41,4.36-1.25a1.71,1.71,0,0,1,2.09,2.09L37.6,17.88,42,19a1.68,1.68,0,0,1,.75,2.84L39.53,25Z" transform="translate(-7.28 -7.01)" style="fill: #102E52"/>
  </g>
</svg>
