<?xml version="1.0" encoding="utf-8"?>
<!-- Generator: Adobe Illustrator 23.1.1, SVG Export Plug-In . SVG Version: 6.00 Build 0)  -->
<svg version="1.1" id="Layer_1" xmlns="http://www.w3.org/2000/svg" xmlns:xlink="http://www.w3.org/1999/xlink" x="0px" y="0px"
	 viewBox="0 0 790.9 318.9" style="enable-background:new 0 0 790.9 318.9;" xml:space="preserve">
<style type="text/css">
	.st0{fill:#102E52;}
</style>
<path class="st0" d="M274.3,223.7c0-29.1-14.3-56.3-38.3-72.9l-4.9-3.3l4.6-3.7c18.6-15.1,29.2-37.5,29.2-61.5
	c0-43.7-35.6-79.3-79.3-79.3s-79.3,35.6-79.3,79.3c0,24,10.7,46.5,29.5,61.7l4.6,3.7l-4.8,3.4c-23.9,16.6-38.1,43.7-38.1,72.7v4.8
	H97v89.2h176.8v-84.6C274.1,229.9,274.3,226.8,274.3,223.7z"/>
<path class="st0" d="M478.8,223.7c0-29.1-14.3-56.3-38.4-72.9l-4.9-3.3l4.6-3.7c18.6-15.1,29.2-37.5,29.2-61.5
	C469.3,38.6,433.7,3,390,3s-79.3,35.6-79.3,79.3c0,24,10.7,46.5,29.5,61.7l4.6,3.7l-4.8,3.4c-23.9,16.6-38.1,43.7-38.1,72.7v4.8
	h-0.5v89.2h176.9v-84.6C478.6,229.9,478.8,226.8,478.8,223.7z"/>
<path class="st0" d="M649.4,152l-4.8-3.3l4.6-3.7c18.6-15.1,29.2-37.6,29.2-61.5c0-43.7-35.6-79.3-79.3-79.3s-79.3,35.6-79.3,79.3
	c0,24,10.7,46.5,29.5,61.7l4.6,3.7l-4.8,3.4C525.3,168.9,511,196,511,225v4.8h-0.5v89.1h176.9v-84.6c0.3-3.1,0.5-6.3,0.5-9.4
	C687.8,195.8,673.5,168.5,649.4,152z"/>
</svg>
