<?xml version="1.0" encoding="utf-8"?>
<!-- Generator: Adobe Illustrator 18.1.1, SVG Export Plug-In . SVG Version: 6.00 Build 0)  -->
<svg version="1.1" id="Layer_1" xmlns="http://www.w3.org/2000/svg" xmlns:xlink="http://www.w3.org/1999/xlink" x="0px" y="0px"
	 viewBox="0 0 432 432" enable-background="new 0 0 432 432" xml:space="preserve">
<g>
	<circle fill="#EFEFEF" cx="216" cy="216" r="216"/>
	<g>
		<defs>
			<circle id="SVGID_1_" cx="216" cy="216" r="216"/>
		</defs>
		<clipPath id="SVGID_2_">
			<use xlink:href="#SVGID_1_"  overflow="visible"/>
		</clipPath>
		<g clip-path="url(#SVGID_2_)">
			<path fill="#FFFFFF" d="M357,443.1c0,6.8-4.4,13.9-10.8,13.9H92.3C86,457,79,449.9,79,443.1V135.4c0-6.8,7-16.4,13.3-16.4h192.2
				l72.5,75.3V443.1z"/>
			<polyline fill="#2E8540" points="227,324 105,324 105,310 281,310 281,324 227,324 			"/>
			<rect x="105" y="277" fill="#2E8540" width="226" height="15"/>
			<rect x="105" y="245" fill="#2E8540" width="226" height="14"/>
			<rect x="173" y="212" fill="#2E8540" width="158" height="15"/>
			<rect x="173" y="180" fill="#2E8540" width="158" height="14"/>
			<rect x="173" y="148" fill="#2E8540" width="133" height="14"/>
			<path fill="#0C71B9" d="M356.5,194h-59.9c-6.4,0-11.6-7.9-11.6-14.7v-60.5L356.5,194z"/>
			<path fill="#112E51" d="M124.9,226.4v-6.9c-8.7-0.9-16.4-4.3-23.3-10.3l6.9-8.2c5.3,4.6,10.8,7.4,16.4,8.2v-18.4
				c-7.1-1.7-12.4-3.9-15.7-6.7c-3.3-2.8-5-6.9-5-12.4c0-5.5,1.9-9.9,5.7-13.4c3.8-3.5,8.8-5.4,14.9-5.7v-4.7h6.1v4.8
				c7,0.5,13.5,2.9,19.7,7.1l-6.2,8.7c-4.2-3-8.7-4.8-13.6-5.5v17.8h0.3c7.3,1.7,12.6,4,16,6.9c3.4,2.9,5.1,7.1,5.1,12.6
				c0,5.5-2,10-5.9,13.5c-3.9,3.5-9.1,5.4-15.5,5.7v6.8H124.9z M118.2,165.3c-1.6,1.4-2.4,3.2-2.4,5.3c0,2.1,0.6,3.8,1.9,5
				c1.3,1.2,3.7,2.4,7.2,3.6v-16.4C122.1,163,119.8,163.8,118.2,165.3z M138.2,206.8c1.8-1.5,2.7-3.3,2.7-5.5c0-2.2-0.7-4-2.1-5.3
				c-1.4-1.3-4-2.5-7.8-3.6v17.1C134,209.1,136.4,208.3,138.2,206.8z"/>
		</g>
	</g>
</g>
</svg>
