<?xml version="1.0" encoding="UTF-8"?>
<svg viewBox="0 0 433 432" version="1.1" xmlns="http://www.w3.org/2000/svg" xmlns:xlink="http://www.w3.org/1999/xlink">
    <!-- Generator: Sketch 49.3 (51167) - http://www.bohemiancoding.com/sketch -->
    <title>Group 2</title>
    <desc>Created with Sketch.</desc>
    <defs></defs>
    <g id="Home" stroke="none" stroke-width="1" fill="none" fill-rule="evenodd">
        <g id="Desktop" transform="translate(-557.000000, -283.000000)" fill-rule="nonzero">
            <g id="Group-2" transform="translate(557.000000, 283.000000)">
                <g id="cap" fill="#EFEFEF">
                    <path d="M432.7,216 C432.7,335.3 336,432 216.7,432 C97.4,432 0.7,335.3 0.7,216 C0.7,96.7 97.4,0 216.7,0 C336,0 432.7,96.7 432.7,216 Z" id="Shape"></path>
                </g>
                <g id="wrench-solid" transform="translate(99.000000, 99.000000)" fill="#112E51">
                    <path d="M233.044473,49.9768053 C232.018354,45.8402638 226.841955,44.4385122 223.827733,47.4527362 L189.764278,81.5162161 L158.669235,76.3352323 L153.488255,45.2401675 L187.551711,11.1766876 C190.584256,8.14414008 189.122954,2.97689891 184.95893,1.94161832 C163.254701,-3.43634367 139.356227,2.35847909 122.393213,19.3169248 C104.234587,37.4755631 99.2368427,63.7973431 106.795302,86.7475897 L9.04381203,184.499149 C-2.40381779,195.946787 -2.40381779,214.508544 9.04381203,225.956182 C20.4914419,237.40382 39.053185,237.40382 50.5008148,225.956182 L148.169849,128.287078 C171.129241,135.941741 197.400612,130.889022 215.67834,112.611281 C232.659678,95.6299307 238.445335,71.6947932 233.044473,49.9768053 Z M29.7768943,216.217215 C23.7072226,216.217215 18.782772,211.292761 18.782772,205.223085 C18.782772,199.148828 23.7072226,194.228955 29.7768943,194.228955 C35.846566,194.228955 40.7710166,199.148828 40.7710166,205.223085 C40.7710166,211.292761 35.846566,216.217215 29.7768943,216.217215 Z" id="Shape"></path>
                </g>
            </g>
        </g>
    </g>
</svg>