<?xml version="1.0" encoding="UTF-8"?>
<svg viewBox="0 0 433 432" version="1.1" xmlns="http://www.w3.org/2000/svg" xmlns:xlink="http://www.w3.org/1999/xlink">
    <!-- Generator: Sketch 49.3 (51167) - http://www.bohemiancoding.com/sketch -->
    <title>Apprenticeships Icon</title>
    <desc>Created with Sketch.</desc>
    <defs>
        <rect id="path-1" x="0" y="0" width="72" height="94"></rect>
    </defs>
    <g id="Page-1" stroke="none" stroke-width="1" fill="none" fill-rule="evenodd">
        <g id="Group-2">
            <g id="Group">
                <g id="apprenticeships_icon" fill="#EFEFEF" fill-rule="nonzero">
                    <g id="cap">
                        <path d="M432.7,216 C432.7,335.3 336,432 216.7,432 C97.4,432 0.7,335.3 0.7,216 C0.7,96.7 97.4,0 216.7,0 C336,0 432.7,96.7 432.7,216 Z" id="Shape"></path>
                    </g>
                </g>
                <g id="Maleadd" transform="translate(99.000000, 99.000000)" stroke="#112E51" stroke-linecap="round" stroke-linejoin="round" stroke-width="8.7037037">
                    <path d="M117.5,0 C52.6065419,0 0,52.6065419 0,117.5 C0,182.393458 52.6065419,235 117.5,235 C182.393458,235 235,182.393458 235,117.5" id="Oval-1812"></path>
                    <path d="M74.4934641,74.8582114 L74.4934641,63.337463 C74.4934641,47.5848394 87.2605338,34.8148148 103.019803,34.8148148 L161.018519,34.8148148 L161.018519,74.9441604 C165.977007,75.8998917 169.722222,80.2603483 169.722222,85.4927292 L169.722222,88.5813449 C169.722222,93.8546245 165.921022,98.2405359 160.905852,99.1511129 C159.294345,121.571056 140.596007,139.259259 117.755991,139.259259 C94.9486716,139.259259 76.2634235,121.610017 74.6120967,99.2320794 C69.3439982,98.5387018 65.2777778,94.0333521 65.2777778,88.5813449 L65.2777778,85.4927292 C65.2777778,80.0803653 69.2821379,75.6027962 74.4934641,74.8582114 Z" id="Rectangle-2323"></path>
                    <path d="M97.0643556,139.259259 L86.8881579,160.029461 L62.6619586,160.029461 C50.2294309,160.029461 39.1666666,170.48735 39.1666666,182.777778 L39.1666666,205.031566 M195.833333,204.537037 L195.833333,182.283249 C195.833333,170.01783 185.775594,160.029461 173.368743,160.029461 L146.149545,160.029461 L135.973347,139.259259" id="Rectangle-2326"></path>
                    <path d="M213.240741,47.8703704 L213.240741,4.35185185" id="Line"></path>
                    <path d="M235,26.1111111 L191.481481,26.1111111" id="Line-404"></path>
                </g>
            </g>
            <g id="Group" transform="translate(244.000000, 174.000000) scale(-1, 1) translate(-244.000000, -174.000000) translate(208.000000, 127.000000)">
                <mask id="mask-2" fill="white">
                    <use xlink:href="#path-1"></use>
                </mask>
                <use id="Mask" fill="#D8D8D8" xlink:href="#path-1"></use>
                <g mask="url(#mask-2)">
                    <g transform="translate(-153.000000, -127.000000)">
                        <g id="apprenticeships_icon">
                            <g id="cap" fill="#EFEFEF" fill-rule="nonzero">
                                <path d="M432.7,216 C432.7,335.3 336,432 216.7,432 C97.4,432 0.7,335.3 0.7,216 C0.7,96.7 97.4,0 216.7,0 C336,0 432.7,96.7 432.7,216 Z" id="Shape"></path>
                            </g>
                        </g>
                        <g id="Maleadd" transform="translate(99.000000, 99.000000)" stroke-linecap="round" stroke-linejoin="round">
                            <path d="M117.5,0 C52.6065419,0 0,52.6065419 0,117.5 C0,182.393458 52.6065419,235 117.5,235 C182.393458,235 235,182.393458 235,117.5" id="Oval-1812" stroke="#112E51" stroke-width="8.7037037"></path>
                            <path d="M74.4934641,74.8582114 L74.4934641,63.337463 C74.4934641,47.5848394 87.2605338,34.8148148 103.019803,34.8148148 L161.018519,34.8148148 L161.018519,74.9441604 C165.977007,75.8998917 169.722222,80.2603483 169.722222,85.4927292 L169.722222,88.5813449 C169.722222,93.8546245 165.921022,98.2405359 160.905852,99.1511129 C159.294345,121.571056 140.596007,139.259259 117.755991,139.259259 C94.9486716,139.259259 76.2634235,121.610017 74.6120967,99.2320794 C69.3439982,98.5387018 65.2777778,94.0333521 65.2777778,88.5813449 L65.2777778,85.4927292 C65.2777778,80.0803653 69.2821379,75.6027962 74.4934641,74.8582114 Z" id="Rectangle-2323" stroke="#112E51" stroke-width="8.7037037"></path>
                            <path d="M97.0643556,139.259259 L86.8881579,160.029461 L62.6619586,160.029461 C50.2294309,160.029461 39.1666666,170.48735 39.1666666,182.777778 L39.1666666,205.031566 M195.833333,204.537037 L195.833333,182.283249 C195.833333,170.01783 185.775594,160.029461 173.368743,160.029461 L146.149545,160.029461 L135.973347,139.259259" id="Rectangle-2326" stroke="#112E51" stroke-width="8.7037037"></path>
                            <path d="M213.240741,47.8703704 L213.240741,4.35185185" id="Line" stroke="#112E51" stroke-width="8.7037037"></path>
                            <path d="M235,26.1111111 L191.481481,26.1111111" id="Line-404" stroke="#112E51" stroke-width="8.7037037"></path>
                        </g>
                    </g>
                </g>
            </g>
        </g>
    </g>
</svg>