<?xml version="1.0" encoding="utf-8"?>
<!-- Generator: Adobe Illustrator 18.1.1, SVG Export Plug-In . SVG Version: 6.00 Build 0)  -->
<svg version="1.1" id="Layer_1" xmlns="http://www.w3.org/2000/svg" xmlns:xlink="http://www.w3.org/1999/xlink" x="0px" y="0px"
	 viewBox="0 0 432 432" enable-background="new 0 0 432 432" xml:space="preserve">
<g>
	<path fill="#EFEFEF" d="M431.7,216c0,119.3-96.7,216-216,216c-119.3,0-216-96.7-216-216S96.4,0,215.7,0C335,0,431.7,96.7,431.7,216
		z"/>
	<g>
		<path fill="#0C71B9" d="M105,271.5c0,0,17.8,47,112.7,47c85.7,0,107.3-39.2,111.3-47V202H105V271.5z"/>
		<polygon fill="#112E51" points="214.5,97.1 43.5,182.3 104.4,212.5 214.5,267 385.5,182.3 		"/>
		<polygon fill="#2E8540" points="304.6,222.6 216.8,180.8 218.4,177.4 303.6,217.9 		"/>
		<polygon fill="#2E8540" points="306.9,219.6 306.9,277.1 303.3,277.1 303.3,217.9 		"/>
		<path fill="#FFFFFF" d="M228.7,176.7c0,3.6-6.4,6.5-14.2,6.5c-7.9,0-14.2-2.9-14.2-6.5c0-3.6,6.4-6.5,14.2-6.5
			C222.3,170.1,228.7,173,228.7,176.7z"/>
		<path fill="#2E8540" d="M316.4,329c0,0-4.2,2.9-11.4,2.9c-7.2,0-11.4-3.6-11.4-3.6l7.6-51.3h7.6L316.4,329z"/>
	</g>
</g>
</svg>
