<svg xmlns="http://www.w3.org/2000/svg" xmlns:xlink="http://www.w3.org/1999/xlink" version="1.1" x="0px" y="0px" viewBox="0 0 100 100" enable-background="new 0 0 100 100" xml:space="preserve"><path d="M76.196,32.766c2.966,4.912,5.76,9.688,5.269,18.447c-0.926,16.549-13.371,27.776-21.619,35.844  c-0.926-0.646-1.356-1.868-1.761-3.143c3.706-2.429,6.729-5.674,9.846-8.8c-5.886,0.37-7.414-6.251-8.791-11.95  c4.512,1.825,9.927,3.668,9.488,10.693c4.796-5.416,11.739-13.802,11.782-25.583c0.026-6.253-2.242-11.141-4.739-15.3  c-5.373-0.657-5.82-7.176-5.812-14.26C73.104,21.136,79.347,26.638,76.196,32.766 M82.696,40.315  c4.628,1.074,8.727-4.206,10.547-6.92c-2.526-0.265-5.962-1.251-8.79-0.213C81.801,34.159,78.517,39.342,82.696,40.315   M74.965,42.41c2.402,0.295,4.192-0.84,3.509-3.354c-1.142-4.236-7.065-5.527-11.774-5.241  C68.528,37.078,70.823,41.901,74.965,42.41 M20.816,41.985c-0.37,2.297,1.016,3.42,3.168,3.145c2.932-0.364,4.663-3.315,5.98-5.655  c0.844-1.511,2.144-2.951,1.752-4.195C27.623,35.898,21.604,37.179,20.816,41.985 M12.207,43.665  c2.221,0.865,6.109,0.506,6.333-2.095c0.478-5.719-9.656-5.017-12.833-3.358C6.567,39.882,9.529,42.621,12.207,43.665   M78.654,52.053c0.628-5.438-7.026-7.79-11.603-7.549c1.369,2.632,2.889,6.197,5.278,7.969  C74.043,53.744,78.356,54.602,78.654,52.053 M84.276,47.02c-2.66,2.167-2.213,5.958,1.407,6.079  c4.465,0.146,7.241-4.391,9.316-7.125C91.9,45.522,86.877,44.9,84.276,47.02 M22.052,55.617c5.734,2.535,8.868-4.613,10.547-9.643  C27.309,46.841,21.101,48.699,22.052,55.617 M17.833,54.563c0.753-5.855-9.617-5.291-12.833-3.35v0.42  c2.041,1.257,3.991,4.191,6.677,5.03C14.169,57.438,17.532,56.853,17.833,54.563 M64.241,52.473  c0.985,3.476,2.07,7.928,4.387,10.063c1.093,0.99,4.163,2.574,5.277,1.042c1.645-2.247-0.977-6.397-2.281-7.542  C69.222,53.919,66.187,53.478,64.241,52.473 M27.498,65.678c6.01,1.55,8.011-6.362,8.438-12.159  C32.044,55.923,25.591,58.42,27.498,65.678 M79.532,62.742c-1.382,2.17-0.418,4.399,1.58,4.821c3.495,0.731,6.151-2.084,7.736-3.771  c0.977-1.041,2.406-2.299,2.285-3.151C87.453,59.384,81.392,59.823,79.532,62.742 M22.754,67.563  c-0.538-5.046-9.376-3.969-12.829-2.514c1.063,1.463,3.47,4.158,5.794,5.243C18.479,71.584,23.133,71.171,22.754,67.563   M70.564,79.514c0.026,1.068,1.215,2.102,1.938,2.308c4.951,1.412,8.58-4.038,10.724-6.922  C78.792,73.737,70.457,74.029,70.564,79.514 M19.232,78.257c2.359,2.247,5.321,6.526,10.026,5.863  c1.128-0.154,2.901-1.05,2.987-2.721C32.539,75.709,22.474,76.682,19.232,78.257 M34.881,76.363  c5.054-0.13,6.931-6.957,7.034-12.993c-3.728,2.644-9.505,4.985-8.084,12.373c-0.177,0-0.207-0.181-0.353-0.216  c-5.73-6.139-13.711-13.707-13.888-26.202c-0.077-5.652,1.61-9.886,3.513-13.834c5.032-0.654,5.084-8.474,4.396-14.673  c-3.186,2.224-8.83,10.108-4.917,14.673c-2.187,4.096-4.073,8.38-4.042,14.674c0.026,9.692,4.637,16.83,9.135,22.642  c4.749,6.131,10.59,10.849,16.174,14.465c0.68-0.801,1.021-1.997,1.408-3.151C41.605,81.908,37.331,79.316,34.881,76.363   M49.298,76.122c0.366,1.325,0.964,1.325,1.33,0l9.829-35.598c0.361-1.324-0.461-2.409-1.834-2.409H41.304  c-1.377,0-2.2,1.085-1.833,2.409L49.298,76.122z M55.816,30.018c-1.516,7.013-6.923,5.993-6.923,5.993s-2.617-0.172-3.96-1.516  s-2.549-5.441,1.171-11.089c3.719-5.648-1.584-10.676-1.584-10.676C53.655,13.028,57.142,23.879,55.816,30.018z M50.977,21.321  c-0.271,1.352-0.818,2.747-1.739,4.146c-2.462,3.732-1.877,6.038-1.683,6.348c0.232,0.183,1.033,0.409,1.92,0.493l0.142,0.004  c0.469,0,1.869-0.011,2.536-3.086C52.596,27.176,52.277,24.021,50.977,21.321z"></path></svg>