<?xml version="1.0" encoding="utf-8"?>
<!-- Generator: Adobe Illustrator 21.0.0, SVG Export Plug-In . SVG Version: 6.00 Build 0)  -->
<svg version="1.1" id="Layer_1" xmlns="http://www.w3.org/2000/svg" xmlns:xlink="http://www.w3.org/1999/xlink" x="0px" y="0px"
	 viewBox="0 0 512 512" style="enable-background:new 0 0 512 512;" xml:space="preserve">
<style type="text/css">
	.st0{fill:#BFBFBF;}
</style>
<g>
	<g>
		
			<rect x="163.6" y="169.5" transform="matrix(0.7071 -0.7071 0.7071 0.7071 -128.5967 261.1059)" class="st0" width="174.5" height="232.7"/>
	</g>
</g>
<g>
	<g>
		
			<rect x="384.6" y="99.7" transform="matrix(0.7071 -0.7071 0.7071 0.7071 40.0302 330.9662)" class="st0" width="69.8" height="34.9"/>
	</g>
</g>
<g>
	<g>
		<path class="st0" d="M501.8,150.1l-20.6-20.6l-74,74l-74-74l74-74l-20.6-20.6c-13.6-13.6-35.7-13.6-49.4,0L255,117.2l164.5,164.5
			l82.3-82.3C515.4,185.8,515.4,163.7,501.8,150.1z"/>
	</g>
</g>
<g>
	<g>
		<path class="st0" d="M82.3,289.9l-32.9,32.9c31.8,31.8,31.8,83.4,0,115.2L0,487.3h98.7c31.8-31.8,83.4-31.8,115.2,0l32.9-32.9
			L82.3,289.9z"/>
	</g>
</g>
</svg>
