<svg xmlns="http://www.w3.org/2000/svg" width="20.156" height="30.234" viewBox="0 0 20.156 30.234">
  <g id="Group_4158" data-name="Group 4158" style="isolation: isolate">
    <g id="Group_4075" data-name="Group 4075">
      <g id="Group_4074" data-name="Group 4074">
        <path id="Path_769" data-name="Path 769" d="M95.411,0a10.079,10.079,0,0,0-8.868,14.867L94.86,29.909a.63.63,0,0,0,1.1,0l8.32-15.047A10.08,10.08,0,0,0,95.411,0Zm7.766,14.258L95.411,28.3,87.648,14.263a8.818,8.818,0,1,1,15.528-.006Z" transform="translate(-85.333)" fill="#fff"/>
        <path id="Path_770" data-name="Path 770" d="M175.706,85.333a5.039,5.039,0,1,0,5.039,5.039A5.045,5.045,0,0,0,175.706,85.333Zm0,8.818a3.779,3.779,0,1,1,3.779-3.779A3.783,3.783,0,0,1,175.706,94.151Z" transform="translate(-165.628 -80.294)" fill="#fff"/>
      </g>
    </g>
  </g>
</svg>
