<?xml version="1.0" encoding="utf-8"?>
<!-- Generator: Adobe Illustrator 18.1.1, SVG Export Plug-In . SVG Version: 6.00 Build 0)  -->
<svg version="1.1" id="Layer_1" xmlns="http://www.w3.org/2000/svg" xmlns:xlink="http://www.w3.org/1999/xlink" x="0px" y="0px"
	 viewBox="0 0 432 432" enable-background="new 0 0 432 432" xml:space="preserve">
<path fill="#F0EFEF" d="M432,216c0,119.3-96.7,216-216,216C96.7,432,0,335.3,0,216S96.7,0,216,0C335.3,0,432,96.7,432,216z"/>
<g>
	<g>
		
			<rect x="77" y="142.9" transform="matrix(0.9813 -0.1923 0.1923 0.9813 -37.2685 45.7683)" fill="#318641" width="280.3" height="143.9"/>
		<g>
			<defs>
				
					<rect id="SVGID_1_" x="77" y="143.9" transform="matrix(0.9813 -0.1923 0.1923 0.9813 -37.4647 45.8268)" width="280.8" height="144"/>
			</defs>
			<clipPath id="SVGID_2_">
				<use xlink:href="#SVGID_1_"  overflow="visible"/>
			</clipPath>
			<path clip-path="url(#SVGID_2_)" fill="#48A463" d="M104.7,163.2c4.1,20.8-9.5,40.9-30.3,45c-20.8,4.1-40.9-9.5-45-30.3
				c-4.1-20.8,9.5-40.9,30.3-45C80.5,128.9,100.7,142.4,104.7,163.2z"/>
			<path clip-path="url(#SVGID_2_)" fill="#48A463" d="M379.8,109.3c4.1,20.8-9.5,40.9-30.3,45c-20.8,4.1-40.9-9.5-45-30.3
				c-4.1-20.8,9.5-40.9,30.3-45C355.6,75,375.7,88.5,379.8,109.3z"/>
			<circle clip-path="url(#SVGID_2_)" fill="#48A463" cx="94.8" cy="311.9" r="38.4"/>
			<path clip-path="url(#SVGID_2_)" fill="#48A463" d="M407.5,250.6c4.1,20.8-9.5,40.9-30.3,45c-20.8,4.1-40.9-9.5-45-30.3
				c-4.1-20.8,9.5-40.9,30.3-45C383.3,216.2,403.4,229.8,407.5,250.6z"/>
		</g>
		<path fill="#FFFFFF" d="M262.6,207.1c5.8,29.6-9.5,57.6-34.2,62.4c-24.7,4.8-49.4-15.3-55.2-44.9c-5.8-29.6,9.5-57.6,34.2-62.4
			C232,157.4,256.7,177.5,262.6,207.1z"/>
		<g>
			<g>
				<path fill="#318641" d="M221.8,256.2l-1.3-6.9c-8.8,0.8-17.1-1.1-25.1-5.7l5.3-9.5c6.2,3.5,12.1,5.2,17.9,5l-3.6-18.2
					c-7.4-0.3-13-1.5-16.9-3.6c-3.8-2.1-6.3-5.9-7.3-11.3c-1.1-5.4,0-10.2,3.1-14.4c3.1-4.2,7.7-7,13.7-8.5l-0.9-4.7l6-1.2l0.9,4.8
					c7-0.9,14,0.2,20.9,3.2L230,195c-4.7-2.1-9.6-3.1-14.5-2.8l3.5,17.7l0.3-0.1c7.5,0.3,13.3,1.5,17.2,3.8c4,2.2,6.5,6.1,7.5,11.6
					c1.1,5.5,0,10.3-3.2,14.5c-3.2,4.2-8,7.1-14.3,8.7l1.3,6.8L221.8,256.2z M203.3,196.8c-1.3,1.7-1.8,3.6-1.4,5.7
					c0.4,2.1,1.4,3.6,2.9,4.6c1.5,1,4.1,1.7,7.8,2.1l-3.2-16.3C206.6,193.8,204.6,195.1,203.3,196.8z M231.1,234.2
					c1.5-1.8,2-3.8,1.6-6c-0.4-2.2-1.5-3.8-3.1-4.8c-1.6-1-4.4-1.7-8.4-2.1l3.3,16.9C227.4,237.3,229.6,236,231.1,234.2z"/>
			</g>
		</g>
		<polygon fill="#48A463" points="358.4,261.7 121.7,308 119.6,297.4 356.3,251.1 		"/>
		<polygon fill="#48A463" points="332.8,130.9 96.1,177.3 94,166.7 330.7,120.3 		"/>
		<polygon fill="#48A463" points="77.7,177.2 103.3,308 92.7,310 67.1,179.3 		"/>
		
			<rect x="283.6" y="186.3" transform="matrix(-0.1923 -0.9813 0.9813 -0.1923 229.3689 572.2337)" fill="#48A463" width="133.2" height="10.8"/>
	</g>
	<g>
		<rect x="77.1" y="157.3" fill="#318641" width="280.3" height="143.9"/>
		<g>
			<defs>
				<rect id="SVGID_3_" x="78" y="158.6" width="280" height="143"/>
			</defs>
			<clipPath id="SVGID_4_">
				<use xlink:href="#SVGID_3_"  overflow="visible"/>
			</clipPath>
			<circle clip-path="url(#SVGID_4_)" fill="#48A463" cx="78.5" cy="157" r="38.4"/>
			<circle clip-path="url(#SVGID_4_)" fill="#48A463" cx="358.8" cy="157" r="38.4"/>
			<circle clip-path="url(#SVGID_4_)" fill="#48A463" cx="78.5" cy="300.9" r="38.4"/>
			<circle clip-path="url(#SVGID_4_)" fill="#48A463" cx="358.8" cy="300.9" r="38.4"/>
		</g>
		<path fill="#FFFFFF" d="M263.3,230.4c0,30.2-20.4,54.7-45.5,54.7c-25.1,0-45.5-24.5-45.5-54.7c0-30.2,20.4-54.7,45.5-54.7
			C242.9,175.7,263.3,200.2,263.3,230.4z"/>
		<g>
			<g>
				<path fill="#318641" d="M213.9,271v-7c-8.7-0.9-16.6-4.4-23.6-10.4l7-8.3c5.4,4.7,10.9,7.4,16.6,8.3V235
					c-7.2-1.7-12.5-4-15.8-6.8c-3.4-2.8-5-7-5-12.5c0-5.5,1.9-10,5.8-13.6c3.9-3.5,8.9-5.4,15.1-5.7v-4.8h6.1v4.9
					c7,0.5,13.7,2.9,19.9,7.2l-6.2,8.8c-4.2-3-8.8-4.9-13.7-5.6v18h0.3c7.3,1.7,12.7,4.1,16.2,7c3.5,2.9,5.2,7.2,5.2,12.8
					c0,5.6-2,10.1-5.9,13.6c-4,3.5-9.2,5.4-15.7,5.7v6.9H213.9z M207.2,209.2c-1.6,1.4-2.4,3.2-2.4,5.4c0,2.1,0.6,3.8,1.9,5.1
					c1.3,1.2,3.7,2.4,7.3,3.6v-16.6C211.1,206.9,208.8,207.7,207.2,209.2z M227.3,251.2c1.8-1.5,2.7-3.3,2.7-5.6
					c0-2.2-0.7-4-2.1-5.3c-1.4-1.3-4-2.5-7.9-3.7v17.2C223.1,253.5,225.5,252.6,227.3,251.2z"/>
			</g>
		</g>
		<rect x="106" y="291.6" fill="#48A463" width="240" height="10"/>
		<rect x="106" y="158.6" fill="#48A463" width="240" height="11"/>
		<rect x="78" y="165.6" fill="#48A463" width="11" height="133"/>
		<rect x="346" y="165.6" fill="#48A463" width="12" height="133"/>
	</g>
</g>
</svg>
